<mxfile host="app.diagrams.net" agent="Mozilla/5.0 (Windows NT 10.0; Win64; x64) AppleWebKit/537.36 (KHTML, like Gecko) Chrome/129.0.0.0 Safari/537.36" version="24.7.17">
  <diagram name="Page-1" id="PsZMlVoD-ilnedrmWPO6">
    <mxGraphModel dx="2045" dy="643" grid="1" gridSize="10" guides="1" tooltips="1" connect="1" arrows="1" fold="1" page="1" pageScale="1" pageWidth="850" pageHeight="1100" math="0" shadow="0">
      <root>
        <mxCell id="0" />
        <mxCell id="1" parent="0" />
        <mxCell id="SRiD97IWDXF6vMLHgxWp-42" value="" style="rounded=0;whiteSpace=wrap;html=1;strokeColor=none;" vertex="1" parent="1">
          <mxGeometry x="-810" y="70" width="672" height="380" as="geometry" />
        </mxCell>
        <mxCell id="SRiD97IWDXF6vMLHgxWp-30" value="" style="rounded=0;whiteSpace=wrap;html=1;" vertex="1" parent="1">
          <mxGeometry x="-580" y="130" width="406" height="270" as="geometry" />
        </mxCell>
        <mxCell id="SRiD97IWDXF6vMLHgxWp-13" style="edgeStyle=orthogonalEdgeStyle;rounded=0;orthogonalLoop=1;jettySize=auto;html=1;exitX=1;exitY=0.25;exitDx=0;exitDy=0;" edge="1" parent="1" source="SRiD97IWDXF6vMLHgxWp-2">
          <mxGeometry relative="1" as="geometry">
            <mxPoint x="-350" y="245.28571428571433" as="targetPoint" />
          </mxGeometry>
        </mxCell>
        <mxCell id="SRiD97IWDXF6vMLHgxWp-2" value="" style="rounded=1;whiteSpace=wrap;html=1;" vertex="1" parent="1">
          <mxGeometry x="-530" y="220" width="190" height="100" as="geometry" />
        </mxCell>
        <mxCell id="SRiD97IWDXF6vMLHgxWp-4" value="" style="shape=image;verticalLabelPosition=bottom;labelBackgroundColor=default;verticalAlign=top;aspect=fixed;imageAspect=0;image=data:image/png,iVBORw0KGgoAAAANSUhEUgAABAAAAAQACAYAAAB/HSuDAAAABmJLR0QA/wD/AP+gvaeTAAAgAElEQVR4nOzdeXicZb3/8c/3mSSlG3QDpJY2mZnMpARKoXoO4kIVqRsKilEB2yZpDR6Ugx4XPG4nuFw/FLfjeih0AdyOVVBxxR5Fad1ZXApNSJO2lCpiaaGlS5J5vr8/UFQsNG1m5p5n5v36U7B9X8qlvT+5n+eRAAAAAAAAAAAAAAAAAAAAAAAAAAAAAAAAAAAAAAAAAAAAAAAAAAAAAAAAAAAAAAAAAAAAAAAAAAAAAAAAAAAAAAAAAAAAAAAAAAAAAAAAAAAAAAAAAAAAAAAAAAAAAAAAAAAAAAAAAAAAAAAAAAAAAAAAAAAAAAAAAAAAAAAAAAAAAAAAAAAAAAAAAAAAAAAAAAAAAAAAAAAAAAAAAAAAAAAAAAAAAAAAAAAAAAAAAAAAAAAAAAAAAAAAAAAAAAAAAAAAAAAAAAAAAAAAAAAAAAAAAAAAAAAAAAAAAAAAAAAAAAAAAAAAAAAAAAAAAAAAAAAAAAAAAAAAAAAAAAAAAAAAAAAAAAAAAAAAAAAAAAAAAAAAAAAAAAAAAAAAAAAAAAAAAAAAAAAAAAAAAAAAAAAAAAAAAAAAAAAAAAAAAAAAAAAAAAAAAAAAAAAAAAAAAAAAAAAAAAAAAAAAAAAAAAAAAAAAAAAAAAAAAAAAAAAAAAAAAAAAAAAAAAAAAAAAAAAAAAAAAAAAAAAAAAAAAAAAAAAAAAAAAAAAAAAAAAAAAAAAAAAAAAAAAAAAAAAAAAAAAAAAAAAAAAAAAAAAAAAAAAAAAAAAAAAAAAAAAAAAAAAAAAAAAAAAAAAAAAAAAAAAAAAAAAAAAAAAAAAAAAAAAAAAAAAAAAAAAAAAAAAAAAAAAAAAAAAAAAAAAAAAAAAAAAAAAAAAAAAAAAAAAAAAAAAAAAAAAAAAAAAAAAAAAAAAAAAAAAAAAAAAAAAAAAAAAAAAAAAAAAAAAAAAAAAAAAAAAAAAAAAAAAAAAAAAAAAAAAAAAAAAAAAAAAAAAAAAAAAAAAAAAAAAAIyAhQ4AAAD/rLX14gn79w9Oqnef5BoeI7OJcRzVmceTY7M6M5voisdErnGxa7xZ1ODyI82VetwvNUaRjRvRbxr7Hkn7//5fclPBZA9Lvt/ke2LTHlO0X4oftlgFt2hHFMXDct9lqts/ZLZzzJiGnevXf3Z3kf6jAAAARcIAAABACU2f3jXuyIbBY4alp8h0dErRMXHkx0XSUS5NctckkyZJNlnySXJNkukoSXWh20dpWNJOSQ9JtlPyHS7tNNNOk3bGsXZG5n8ouB6Q64F6S/3hof2pB7ZtW7YndDgAANWKAQAAgMMwfXrXuPH18SxFwzNkNsPkM+U2XdKxMh0t6VhJT5E0Pmxp4jwi6Y+S7pfrAUn3y3ybW7TZXFsVx1v3DD+yeevW1XsDdwIAkDgMAAAAHEBLy6KphX2prCLPmGyWZDNMfrxLM+WaIdPU0I01zbVdpntNutflW6RoqyveYp7qqx9S3/qtyx8MnQgAQKVhAAAA1Ki2VC43cVY8FLemTCe4W1qmtFxpmWZIaghdiFEZlGurTP1y9Zt5f8F1V1Qfre/t3bVZWl0IHQgAQLkxAAAAqp3lZy1tjFN+QmRxq8c6QaZWSS2SJoSOQxC7JPVI/nu36C7zeH0U664Nm1ZtluSh4wAAKBUGAABA1UinF82sU3SiW9RqHp8gWauk2eKgj5HZLeluk34fm91t0u+HfXh9f/91W0KHAQBQDAwAAIDEmXPswvH7xtefYornuUXz5D5PUlZc20dp7JasR6a7zOPbXNFtu/fV3c4XCwAAScMAAACoaDNmtI0d1zBxntznynyuFM2V/ERJY0K3oabtl+z3Unyn3O60KL7jkf17bufrBACASsYAAACoIN1RS2bgFHd7lls0T7E/U6Z06CpgxFz9imydeXybma/dsLHpDqk7Dp0FAIDEAAAACKh1xpIp++sLz4wseqakZ0k+R9LE0F1AET0s6ZeSrYs9vm3MUGodnygEAITCAAAAKJuWlkVTfX/dMxX5sxXrmW56mqT60F1AGQ1K+rVLa9197djC4NrfbfnijtBRAIDawAAAACgVa8ksPvUv1/mfKY+fJdlxoaOAyuN/kEVrJa2JrbCur+/au8TnCAEAJcAAAAAomlxu0VN9OLXApOeZ9ByXZoZuAhJok8xulfz/bNB+0HPvim2hgwAA1YEBAABw2E6aecHkwVTD8132fEnP54V9QAm4+iWtMfma/a4fbNq0amfoJABAMjEAAABGrLW1rWFo78TnSHr0wC+fKykVOAuoJQXJ7pS0RtKaiZPrfnzbbcuGQkcBAJKBAQAA8KTS6a6j6n1wgcvOlumFko4J3QTgMfdL/l1z+3YhNXhzX98XHg4dBACoXAwAAIDHs5bM4lNjT71U0tmSnyIpCh0F4KBiye6Q9K3ICjdt2Hjt7eJlggCAv8MAAABQa+vFE4b37HmRR9FL5b5A0rGhmwCM2ma5vm/yNXXjxn13/frP7g4dBAAIiwEAAGrUjBltY8eNmfhC9/g8k50t6ajQTQBKZqekb1mkr+4f9u9v2rRqX+ggAED5MQAAQA3JZBYek1L9uXJ/qaSzJI0J3QSg7PZJWiOzm2LzG/v6Vj4QOggAUB4MAABQ5Vob258yHOnVrqhN8tPEW/sB/E1Bsp+b4tWDXvflgYFr7g8dBAAoHQYAAKhCc45dOH7v+NQ5Jjtf/KQfwMjsc9PNJv/S7r0N39y2bdme0EEAgOJiAACAKjHn2IXj902oP0/ubeLQD2B09kv6gcxWH7F76Gu/vf/6R0IHAQBGjwEAABJs3ryu+oceHHxhFEUL5X62pLGhmwBUnYdk9s04jlcfNaXhe7fdtmwodBAA4PAwAABAAuWbFs1RlFrortdImhG6B0DNuNfcv2ym6zf0r/pd6BgAwKFhAACAhGhqWnpsgw23u6xdUkvoHgA1b4PJVw163SpeHggAycAAAAAVbN68rvrdDw6e62Zdkp4r3uAPoPIUJP3I3JdNmNLwdR4RAIDKxQAAABUo37RojpRa4qZXSXpK6B4AGBn/g7mtNvNreEQAACoPAwAAVIjW1raG4T0Tz3XziyTNlxQFTgKAwxVL+qG5rpowpf4b3AoAgMrAAAAAgc3OLDmxEMeXyPRqSUeF7gGAItsp11fiVPzJvr5r14eOAYBaxgAAAAH87dn+6FLJnxm6BwDKw9aZx//NuwIAIAwGAAAoo5bG9sY4il4v+WLxbD+A2vVHya5NuX3u7oHlm0PHAECtYAAAgDJobuz4V4t0qaTzJDWE7gGACjFo0lfdo//uHVj+y9AxAFDtGAAAoESmT+8aN2Hs8GvlfrGkk0P3AECFu1Nmn9uzf9f1W7eu3hs6BgCqEQMAABRZJtNxfMrtDZJ3Sjo6dA8AJMyfJFsZR9Gn+/qu2Ro6BgCqCQMAABRJS6bj9Fj2JrmfI675A8BoDcrsG7Hp4319K34WOgYAqgEDAACMUnNT+1lm0WWSnxm6BQCqkEtaI8Uf6u2/9v9CxwBAkjEAAMBhmDevq37XzuEOub9NUjZ0DwDUApd+b2ZXTj9+5hdvuaV7OHQPACQNAwAAHILp07vGTTxi8HUue7OkWaF7AKBGbTb5x3fta7h627Zle0LHAEBSMAAAwAi0zlgyZajB/13yN0iaFroHACBJekCyz9YP2ifXb13+YOgYAKh0DAAA8CRyua5pNjR0qZu9QfLJoXsAAAf0oKRPRw2FT27YcN320DEAUKkYAADgADKZjuNTsd4tU7t4oz8AJMV+ua6NU6n38wlBAPhnDAAA8HcymSXZlPy9cn+1OPgDQFINyux/Yytc3td37cbQMQBQKRgAAEBSS3pRLra6d8v9NZLqQ/cAAIpiSGZfTnn8/rv7V90TOgYAQmMAAFDTco3tLUpF75P7eZKi0D0AgJKIZfY1i/WenoEVPaFjACAUBgAANWn2rK7j4tTge122RPzEHwBqxaDkV9fH+sD6Tav+GDoGAMqNAQBATWlqWnpsvQrv4+V+AFDTBuVaVYiG37Nx4/V/Ch0DAOXCAACgJmSzFx4ZxWPeKfkbJE0I3QMAqAi7JfuM1euDPT0rdoWOAYBSYwAAUNWy2UvGpOJdb3LZWyVNC90DAKhID5j8o4Vo4if6+j61P3QMAJQKAwCAqpXLtJ8rtw9KOiF0CwAgEdab2zt7BlZ8M3QIAJQCAwCAqpNt7Dgjiuyjks8L3QIASKRfu0dvuWdg+U9ChwBAMTEAAKga2ezi1iiOPiHp+aFbAABV4VsFi968cePyvtAhAFAMDAAAEi+TWXhMKq57v0wd4pN+AIDiGpJrZZzSu/v6Vj4QOgYARoMBAEBiNTa2HzEm0qUue4ekSaF7AADVzHaY4g/xokAAScYAACCRsk3tL43MPiypJXQLAKCm3OWK3n5P//Jvhw4BgEPFAAAgUXJNnSfL4k9K9pzQLQCA2mWmHysu/HvPwHW/Dd0CACPFAAAgEXK5rmkqDH9M7hdKikL3AAAgaViuFaqvf1dv77I/h44BgINhAABQ4dpS+fT4N7rsvZKmhK4BAOAAHjT5+3r6H/m0tLoQOgYAnggDAICKlUt3Pkvun5TplNAtAAAcjEm3m+mSDRtX/jR0CwAcCAMAgIqTy3VN09DQB2VaKq77AwCSpeDSsobB6N3rty5/MHQMAPw9BgAAFeSx6/6XSzoqdA0AAKPwkMn/i8cCAFQSBgAAFSGXbn+63K7iuj8AoJqYdLtkF/X0r/h16BYAYAAAEFQ+3zlRg/4BN10sqS50DwAAJTBsrs+qwd7d07NiV+gYALWLAQBAMPmm9jaP7BNyTQ/dAgBAGdznskvv6V/xtdAhAGoTAwCAspvdtGRWweJPSzo7dAsAAAF8a1iFN/T3X7cldAiA2pIKHQCgpliuqWOpm98gaU7oGAAAAslFSrVPmTz3Tw/uuPPO0DEAagc3AACURUt6US5WaqWk00O3AABQQdam5J1396+6J3QIgOrHAACgxNpS+fT4t7rsvySNDV0DAEAF2mvyy3v6G6+UuuPQMQCqFwMAgJLJN3Xm3XyF+Kk/AAAjYOsiDXdu6L+uN3QJgOrEAACgBPipPwAAh+kvtwEe+Yi0uhA6BkB1YQAAUFQtje2NcRRdI/mZoVsAAEiwNSmPlt49sHxz6BAA1YOvAAAoku4on258u5utlpQLXQMAQMKl3fyiaZPnDm/fce7PpFs8dBCA5OMGAIBRy2aXzojiwkpJzw/dAgBAFfpBHKU6+/qu2Ro6BECycQMAwKjkMp2LzOObJJ0QugUAgCqVMffOaZNOuW/7zjt/GzoGQHJxAwDAYWlpWTQ1Hqr7nNzbQrcAAFAzzFbX77fXr9+6/MHQKQCShwEAwCFrTnecbdI1ko4N3QIAQA36oytaek//8m+HDgGQLAwAAEYsm71kTOS7PyjXmyVFoXsAAKhhsUsfaRi7+z3r168eDB0DIBkYAACMSK6p82RF/iW5ZoduAQAAj7nLvHB+z8B1vBsAwEHxEkAAB5VPt18q05clHRe6BQAA/IOjZVHHtMlzd2/fcecvQscAqGzcAADwhFpnLJky1ODLJT83dAsAADioG+sHo6W8IBDAE2EAAHBAzU1LnmMWf17S8aFbAADAyJi0xd1f2zuw6tbQLQAqD48AAHictlQufdp/mflySZNC1wAAgENylMwWTp18amr7juyt0l0eOghA5eAGAIDHZDILj6nz1PUuWxC6BQAAjI6bvu+mhX19Kx8I3QKgMjAAAJAkZZs6F0TmX5A0LXQLAAAomgfc/cJ7Blb9IHQIgPB4BACoed1RLp3+LzO/StKE0DUAAKCoxpvZBVMnnxpt33HOT6RbeCQAqGHcAABq2KNv+Y+vl/Ti0C0AAKDU/Nv1g6lFfCUAqF0MAECNyja2nxZF9hXxln8AAGrJvR6r7Z5NK38ROgRA+fEIAFCD8un2S83sC5KmhG4BAABldZSZFk6bPHfX9h13MgIANYYbAEANaWxsP6I+ss+Y1Bm6BQAABGZ2dWzjL+nr+9T+0CkAyoMBAKgR+VlLmzwVf13yOaFbAABAxfiNFVIv79l8zUDoEAClF4UOAFB6uXTn8z0q/IrDPwAAeJyTPSr8KpdefGboEAClxzsAgCqXT7dfJmmlTONDtwAAgApkGifZBdMmzx3cvuPOdaFzAJQOjwAAVWrGjLax4xsmXOPSBaFbAABAMrj8C3sHH3nd1q2r94ZuAVB8DABAFZrdtGRWQfGNMp0SugUAACSLSbcPqfDy/v7rtoRuAVBcvAMAqDIt2fb5BYt/xeEfAAAcDpdOrVPq19nGjjNCtwAoLt4BAFSRXKbj1e62WtJRoVsAAECijTfTq6dNmtu7feedd4WOAVAcDABAVeiO8k1Nn5B0paT60DUAAKAq1MusbdqkU6Zs33nuzdItHjoIwOjwDgAg4bLZC4+M4oYvSXpx6BYAAFC1bti9r37htm3L9oQOAXD4GACABEunF82sU91Nks8J3QIAAKreb4ZVeBkvBwSSiwEASKhcuv3pkr4h2XGhWwAAQI0wbTO3c3r6V/w6dAqAQ8dXAIAEak63XyDZTzj8AwCAsnJNd/mtzemO80OnADh0vAQQSJhcuv0/TPY58bI/AAAQRp1J506ZcsrOB3fc+YvQMQBGjgEASIj587vrxkRN10h2mXh8BwAAhBWZ9KKpk+cef9LJ535n06Zb4tBBAA6OQwSQANOnd42beMTQl116aegWAACAf+D6xu799RfwhQCg8jEAABUuk1l4TMrrviXp6aFbAAAADsx/GUd2dl/fygdClwB4YgwAQAVrSS/KxZ76rkzp0C0AAAAHsTElf9Hd/avuCR0C4MD4CgBQoVoyHafHnvoph38AAJAQmYLbz1oyHaeHDgFwYAwAQAVqTnecHbtulmlq6BYAAIARM02NXTc3pzvODp0C4J/xFQCgwuQy7a8x2ZckjQ3dAgAAcBgaTHrltEmn9m7fecf60DEA/oYBAKgguabOt0i6SlJd6BYAAIBRSMn0yqmT5+7avuPOn4WOAfAoBgCgQuTSnVfI/H3i5ZwAAKA6mGQvmDr51LHbd9yxJnQMAAYAoAJ0R7l0+tOSvzl0CQAAQAk8a+rkuUdv33Hu96RbPHQMUMsYAICA5s3rqj9y7IPXSeoM3QIAAFA69i9TJu/Mzjn53G9u2nRLHLoGqFUMAEAgM2a0jfWhuq9KOi90CwAAQKmZbM7uhx46Zez45q8//PBdw6F7gFrEs8ZAANnshUemvOGb7jojdAsAAEA5uesWTw2e09f3hYdDtwC1JgodANSa1taLJ0Rx/U0c/gEAQC0y0/yUN3yztfXiCaFbgFrDDQCgjFpaFk31wdTNLp0augUAACAkk263hsKCDRuu2x66BagVDABAmeRyXdM0PPQDSXNDtwAAAFQE1x2qr1/Q27vsz6FTgFrAAACUQTbbcXQU6weSTg7dAgAAUGF+E0c6q69v5QOhQ4BqxzsAgBKbPavruMj1Y3H4BwAAOJCTI9ePZ8/qOi50CFDtuAEAlFD++M7pXu8/lJQP3QIAAFDhemzIntdz74ptoUOAasUNAKBEcrlFT/V6/Ugc/gEAAEYi7/X6US636KmhQ4BqxQ0AoAT+8sz/jyS1hm4BAABImLsKNvzcjRuv/1PoEKDacAMAKLLZs7qOi2JbKw7/AAAAh+OElNffyjsBgOLjBgBQRH/51N8PJZ0UugUAACDhfqe6+ufxiUCgeLgBABRJS8uiqRoeWiMO/wAAAMVwkoaH1rS0LJoaOgSoFgwAQBG0zlgyJR5MrRGf+gMAACimk+PB1JqTZl4wOXQIUA14BAAYpWz2wiOjuOFmSf8augUAAKAqmX5udbagp2fFrtApQJJxAwAYhXy+c2Kq0PA9cfgHAAAoHddpPuTfa229eELoFCDJGACAw9Ta2tYQD/tqNz0jdAsAAEANOH1o796vtLa2NYQOAZKKAQA4DPPmddUP753wVXO9IHQLAABADXnR4L4Jq+fP764LHQIkUSp0AJA83dGEsduvleyVoUsAAABqjUn5XQ89lN6+49xvSLd46B4gSRgAgEPUnG76jMk6Q3cAAADUsDlTJz989PYdd3wndAiQJAwAwCHIZzo+IOk/QncAAABAT58yaW7qwZ13/ih0CJAUDADACOUzHW931/tCdwAAAOBRZnbGlCmn7nlwxx0/Dd0CJAEDADACuUxnl1yfkGShWwAAAPA3Jj1/6qS527bvvPP20C1ApeMwAxxEvqnzZW7+NUm8bRYAAKAyDbn0inv6V34rdAhQyRgAgCeRSy8+U4q+I4nvzQIAAFS2fXJf0Duw6tbQIUClYgAAnkC+adEct9RPJB0VugUAAAAj8lAkf/aG/lW/Cx0CVCIGAOAAMpmO41Oun0l6augWAAAAHJKtBdPpGzeuvDd0CFBpotABQKVpbGyflHJ9Vxz+AQAAkmhG5PpOY2P7pNAhQKVhAAD+TjZ7yZh6sxsltYZuAQAAwOEx6cSGyG7IZi8ZE7oFqCQMAMBjuqMofmSVmeaHLgEAAMCoPTeKd68Ujz0Dj0mFDgAqRXO66QqTLgrdAQAAgKI5aeqUU+u377jjh6FDgErAAABIak53dJj04dAdAAAAKLpnTZ00t3/7zjt/GzoECI3rMKh5uXTn8yX/rqS60C0AAAAoiSEpflFv/7X/FzoECIkBADUtm13cGsXRTyUdGboFAAAAJfVgpMIzNvRf1xs6BAiFlwCiZmWzHUdHsd0kDv8AAAC1YEqs1DdPmnnB5NAhQCgMAKhJra1tDVGsr0nWFLoFAAAAZZPfX9fw9dbWtobQIUAIDACoScN7J/yPpGeH7gAAAEC52XMG9074XOgKIAS+AoCak0u3/4dkl4XuAAAAQBgmnTJt8qkPbd9xx89DtwDlxEsAUVOyTZ0LIvNvizf+AwAA1LphyV7U279iTegQoFwYAFAzZmeWnFjw+KeSJoZuAQAAQEXYFUfxM/r6rl0fOgQoB94BgJrQ0rJoasEL3xSHfwAAAPzNxChO3dDY2D4pdAhQDgwAqAFtqXgw9SXe+A8AAIB/5rkxkf5XauP9aKh6PAeNqpdvmtDt0lmhOwAAqETuusXMPhi6A5XCL5d0euiKcnPZglx64nt6+9UdugUoJd4BgKrWnG6/wGRfCN0BAEDlsi/39q84P3QFKkMu3Xmj5OeG7gjEXbrwnv6VXwodApQKjwCgauXS7U832fLQHQAAAEgEM2l5Pt35tNAhQKkwAKAq5Y/vnC6zr0s6InQLAAAAEmOs5F/LZBYeEzoEKAUGAFSd+fO767zer5dreugWAAAAJItLM1Ne93leCohqxACAqrNty+YPS3pe6A4AAAAk1ln5pvH/L3QEUGwMAKgq+aaOV0p6c+gOAAAAJJubvbU53f6K0B1AMTEAoGrkGttb3LQydAcAAACqgplseTa7OBM6BCgWBgBUhenTu8Ypsq9ImhC6BQAAAFVjUhSnbpgxo21s6BCgGBgAUBXGHzG4TNJJoTsAAABQbXzOuDETPhm6AigGBgAkXr6pc4nJLgzdAQAAgCrlWtqc7ugInQGMFgMAEi2b7TjVzT8dugMAAADVzaTPZrNLTgndAYwGAwASq7X14glRrC9IOiJ0CwAAAKreEVEcf37OsQvHhw4BDhcDABJrcO/elZJaQncAAACgZpywb0LditARwOFiAEAiPfrcv14ZugMAAAA1xvWqXKZjcegM4HAwACBxmmctnS1z3sQKAACAMFyfyTW2cxMVicMAgESZMaNtrFKFr7g0LnQLAAAAatZ4RfaVxsZ23kWFRGEAQKKMaxh/pUknhu4AAABAzTupPrIrQkcAh4IBAImRy7SfK9kbQncAAAAAkmTSv+ezHeeE7gBGigEAiTC7acksecQbVwEAAFBJzGNbmU4vmhk6BBgJBgAkQHdUMF8u+eTQJQAAAMA/8sn1iq6WZKFLgINhAEDFy6U3Xyb5maE7AAAAgANx2YLmTOdbQ3cAB8MAgIqWT3c+TdLloTsAAACAJ2Pu7883LZoTugN4MgwAqFiNje1HuPxaSfWhWwAAAICDGOOWuq61ta0hdAjwRBgAULHGmN4n6YTQHQAAAMAInTy0dzy3V1GxGABQkbKNHWe42VtCdwAAAACHxt6ebew4I3QFcCAMAKg42eyFR0aRrxT/fAIAACB5oijylfl858TQIcDjccBCxYm84aOSNYXuAAAAAA6PNfmgfyR0BfB4DACoKNmm9pfKtTR0BwAAADAqpq7mdMfZoTOAv8cAgIrR2Ng+KTL7XOgOAAAAoBhM+lw63XVU6A7grxgAUDEaIvuUpKeG7gAAAACKZEadD30ydATwVwwAqAi5TOfLJb02dAcAAABQVKZF+WzHOaEzAIkBABWgdcaSKfL4M6E7AAAAgFJw12dPmnnB5NAdAAMAghuqjz8m2XGhOwAAAICScE3fX9dwZegMgAEAQeWzHefItDh0BwAAAFBatiSfaX9h6ArUNgYABHPSzAsmu+uzoTsAAACAsnC7Kp/vnBg6A7WLAQDB7K9ruFKu6aE7AAAAgHJwaaaG4g+H7kDtYgBAEC3Z9vmSdYbuAAAAAMrJZV25dOezQnegNjEAoOxmzGgbG8d2jSQL3QIAAACUWeTyFY2N7UeEDkHtYQBA2Y0fM+FdkjKhOwAAAIAQTGpuiKJ3hO5A7WEAQFllsx0nuOttoTsAAACAsPw/m2ctnR26ArWFAQDlZFGsqyQ1hA4BAAAAAmuw1PD/iMdiUUYMACibfLq9QxIvPAEAAAAkSfacXKZjUegK1A4GAJRFJrPwGJddGboDAAAAqCixPprNdhwdOgO1gQEAZZGK666UNCV0BwAAAFBRTFMt1hWhM1AbGABQcrn04jNl4moTAAAAcAAmdeQzHc8L3YHqxwCAkpo/v7vOFX0idAcAAABQwRRFd6IAACAASURBVMzdPi61pUKHoLoxAKCk7tu8+U0mnRi6AwAAAKhsPiefnnhJ6ApUNwYAlEz++M7pZnpv6A4AAAAgCVx++exZXceF7kD1YgBAyXiDrpA0MXQHAAAAkBBHxqmhD4aOQPViAEBJNDcteY7cXxu6AwAAAEgSl9qzje2nhe5AdWIAQAm0pUzxJyRZ6BIAAAAgYSwV2Wekbs5qKDr+oULR5dPjF8t0SugOAAAAIIlcOjWX2bwwdAeqDwMAiiqX65rmsitDdwAAgCf0Z5mtltlFcRSf2Nu/i0f2gEoU66MtLYumhs5AdakLHYDq4sND7zZpSugOAADwmD/LtU6mH0u+dvrMxjtuuaV7OHQUgIMwTY0H694p6S2hU1A9eEYbRdOSbj8plt0hKRW6BQCAGuWS7pZrrcnXaDha13Pvim2ho5AcuXTnjZKfG7oDjynEUXxyX9+160OHoDpwAwBFE3v0YZlz+AcAoHxiPTq+r4k9XldQ3S8HBq65P3QUgKJJRbF9SNLZoUNQHRgAUBT5TPsL3f2FoTsAAKhy+yXdKtk6SWutXr/o6VmxK3QUgFKyl2SbOhf0Day4OXQJko8BAKM2f3533bZ7N38sdAcAAFXoIUm3mnytK1q3e1/d7du2LdsTOgpAeUXmH58/v/tk3t+B0WIAwKjdd+/mJeaaHboDAIDEc21XZD80j9eZ+dqnHN/0G/7AD0DSCds2b+qQdHXoECQbLwHEqKTTXUfVaahX0jGhWwAASBqTtrjZjyWtVUprentX9IduQm3jJYAV7U9xNNjc1/eFh0OHILm4AYBRqdPQZeLwDwDASN3FG/oBHKZjUt7wdknvDh2C5OIGAA5bS2N7YxzZ3ZKOCN0CAEAFiiW7w9zXSb62znXr+k2r/hg6Cngy3ACoePtSHrXcPbB8c+gQJBM3AHDYYrPLxeEfAIC/iiWtl/wnMq21wegn/IQfQJEdUbBCt6SO0CFIJm4A4LBks0tOieL4NvHPEACgdu2VtM7ka1zRuiMeGbrjt/df/0joKGA0uAGQCLHHPu+eTavuDB2C5OEGAA5LFMcfEId/AEBteVBm/8cb+gEEFllk75f00tAhSB4GAByylmz7/DjWi0N3AABQYvfK7BZJa2MrrOvr27NBWl3461/csDFcGICad3ZLpuP0DRtX/jR0CJKFAQCHLI6jD0geOgMAgGK7S661imydUlrLJ/kAVLLYdYWk54TuQLIwAOCQ5NLtL5b8maE7AAAYJZfs9r++oT+KG9bevXnZH0JHAcAheHZLY8cLNmxa+f3QIUgOBgAcgu5I2vL/+Ok/ACCBBiX7laS1scfrlLKf9/WteCB0FACMRhzZByXdLP6AjhFiAMCI5TKb2+SaE7oDAIAR2CdprWTrJK094pGhn/GGfgDVx+flmzrO6xlY+dXQJUgG3uKOEZk3r6v+4R1D601qDt0CAMAB7JS01uRrzXwNb+gHDg+fAUwi650+c2Yr/5uHkeAGAEbk4Z3DF3L4BwBUkF1yW+fytSb/SZya+Mu+vk/t/+tf5A39AGqH57Zt3nS+pOtDl6DycQMAB9Xa2tYwvHfCPS7NDN0CAKhVPiC3H/CGfqC0uAGQWJvrx+7OrV+/ejB0CCobNwBwUEP7JpwvDv8AgPLaJekbblrrplv7+lbdLV5yBQBPZNbQnvGvFrcAcBDcAMCTam1taxjaO6FX0qzQLQCAmrJvWIV8f/91W0KHALWEGwCJtnH6zFktvAsATyYKHYDKNrh3woXi8A8AKL8j6pXqDh0BAAmS2XbvlgtCR6CyMQDgCc2f311n0rtCdwAAapNLi7LZxa2hOwAgMdzfM39+N4954wkxAOAJbbt384WSMqE7AAA1KxXFqQ+EjgCABMn+YfPm14SOQOViAMABzZ/fXSfXu0N3AABqnZ/bkuk4PXQFACRFbHovtwDwRBgAcEB/WQ6zoTsAAIhdV4RuAICkMKn5vi2bXhW6A5WJAQAH0B256R2hKwAA+ItnZ5s6F4SOAIDksP8UX3zDATAA4J/kmzadJ4mXLgEAKkZk/hGpmz+3AMAImHRic7rzFaE7UHn4P1I8nrnZO0NHAADwOCflmzbzeSsAGCGTXxa6AZWHAQD/oLmp/fmS5obuAADg8dz0/mz2kjGhOwAgIZ6eSy8+M3QEKgsDAP6BWcRSCACoVI3muy8KHQEAycGf7fGPGADwmGxj+2mSsxICACqWud6TzV54ZOgOAEiIs1oyi+eFjkDlYADAYyyyt4RuAADgIKZF8Zj/CB0BAEkRK3p76AZUDgYASJJa0otyJvGmUABAAvhbmpqWHhu6AgASwXXe7HR7c+gMVAYGAEiSYku9TfzzAABIhgkNKvDFGgAYmVTB7a2hI1AZOPBB+eM7p8u1MHQHAAAj5abXZ7OLM6E7ACARTIvzx3dOD52B8BgAINX5v0nis0oAgCRpSMXRu0JHAEBCjPF65ysqYACodXOOXTjezd4QugMAgEPl0uJsdskpoTsAICHeOOfYheNDRyAsBoAat3d8/ULJJ4fuAADgMERRHH8gdAQAJMSUfRPqLwwdgbAYAGpad2TSm0NXAAAwCi/OZzqfGzoCABLB/VJJFjoD4TAA1LB8ZtMCyXOhOwAAGA33+ArxB1oAGIkTWho7FoSOQDgMADXM4+jS0A0AAIye/Usu035O6AoASII4EmeAGsYAUKOaZy2dLfMXhO4AAKAo3K6YP7+7LnQGACTAC5tnLZ0dOgJhMADUqCg1/O/iuiQAoHrk79uyeWHoCABIAPvLWQA1iAGgBrW0LJoq2aLQHQAAFJNJ758xo21s6A4AqHy26NEzAWoNA0ANigejxS6NC90BAECRPXV8w/iu0BEAUOlcGhcPRotDd6D8GABqj7ns9aEjAAAogUfctSd0BAAkwV/OBDwSXGMYAGpMPtP+ApOaQ3cAAFBMJv9aqlDf3Duw6urQLQCQBCY15zPtvBS8xvC23Brjsb2enQ8AUEXui93/rW9g1U2hQwAgaTy210v6XugOlA83AGrI7KYls2Q6O3QHAABF4HItG4z9RA7/AHCYTGfPbloyK3QGyocBoIYUrNAuKRW6AwCAUbrXpZf1Dqy8aNOmVTtDxyRda2tbQ+gGAMGkChbzMsAawgBQI+bN66oXL/8DACTbsGQf2jO4O39P/8pvhY6pBtlsx9GDeye8P3QHgJD89Y+eFVALeAdAjXh4x/DLTHpK6A4AAA7Tr+W2tHdgxW9Ch1SL+fO767Zt2fIlSQ+EbgEQkh338I7Bl0q6IXQJSo8bADXCpH8L3QAAwGF4xORvmj5z1jM4/BfXfVs2f1DyM0N3AAjPuClcMxgAakA2uzgj+XNDdwAAcEhMP09ZdFpP/6r/vuWW7uHQOdUkn+04x6S3he4AUDHOzOU606EjUHo8AlADojj1OskZewAASfGgzN7cu3HF9ZI8dEy1mZ1ZcmIhjj8v8WFgAI+JNOxLJb0zdAhKi0NhlZs/v7tOct7sCQBIBJe+Wh97a+/GFdeJw3/RNTa2Txr2+AZJE0K3AKg4i6Q2vhhW5bgBUOW2bdm0QDJe/gcAqHRbY/eL+wZW3RQ6pHp1Rw3R5uslNYcuAVCRnprPjD+rZ6O+FzoEpcMNgCrnso7QDQAAPInYXJ8cVv2JHP5LK5fe8l5JZ4fuAFC5ODtUPwaAKpbLdU0z6WWhOwAAeAIb5D6/Z2Dlpf39yx4KHVPNmtPtr5D8vaE7AFQ417m5XNe00BkoHQaAKuaFwfMlNYTuAADgcQYlu3zP4O5TewdW3Ro6pto1z1o622SrxEv/ABxcg4aGXx06AqXDOwCqmMXWwf/VAwAqzK/MC0t7Bq77beiQWpDNXnikxYUbJE0M3QIgIUwdkj4TOgOlwQ2AKtXc2D5XplNCdwAA8BePmPxN02fOOp3Df9lYFI+5VlJL6BAASeLzck2dJ4euQGlwA6BKRWYdfDsJAFAh1qjOLurpXdnf0x86pXbkMx1vc/dzQ3cASB63uF3Sm0N3oPi4AVCF5s/vrnPTa0J3AABq3i65Luntn/WC3t4VHP3LKNvYcYa7PhC6A0Aymez8+fO7+WFxFeK/1Cp035bNLzTpmNAdAIAaZnb9UBy9bWDgmvtDp9SaXK4zrWG/QVJ96BYAiXXsti2bFkj6TugQFBcDQBUy6YLQDQCAmnWvSxffs3HFt0KH1KLp07vGaXjoBklTQrcASDo7XwwAVYdHAKpMa+vFE0w6J3QHAKDmxOb65LDqT7qnfyWH/0DGHzG4TBIv7wJQDC9vbb14QugIFBc3AKrM8N5957g0LnQHAKCmbJDsdT0DK9aGDqlluaaON0q6MHQHgKoxfnDv3pdK+lLoEBQPNwCqjMu5/g8AKJdByS4fjP2U3n4O/yFlGzvOkOljoTsAVJdIOj90A4qLAaCKNDUtPVbSgtAdAIBa4L+M5E/r7V/RvWnTqn2ha2pZNrt0RhTpf8VL/wAUmUsvzOW6poXuQPEwAFSResWvFI91AABKa7fMLurtb3zGhv5VvwsdU+uy2UvGRF5YLenY0C0AqlK9Dw+/MnQEiofDYjUxrv8DAErH5DerUPf6ns3XDIRuwaNS8a5PuOy00B0AqpcpPl/S/4TuQHFwA6BK5GctbZL0jNAdAICq9Gdzf1VP/6oXcPivHLmmjqUue33oDgDVzp7d0tjeGLoCxcEAUCXiqHCeJAvdAQCoLibdFEepU3oGVq0O3YK/aW5sn2um/w7dAaAmmEfRuaEjUBwMAFXCIp0XugEAUFXul+k1Pf0rX9bXd83W0DHl9Oh3r9tSoTueSEvLoqkW6QY++wugXFzOWaNK8A6AKpDNLp2huPCvoTsAAFXBJb+2fjD1lvVblz8YOqbcmtMdZw/v3fuZfGbiNT0b9f7QPf+sLeWD0Rclayrer+kNJ828YHLxfj0k2X55Q+gGVKTTZ8/qOu7uzcv+EDoEo8MAUAVScfxK5/o/AGC0THeb4tf1bLx2XeiUckunF82sU/RZSS9xSXLvzjZ2/KRv08ofB077B7n0hCu9+J/8fcX+ujGvKPKvCaC6RMN1g6+U9KnQIRgdHgGoAlzJAQCM0qDJ3zFxUv3JtXf4b0vl0+2X1Sl1l2Qv+bu/EEWRr8xmLzwyWNrj5DIdiyW9OXQHgNoUyThzVAF+apxw+eM7p3u93yvGHADA4flFyqKld29c/vvQIeWWzS5uTRWiq92e5Cs6rut6B1YuLmPWAWWzHadGsdZKGhu6BUDNiutjf+r6Tav+GDoEh49DY9LV+zniv0cAwKHbLbOLevtnnV5rh/9s9pIxuXTnFVEc3fGkh39JMi3KZdpfU6a0A8rluqZFsb4mDv8AwoqGUtHLQkdgdDg4JpxzFQcAcIjc9P0o9pN6N65YJnXHoXvKKZ/peF4U7/695JdJqh/Rv8ntc+n0opmlLXsibSkND31RUmOY3x8A/sY85uyRcDwCkGDZbMfRUaw/SKrYTxUBACrKn8394p6BVatDh5Rb64wlU4bG+Cfk/lod3p9/bu3t3/1caXWh2G1PJp/p+IC73lXO3xMAnsRQ/WD0lFr8Sky14AZAgkWuF4vDPwBgJFzfsCE7uRYP/7lM54uGGuLb5b5Qh//Dj2fn0+PfWMyug8ml21/srv8s5+8JAAdRP1RfeMnB/zZUKj4DmGSxXs4dDgDAkzFpi8v/rXdg1XdCt5RbJtNxfMr1WbmfXYxfz2VX5tLtP+3tX/WrYvx6Tyab7ThBsf5X/LAGQKUxe7mk60Nn4PBwfEyoxsb2Ixoi+7Ok8aFbAAAVqSDZR3bvq3vftm3L9oSOKa/uKJ/edInLLpd0VFF/adPdu/fWP62U/5mm011H1WnoF5Lypfo9AGAUdsfRhGl9fZ/aHzoEh44bAAk1JqX57hz+AQAHdFdket2GjSt+Gjqk3LLZjhOieMsylz2zJL+Ba/aEIwY/LKlUjwNYnQ9dK+PwD6BiTVDhkTMk3Rw6BIeOa2UJ5TKevQEAPN5+k79j4uT6uRs2rqypw//fPu2nOyUvzeH/MXZxc7qjKI8VPF6uqf0/ZTqnFL82ABRLSs5ZJKF4BCCh8umOzS4F+iQRAKDimH6eUvS6uzcu/33olHLLZzqfG7tfZVJzGX/bB4Y8ddLAwDX3F+sXzKXbXyzZTeIHNAAqng/09q9Kh67AoWMASKDZmSUnFjz+XegOAEBF2CWzt/ZuXHG1JA8dU07Z7IVHRoWGK2V6ncL8mea7vf0rX6Ii/OeezS7ORHHqV5JPLkIXAJScF1In3LP5mrtDd+DQsDAnUKFIbzMGACSdfd2GrKV344plqrHDf3O687wort8gU5fC/UDjRc2Zjq7R/iJzjl04PopTN3D4B5AodTFnkgRiAEgknrkBgBr3gLm/qrd/xct77l2xLXRMOWWzS2fk0h03mfyrkh0XuidyfSzX2N4yml9j3/i6qyWfU6wmACiHiDNJIvEIQMLkcl3TNDz0R0mp0C0AgABcy8YU9r/jd1u+uCN0SnmV8NN+o2TS7XVjdz9j/frVg4f6782nO9/k8o+XogsASqwQNRSO3bDhuu2hQzByfAYwYXx46Czj8A8ANcj/IIve0Nu/4sbQJeWWn7W0Ka7b/Dl3e0HolgNx6dShvRPfKan7UP59LZmO02P3D5WmCgBKLuX7686U9JXQIRg5HgFIGDN7UegGAEBZFST70O59DdnejbV1+P/rp/08VegxV0Ue/v/G35PPdD53pH93JtNxfOy6UVJDCaMAoKTcYs4mCcMNgGQxuS8IHQEAKJv1cWSv6+tb8bPQIeWWbWw/zeLdV0s6MXTLCEXuft1JMy+Yc7DHM2bMaBubivUNmY4pVxwAlITZAj36WHlNvYg2ybgBkCAt6fYTJR0bugMAUHL7Tf6OiZPrT6m1w38+3zkx19RxVRTZTy05h/+/mjFYN+bTB/ubxo2ZeJVMp5QjCABKyjU9m+2YHToDI8cAkCCxdFboBgBAabnrlpT8pJ7+VR+67bZlQ6F7yqk53f4KH/bQn/YbFZcuaE63X/BEf70503GR3BeWswkASikVGzeUE4QBIEk8YgAAgOr1sMwuumdg5fPu7l91T+iYcsrlFj310U/72dfkmh66Z7RM9tnZTUtmPf5fz6U7n2WuT4VoAoBScTlnlARhAEiIbPaSMWb+nNAdAICSuNGGbHbvxhXLVFvPUVou09ml4dTvJZ0dOqaIjipY/Hmp7bGv9uSP75wu+WpJ9QG7AKAUzshmLxkTOgIjw0sAEyLlu5/p0rjQHQCAovqTub+xZ2DV6tAh5ZZrbG9RZMvk/uzQLSXyrFx64tt6+3VFa2tbw9BeXy3pKaGjAKAExmt492mSfhw6BAfHAJAQ7n5WQh+HBAD8M5fr6jGF/e842Bvjq82jh+GJ75T8MklHhO4pLX9/rmnJD4f2+GtlfnroGgAolVRKZ4kBIBEYAJLjeaEDAABFcZ9FekNP38pvhA4pt3zTojlDe6OrJf+X0C1lUicrfF0yfvIPoKq5dKakd4fuwMHxI+UEaJ2xZMpQQ/wnSamD/s0AgErlJr9qSA3v6O9f9lDomHKaMaNt7LiGCe+R9FbxDDwAVKPCmOH9R9farbYk4gZAAgw2FOabjMM/ACSUSbcXomhpX9/yO0K3lFsu036uZJ+phrf7AwCeUGp/fcMZkr4eOgRPjq8AJILx9n8ASKZ9Jn/HcTNn/WutHf4zmYXH5DKdX5HbjRz+AaAGOGeWJOAGQAJE0rNr6ZtQ5WBur7aosPH/s3fvcXKW9f3/39c9uzmRVCK2KEKyOzuZTVhAgudWkVax37ZU7ZcubVGS3UlYlEq1rW3S+mgb+m1tqIcWD2AWsrtJqrWulV+LWusxiooKkeOazGR3dgMhCCKnnHd27s/vD6KAckqyuT/3zP16/tVa2LyKu+xcn/u6rtu7A40tVu5dMrvIuwOpdVOw+sry+Mbby1XvlGQVO3r/QKYrJTvRuwUAkJhmfatLU2EAkHKnL7hw/kHpTO+OZhNF4Ydbxzbc6d2BxtbZ3vMjC1ylgl/wqEL4i8rYwDWSMjW/7WwvdVqI+2XiKRAAZM/Strae4ycmhh72DsHTYwCQcvtzM14TcVQDABrFZ3P11ndu3dF/r3dIkn76aj+T/aUUZnv3AABc5Fqj3K9J+rx3CJ4eA4CUy0XhbMvU8yMAaEj3xGbvGB0fut47JGnF9hWvqO23ayQ7w7sFAOAtPlsMAFKNAUDKmel13g0AgKdlMl0zabYqa1seu7ounTu1b/8/WogvFZ8nAACSgli7pB2/sFOss7M0z2q21LsDAPBUQsUsXLx9fP03vUuStrit9zdr+/ddrRDavVsAAKny0s7O0rxyeWC3dwieGgOAFAsH7Vct4r8jAEiZuhQ+sG9y9+U7dw7v945JUqHQ+8uRhY/FZt0SF2ACAH5BSzwZv0rSl71D8NRYXKaY5fTabN0fDQApF7RVFvoq1YFveackbVG+dH6I449IepF3CwAg1V4rBgCpxQAg3V7jHQAAkCTtDbL3vuiUto9t3rxmyjsmSYvzy4oWcv1m9jqe+gMAnk0IgTVMivF6uZQ655w1LWZ6mXcHACB8NY7il5SrQ1dma/HfnevM96yKlbuVC2kBAIfhFeecs4YHzSnFfzEpdc/ExGkhCsd5dwBAhj2oEP60MjawScrWgaxivuflUrjGpJd4twAAGs5x9+6onirpdu8Q/CIGAGmVC6/M1sdNAEgPkz4zI7bLRiYGf+TdkqSfvdpP4tV+AIAjZlHLq8QAIJX45Z5SkemVrP8BIHE7Y7NLR8eHrvcOSVqhvfTG2v59H+fVfgCAo2Vmr5TU792BX8QAIKUs6FXsAACAxJhM10yarZqYGHrYOyZJxWLfC1Sfukq82g8AME2C9CrvBjw1LgFModMXXDhfpsXeHQCQEWWZva4yPnhJ5hb/HaU+TdXKjy3+AQCYNkva2nqO947AL2IHQArtz816eSTjMQwAHFs1Kbxv3+TuK3buHN7vHZOkJe0rFtZDfLXMfsu7BQDQlEJr0Mslfdk7BE/GACCFcpFeaWz/B4Bj6SZZuLgyPnCbd0iyunOd+ePeEyv+W0lzvGsAAM0riqJXiQFA6jAASCGz+JWcwwSAY2JvkL33RQvaPrZ585op75gkLe5Y/tLYomtNOtO7BQDQ/B5b0yBtGACkUnipdwEANJtgurGeiy8eHd0wUq561ySnq6t7Rm3/3NWx6a8lzfTuAQBkBWuaNGIAkDLF4rIXa0ov9O4AgKZh+omi8Gfl6sAmKVvvVynmS2+o7bN1Csp7twAAMueFnaeUTirfPbDLOwSPYwCQMjaVW8rmfwCYJiEMt8bxn4yMDf7IOyVJh17t9yGZvU2BM2UAAB9xa1gqiQFAijAASJkohKXGDYAAcLR2xmaXjlYHr/cOSVqxo7RMU7V/lnSidwsAIONCvFTS570z8DgGACljZku9GwCggcXB9NFaaP3b6nj/I94xSTr0ar+rZPbb3i0AAEhSMLG2SRkGAOlzlncAADSobVK4uDw+8C3vkGTxaj8AQFrxcDNtIu8APK7r5BXPl7TQuwMAGsykFC6fjG1ppZqtxX+h0HtWZ37u901hrbH4BwCkTmg7fcGF870r8Dh2AKTI1Mz4zGzdTw0AR+2mYPWV5fGNt3uHJKmtrWfWjChao9j+3PhdDgBIr1CbMeMlkjZ7h+Ax7ABIkThm+z8APEd7guzdJy1Y+KtZW/wX88tfPyMKd0q2Siz+AQApF8eBYwApwgeHFImClrIBAACe1ZdDPXdJece14+Wqd0pyFi9edkJca/kXmb1N4tV+AIAGERgApAkDgBSJpTP4RAcAT+tRWfjryviCq6U1sXdMkhblV/yOTcZXSbbAuwUAgMNidoZ3Ah7HACAlurq6Z9T2q9O7AwBSKYRNtTj6i/Hxa+/zTklSPr9sQYuiq6T4d9ghBgBoUEvOOWdNy+bNa6a8Q8AAIDUOHpxbiKRW7w4ASJm7TdE7to+t/7x3SLIee7WfKfyNpOO8awAAOAoz7t1xV4eksncIGACkRq6uU439/wDwU3EwfbSem/yb0dFPPOodk6RCYXlXFEf9Jv2qdwsAANPBIp0qBgCpwAAgJSzoVO8GAEiFoK1B8cXl6oZve6ckqVC4bGYU771csf2Z2BEGAGgiJuuSdJ13BxgApIfpVO50BpBxk1L4p8l6vHZiYsMB75gkdXb0/obFe9ZJKni3AAAw3SLTEu8GPIYBQFqwAwBAptn3I2nlturgHd4lSeo6ecXzazPtX41X+wEAmphJXd4NeEzkHQDpnHPWtEi8AQBAJu1RCJdUqm2v3lYdytTiv7O9p7s2Ix6R2UVi8Q8AaG6dUnfOOwLsAEiFe3fc1aGgGd4dAJCkIPuS6i1vL++4dty7JUkdHb2n5ExXmXSedwsAAAmZtSR/XH5rVdu9Q7KOAUAKWKRTxQueAWTHA8Hs0vL40LB3SLLWRJ35icvMdLmk53nXAACQpDgKp0oMALwxAEiDOF6iwO5PAM3Pgv475OqXlisb7/FuSVKxWMprasc6U3iDdwsAAB4sDksk/Zd3R9YxAEiFUPQuAIBjKUh3mewd28eGvuDdkqSfvdpvilf7AQCyLchY86QAA4A0CKEgzgAAaE6xFN6/+0DL3+/a1b/POyZJiws959TjPf2SFnm3AADgzXjVbSowAEgF44cBQDP6YRR08baxge94hySpUHjrL0X1Ge+PY10cuN0fAIBDWPOkAa8BdNbZWZon6UTvDgCYRgeDbPW8+a1nbhsbzNTif1G+dH4Ut25TUJ9Y/AMA8AThhWeceNFx3hVZxw4AZ/HBuCNEfEYE0CSCvptTdPHWsfV3eqckqVBYeXIU16+W7DzW/QAAPKVwcE7okHS7d0iWMQDwFkUdnP8H0AQOSOHyk05Z8IHNm9dMecckqbO9920W1z8k6Ze9BLqyxwAAIABJREFUW4Aj9NmZUwdXekcgHQ62zPw3Sb/t3YHmZFELAwBnDACcBS6HAtDgLOh/c3V7+7aJwYlK1bsmOYsWrlwScvV+k17j3QIcnTB5x12ffMi7AulQzJcmeTiFYyXIWPs4YwDgLVgH/44F0KB+HMz+uFIdGvYOSVJXV/eM2v55fy3VV0ma5d0DAECjsFgd3g1ZxwDAmcUqBI6LAmg0pv6Z9YOrs/bUsNDW86rJ/eGaIDvNuwUAgIYTeBWgNwYAzgI/BAAayw6F8I5KdeB/vEOS1NlZmmeT9gEFXSxu+QMA4IgEsfbxxmsAHXV1dc+QdJJ3BwA8B6agaydjO7Mylq3FfzG//PVWs1t4tR8AAEfHpBe/9KV9rd4dWcYOAEe12ryTJWMIAyDtRuIoXDw6OnCjd0iSisVlL9ZU7uOSzvNuAQCgSeT2/mTyxZImvEOyisWno3jSTvFuAIBncDDIVs+b37o0Y4v/UOwo9Wkqd6dY/AMAMK3qIbfAuyHL2AHgKBd0Ci8AAJBGZtrcEqxva3Vou3dLkoptPYsVhX6Zvda7BQCAZhQFHoJ6YgDgyIL45geQNrsVwnu2VweuUYZeBP34q/2MV/sBAHAMmVgDeWIA4MikU7hNCkCKXBdq4Z3luwd2eYckaVFb7ytr+3WNZKd7twAAkAEMABwxAHAUZAu4UBpACvw4mP1xeXxo2DskSU94td9KcScOAAAJMe4AcMQAwFV0SoZ22AJIH5Ppmpn1g6vvuOuTD3nHJKnY0fMWq9lHFfRi7xYAADKGHQCOGAD44psfgJeJEOwd5erQF71DktTRcdGv5NT6UZl1e7cAAJBRrIEcseXRSVfXpXMlm+/dASBz6lK4Ys+B1q7yWKYW/6HYUerLWes2Fv8AALh6/mNrIXhgB4CT2t59Jyvi/D+AJIVKHFvf6MTAN7xLktTR0XtKznSVzM7zbsERi/XYpTn84gSAJlDbu+9kSdu8O7KIHQBOQi56kXcDgMw4GGSr581vOW10YjAzi/+uru4ZxXxpTc5UlsTiv7HdE2rh5CB7t6TbvGMAAEeHtZAfdgA4MdmveDcAyISv10PUNza2ftQ7JEnF9hWvqO23ayQ7w7sF0+PQ6ymvlHTl4o7lL7U4WmZBF0p6gXMaAOAwsRbywwDAiUknso8RwDH0qEL4i8rYwDXK0OtGurounTu1b/8/WogvFb/jmta2sQ1bJG0pFC77S9V3vzGKootk9hZJrd5tAIBnZ9KJ3g1ZxYcjJ0HhxAx9JgeQrM/m6q3v3Lqj/17vkCQtbuv9zdr+fVcrhHbvFiRjdPQjByVdL+n6JQv7XhTnJi8whR5JZ/qWAQCeSSSxA8AJAwAvFp/IXUYAplXQrji2t4+OD13vnZKkQqH3lyMLH4vNuvn3anYdGnhdKenKQmF5VxTnLpKsJOmXndMAAD+HHQB+uATQTeCbHsB0MZn6J+vWlbHFfyh2lPqiOJR5tR+eaHR0w0ilOrC6dfaek2OzNymEYUk17y4AwGOMHQBu2AHgxn6FJ1UAjt5PX+2Xndv9JWlxflmxbrl1MjvHuwXpNTIyPKlDRwS6Tl7x/NpM+/1gdolJZ3m3AUCWBWMHgBcGAG7YAQDgqNSl8IF9k7sv37lzeL93THK6c535494TK/xdCJrtXYPGMbJz/YOS+iX1P+GIQK94CgUAHlgLOWEA4IcPHACOUNhicbxy+8Tgrd4lSerMl15msmtNeol3Cxrb6OiGEUmrpe73FvPzfl1BfTJ7s6QZ3m0AkAWBtZAb7gBwUCi89ZcknlwBOGwHgmz1SQsWvGr7xFBmFv9dXZfO7WzvvdJkN4rFP6bVcL1SHfhKZWzggplTB1+oEC6RwhbvKgBodibN6eq6dK53RxaxA8BFCzcSAzhM9v1IWrmtOnRHuerdkpxivvSa2oH9/Qpa4t2C5nbHXZ98SD87IlB6dS6Ol5nCH0o63jkNAJrS1J7JX5a0x7sjaxgAOMjFufkm884A0BgeVAh/Whkb3CRl518cxWLfC1Sfukpm3dn5/xppMTo6cKOkG6Xud3JEAACOjXprfb6kce+OrGEA4CC2eH4IvAEAwDMLsv+M6jMuO/R+88wodpSWaar2fnE+EO6G65WqviLpK6cvuHD+wdZZ3TItk+zXvMsAoNFFcTzfuyGLGAA4iKTjeaAF4BncE5u9Y3R86HrvkCQtaV+xsB7iq2X2W94twM974hGBRQtXLgm5eLlkyyW90DkNABqSKccRKwdcAujAOE8I4KmZTP2TsZ2WrcV/d64z37MqDvEPJbH4R+pt33Ht1kp1YHWluudkKZyrEDYFaZ93FwA0kmDGDgAH7ABwYFF0fDD2AAB4krJZ1Ld9fP03vUOStLhj+UvjOLrGpKXeLcDhe/yIQFtbz5/MyEUXcEQAAJ4bHor6YADgIPDNDuBxU1L44L7J3Zfv3Dm83zsmKWeceNFxB+e0vC82XarA7yI0vomJoYd16IhAsa1nsaLoDyXrkbTQtwwA0imKWBN54EOXB+ObHYAk6WZZWFkZH7jNOyRJxXzpDQdkH5fU4d0CHAuViaFtktZIa/6+mL/rNxS0LJidb9Ic7zYASAszY03kgAGAgyDjEkAg2/YG2XtftKDtY5s3r5nyjknKoVf7fUhmb5PEq1CQAWvinx4RyOf7LmsJU2+W2UWSXi9+BgBkXFDgDgAHDAAccN4FyLLw1TiqXzI6umGsXPVuSc6hV/v9s6QTvVsAD9Vq/yOSNkra2Nle6rSgPzr0FoE23zIA8MGayAcDAB98swNZY/qJovBnlbGBTZIyswkon1+2oEW5q2X2294tQFqUxwfKevyIwK/K7CIFvVXScc5pAJCYYGIHgANeA+hjnncAgET9T07RSytjAxuVncV/KLb3rmxRy62SWPwDT2lNXKkOfKsyPniJWlrbLOhdQfqBdxUAJMGC5no3ZBE7AHxwCRCQDTtjs0tHx4eu9w5JUqHQe1Yu1jUmnZWdeQdwdCqV/gckfVjSh/P5ZQtaFf2RWehTUN67DQCOEdZEDtgB4ML4ZgeaWxxMH55S62lZWvy3tfXMKuZLa6NY331s8Q/gSFSrG+8qV4euqIwvXCSF18rUL2mPdxcATC/WRB7YAeAizPYuAHDMbJNZX3l86AbvkCQV88tfL4V1kvFqP2DarIkrVX1L0rcKhbf+RWQz38JbBAA0D9ZEHhgA+GDaBTSfSSn8077J3Vfs3Dm83zsmKYsXLzshrrX8C6/2A46t0dFPPKpDbxHo6Og9pcXsQlO4WBJDNwCNijWRA44AJOycc9a0SJrh3QFgWt0UrP7ySnVgTZYW/8WO0rJ4MnfnoSeSLP6BhIyNDd5drg5dUakuLD7hiMBu7y4AOEwzDq2NkCD+gSfs3nvvYqsL0CQsaG+QvftFC9o+tnnzminvnqR0dPSekjNdJbPzvFuAbHv8iMDJJ3e/+7jW486zEPrEEQEADeLQ2ogBZoIYACRsaqo2O8c/dqApzJs/431btvTXylXvkmSNjQ3eLel3vTsAPO7Q7qNhScOLFq5cEnLxcsneJunFzmkA8LSmpmoMABLGEYCEtdZznHUBmsSWLf017wYA+Hnbd1y7tVIdWF2pDp4chfhlHBEAkFasjZLHACBhUy2Bb3IAAJCIbWMbtlTGBy+ZjO1XgtkFkj4nqe7dBQASayMP7EVPWIvFs2PmLgAAIEETE0MHdOiIwOL8smIcWpYfusDzFOc0ABnWYjH3oyWMlWjCpuqh1bsBAABk17bqxkplbOC9lerCNjN7owX9r3cTgGyaCjnejpYwdgAkLJeznBkX8wIAAG9r4u3j+rJ3BYDsimLlvBuyhh0ACavXI4YuAAAAADIvjo0BQMIYACQsl2PKBQAAAABRFPNwNGEMABLGlAsAAAAApNhyrI0SxgAgYVHEDgAAAAAAYG2UPAYACWPKBQAAAABSHHMEIGkMABIWGUcAAAAAAIAdAMljAJAw45scAAAAAGQWsTZKGAOAhAW2uQAAAACAQjDWRgljAJAwiwL/zAEAAABknhnr0aTxDzxhIbbYuwEAAAAAvIUg1kYJYwCQsDio7t0AAAAAAN5CzNooaQwAEhZFgW9yAAAAAJlnrI0SxwAgYTFTLgAAAABQHMdT3g1ZwwAgYSEw5QIAAACAiOPRiWMAkDBjygUAAAAAimIejiaNAUDCuAMAAAAAAKQ44uFo0hgAJKxeZ5sLAAAAAPBwNHkMABLGNzkAAAAASDEPRxPHACBhccQ3OQAAAADEuYgjAAljAJCwiEsAAQAAAIC1kQMGAAnLhdx+7wYAAAAA8MbaKHkMABJWz9k+7wYAAAAA8MbaKHkMABLWOhnzTQ4AAAAg81gbJY8BQML2RzPY5gIAAAAg81gbJY8BQMLmzxdTLgAAAACZx9ooeQwAErZlS39NErddAgAAAMiyqUNrIySIAYAPJl0AAAAAsow1kQMGAD446wIAAAAgy1gTOWAA4ILXXQAAAADIMtZEHhgAuAh8swMAAADIMNZEHhgAuLC93gUAAAAA4Ic1kQcGAA6C9LB3AwAAAAB4sRAe8m7IIgYADsz4ZgcAAACQXSHmoaiHFu+AjHrEOwAAAGRbPt/3vJYw9QfB4vnl6tAV3j0AsiUEBgAeGAB4COEhybwrAABAxnR1dc+Y2nfcmy2EPqn26zLlTNGnvLsAZI/J2BXtgAGAD6ZdAAAgMYs7lr80jqO+2v7QrWDzvXsAgHvRfDAAcGDSw8E7AgAANLX29pUnzghTPaawLDadqiCxAxFAWsQhMABwwADAQQjxwzJGAECjO33BhfPvuOuTmdu+dvqCC+cfnDWLJ4hIzNTU1FS1uvEu747G0J3r7DjuXLNouVR/iynM8i4CgKfCDgAfDAAcBOlh5u9A45vMzfirYkepra7aO8fGNt3v3ZOUh+LagTlTs5ZJ9leSZnj3oPm1KHe3pAXeHWlWzJdeI7OLFEK3mc3nST+AtItj3ozmgdcAOqjXmXYBTcOsO2ct5WJHqU9SJrb27Nw5vL9SHVgTyV4WTDd69wBZ1d6+8sTOfM+qYr53RLIbFNQncb4fQGOIxBEADwwAHERsdwGazfEyW1fM9/7nkoV9L/KOScq26tAdL1q48Gwz/UWQ9nn3ANnQnSt2lH6r2N77qdZQnzCFtZJO9a4CgMMVhRprIgcMABxEs+IfezcAOCZ+L87VRjvzPauk7px3TBI2b14ztX188ANRvbWgEIa9e4BmVcyXXlNs711XzM/7scy+oKA/kMT5fgANq3VqijWRAwYADrZt2/igpJp3B4DpZ9IcU1hbzM/9ZqHQm5mnclt39N9bGRu4IDZ7U5C4rA2YBl1tPS9kiz+AJnXwjrs+yQ4ABwwAfJiCmHgBze1Xo1i3FvOltV1d3Zm5KG90fOj6mXunTpXCFZLq3j1Aozn55O7ZxY7SsmK+98u1KOxkiz+AJvVjcVupCwYAXmLd550A4JhrlWxVbf/cm4vtK17hHZOU2+/btLdSHVgdR3qFFLZ49wCN4Kdb/OfMmLtLZhskvUFSJo4SAcieIGXm7UlpwwDATWAAAGTH6Qrxtzvbe68848SLjvOOScro6OAPTlqw4FVB9m5Je717gLT52Rb/jt4fPr7FX8d7dwHAsWbiYagXBgBujG96IFtaLOhPDsxpub2YL73BOyYpmzevmSpXh65USzgjyL7k3QN4O+mkvjlP2OJ/jymslWmJdxcAJIu1kJcW74CssqD7MvHCcABPFpSX7EvFjtK/tR4M7x7Zuf5B76QkVCoDVUm/2dne020hfEzSL3s3AUkq5kuvkdlFCrULZDzlB5BtpsARACfsAHASjG96IMOCzC6qzYhHFuVL53vHJKk8PjQ8c+pgp0z94vIfNLkl7SsWFvOlNWzxB4AnC+wAcMMOACdBdh+ffIHMe2GQfaaY7/1cqIVLyncP7PIOSsIdd33yIUmXLGpf8YkQ4nWSFns3AdPlpJP65sydPfX7Mruorvg3JEWMugDgyXgY6ocdAE5ipl4AHneetdpIsaPUJykzp4O2j6//5mRsS6VwuaRJ7x7gaPz0Fv+5s2r3POEWfz5nAcBTYC3khx0AToKi+9n9CuAJjpfZumK+9Fuhpj/Oym6AiYmhA5LWLO5Yfr1Z1G/SWd5NwHO1ePGyE+q16MJg0XLJXpqd8R0AHJ3H1kLwwADAycz6gbsOtsz0zgCQOvYWteqNnfmevy9X935AGq57FyVh29iGLZJeVuwoXSyz90v6Je8m4Kk8cYt/PKnfCFLEQB8ADs/M+oG7vBuyiq1pTg6dgd3j3QEgfUyaYwprO9vn3lAo9J7q3ZMgq4wN9OfqrYsVwibvGOAJQjFfekOxo7Rx7qzaLrb4A8BR2X1oLQQH7ADwtVNcfgXgaVjQq6NYtxbzpQ+1zt79tyMjw5k4J791R/+9kpYtyvd+OpI+ZtIC7yZk05L2FQvrwXol+wPJFvOgHwCmQdBO74QsY3LtKMjY+gLg2bRKtqq2f+7NxfYVr/COSdL26uDndh9oXSKFKyRl4igE/J10Ut+cYkdpWTHf++V6iKuS/Z0Y1gPAtAlmd3s3ZBk7AByZxDc/gOfqdIX4253tvVe1zJn93pGRqzJxhGjXrv59klYXCiv+I4rjfkkv825CUwrFfOn1Clomq71Jpud5BwFAs7IQeAjqiB0AvhgAADgcLRb0J7V9+28r5ktv8I5J0ujo+ltOWrDw1UH2bnF/CqbJ4raetmK+tKaY790q2ZdldpHE4h8AjiljDeSJHQCOgnQ3xwkBHLagvGRfKnaU/q31YHj3yM71D3onJWHz5jVTkq7sXLjyv+OW+tXB9JveTWg8Z5x40XEH5raeL7OLYuk3JONhCAAkiF3Qvvil5yhm+gXgyAWZXVSbEY8sypfO945JUnnHtePbxwb/TzC7QBLvEcZz8bNb/A8c13IPt/gDgJ+gwBrIETsAHAXT3QreFQAa3AuD7DPFfO/n1FJ/e6Wy8R7voKSUx4eGT19w4VcO5mauVdDFEv9GxZMtbutpi6OoR7I/lKyTW/wBwF+kKe4AcMTk29Gs/XWmXwCmy3mayt1Z7Cj1KUML4Tvu+uRDlfHBS8yicyRtc85BCpxx4kXHFTtKfcV86VtxFMYO3eLf6d0FAHjMowdm8RpARwwAHN1+36a9kh7w7gDQNI6X2bpie+91naeUTvKOSdL28fXfnLV36mVS+JCkKe8eJK9QWLG0s733ygPHtUzIbJ1kvyY+5wBA2tx/6A0/cMIRAGfBtN2CXuDdAaCJBL1ZrXZuZ77n78vVvR+QhuveSUk4NFT988X5Zeti5T4u6de9m3BsdS5c2W65eLmkP1IcFy0ze18AoFGF7d4FWccAwJlFYVRmr/buANBcTJojhbWd7XPfXM/1rhwdHfyhd1NStlU3ViS9vthRukhm/yLp+d5NmD6HbvF/q0zLTPVXi6f8ANA4zEa9E7KOX5reTFXvBADNy4JenYt106L23vdI3TnvngRZZWxgY86isyT7vHcMjl6h0HtWsb30Ybb4A0ADC6x9vPGL01mQ2AYD4JgyaU4Iev+i/Nxbi+0rXuHdk6St4+t3VKpD55mi84LErcON65Qo1hYFu0zi2BwANCpj7eOOAYCzOGYbDIBkBOk0hfjGYnvvuq6uS+d69yRpe3X953cfaF0ihSskZeJOBAAA0iaItY83BgDOwozWMe8GAJkSKaivtn/f7cV86Q3eMUnatat/X6U6sDqOopdLutm7BwCArGmdzLH2ccYAwFml0v+AFB7y7gCQNaFdsi8VO0obFy9edoJ3TZJGR9ffctKCha8OsndL2uPdAwBARjw4snP9g94RWccAIBWMSRgAD0FmF8WTuTsX5Uvne8ckafPmNVPl6tCVoZ47w4L+17sHAIDmx/b/NGAAkAqBHwYAnl4YZJ8p5nuvLxaXvdg7JknlHdeObx8b/D/B7AJJ93v3AADQrAJrnlRgAJACIbADAEAqnKep3JbO9tIF3iFJK48PDdcsd4akf/duAQCgGcXGmicNGACkQGwa8W4AgENOtGD/0dnRu3lJvmeRd0ySxsevva9SHbxQZmcraKt3DwAAzSREgTVPCjAASIFg4YfeDQDwRGZ6Xaxwa2e+Z5XUnfPuSVJlfOiGece3viTIVks66N0DAEAziMxY86QAA4AUmLS4LN5LDSBlTJpjCms72+feUCj0nurdk6QtW/pr5erQFTnZ6ZK+7t0DAECDm8rN3lv2jgADgFSYmBg6IAXOxABIJQt6dRTr1mK+tLZQuGymd0+StlaHtleqg69XCMtl+ol3DwAADWp0ZGR40jsCDADShC0xANKsVbJVId5zc7F9xSu8YxJmlbGBja1mpymETd4xAAA0miDj/H9KMABIiRD4oQCQfkE6TSG+sdjeu66r69K53j1JGpkY+lFlbGCZKTpP0g7vHgAAGkVsPOxMCwYAKRFzKQaAxhEpqK+2f9/txXzpDd4xSdteXf/5PQdaT5XCFeL+FgAAnlWIGACkBQOAtIj5oQDQaEK7ZF8qdpQ2Ll687ATvmiTt2tW/r1IdWG2xvUzSTd49AACkWcRrz1OjxTsAj9k/tbc8Z8bcWAxlADSWILOL4snc2Z0dPW8vjw190TsoSdsnhm7t6up+zdSBeavM7K8lzfJuAg6Xmb0wi7t58HTsV7wL0HTqB2Jt947AY4J3AB5XzPeOSurw7siCXIhO3zq2/k7vDjS2zvaef7YQ/sK7I1VC2BS1Tv3ptm0bM3djfmd7qVORrTPT67xbAABIj1CpVAc6vSvwGJ42p0iQ3erdAABH5bHdAKPFjlKfMjZkLo8PlMtjg+cEswsk3e/dAwBAKgTWOGnCACBFYgu3eDcAwDQ4XmbrOjt6v74k37PIOyZp5fGh4cnYOoPpw5Ji7x4AAFyxxkkVBgApEoLxwwGgaZjpdbHCrZ35nlVSd867J0kTE0MPl8cH3yWzcxS01bsHAAAvIcTsAEgRBgApkqvPYAAAoKmYNMcU1na2z72hUFje5d2TtMr40A3zjm99SZCtlnTQuwcAgKRNqf4D7wY8jgFAimzd0X+vpB95dwDAdLOgV0dxdEsxX1pbKFw207snSVu29NfK1aErcrLTJX3NuwcAgOTYvWNjm7gXJ0UYAKSNBbbIAGhWrZKtCvGemxe19b7SOyZpW6tD2yvVwTcohOUyZe4tCQCALOL8f9owAEgb7gEA0OSCdFqI9J1ie++6rq5L53r3JMwqYwMbW81OUwibvGMAADimAg8304YBQMoEYwAAIBMiBfXV9u+7fVF7z7neMUkbmRj6UWVsYJlkvyNph3cPAADHQohZ26QNA4CUmYpy/JAAyJDQHkL4UrGj9OnFi5ed4F2TtEp16At7DrSeKoUrJNW9ewAAmE5TUcQOgJRhAJAyY2PrxyQ94t0BAIky644nc3d2tvf+vndK0nbt6t9XqQ6sttheJukm7x4AAKbJI4fWNkgRBgDpY5Ld5h0BAA5eaEHDxY7SxizuBtg+MXRr6+w9r7Ggv5F0wLsHAICjY7dJMu8KPBkDgHT6jncAALgxuyiezI0WO0p9koJ3TpJGRoYnt48N/oNa6gVJ13n3AABwFFjTpBADgDQK+p53AgA4O15m64r5ns1L8j2LvGOSVqlsvKdSHfy/sdmbJN3j3QMAwGFjTZNKDABSqK460zIAkCSFs2OFWzvzPauk7px3TdJGx4eun4zttGD6sKTYuwcAgOeKNU06MQBIobGxTfdLmvDuAIA0MGmOKawtdsz9VqGwvMu7J2kTE0MPl8cH3yWF10n6oXcPAADPzsYPrWmQMgwAUit817sAAFLF9Koojm4p5ktrC4XLZnrnJK1SHfjWvPmtZwbZakkHvXsAAHh6rGXSigFASgVxZgYAnkKrZKtCvOfmRW29r/SOSdqWLf21cnXoinqITpPCV717AAB4KkHGWialGACkVD2OmZoBwNMI0mkh0neK7b3rurounevdk7SxsfWjlerAuQphuUw/8e4BAOCJ4pgdAGnFACCtWubdIrZ4AsAziRTUV9u/7/ZF7T3nesc4sMrYwMaacl0KYZN3DAAAhxyYcdyeW7wj8NQYAKTU6OhHDiqIHxwAeFahPYTwpWJH6dOLFy87wbsmaePj195XGRtYJtnviAtkAQDOgumWkZHhSe8OPDUGAClmxj0AAPCcmXXbZO4HxY7Sb3mneKhUh74wpdYzpXCVeGUgAMCJBbH9P8UYAKRYCOEb3g0A0EhMWiCzLxTzvdcXi8te7N2TtGq1/5FKdeCPZeEsyb7v3QMAyJ4QiTVMijEASLHWg+Eb4ikOAByJ8zSVu7PYUeqTFLxjklYZH7itUm17tUK4RNJu7x4AQGbELQeiG7wj8PQYAKTYyM71D5r0Q+8OAGhQx8tsXTHfs3lJvmeRd0zy1sSVsYF+tdSXSPqsdw0AIAvCnSM71z/oXYGnxwAg5YLCN70bAKCxhbPrCrd15ntWSd0575qkVSob76lUB8+Pzd4kaad3DwCgiQVj7ZJyDADSjh8iAJgOs01hbbF97k2Fwoql3jEeRseHrp+M7fRg+rA4XgYAOAZCzNol7RgApFxr3bhEAwCmS9DSKI6/V8yX1hYKl830zknaxMTQw+XxwXeFEJ8tjpgBAKaXTaqFAUDKMQBIuZGJoR+ZtN27AwCaSKtkq6J4z5ZFbb2v9I7xUB7b8O1581vPDLLVkg549wAAmkJlfPza+7wj8MwYADSAILbSAMAx0BUifafY3ruuq+vSud4xSduypb9Wrg5dUQ/R6VL4qncPAKDBBe4uawQMABpBiPhhAoBjI1JQX23/vtsXtfec6x3jYWxs/WilOnCuQlgu6QHvHgBAY+L8f2NgANAAwhTv0gSAYyu0hxC+WMz3fLSzszTPu8aBVcYGNsZRbqlM/+UdAwBoPJFYszQCBgANoLzj2nFioKjhAAAgAElEQVTuAQCAYy6Swh9bzbZ3tvd0e8d4GB29dmdlfPAtCuG3JU149wAAGkZ56/j6Hd4ReHYMABpEUPiydwMAZMSJFsKni/ne6wuFlSd7x3iojA38z77JPadK4XJJNe8eAEDKWfiSdwKeGwYAjSLEDAAAIFnnRXH9jmJHqU9S8I5J2s6dw/sr1YE1svByyb7v3QMASK9YrFUaBQOABhFaoq+KpzAAkLTjZbaumO/ZvDi/rOgd46EyPnBbpdr2aoVwiaTd3j0AgNSp5WZEm70j8NwwAGgQ5fLAbkk3eXcAQDaFs2Plbu3M96ySunPeNclbE1fGBvpDLSyW9FnvGgBAqnz30FoFDYABQEPhHgAAcDTbFNYW2+feVCisWOod46F898CuSnXw/NjsTZJ2evcAAPyFwBqlkTAAaCAh1PnhAgBvQUujOP5eMV9aWyhcNtM7x8Po+ND1U2o9LZg+LCn27gEA+KnXOf/fSBgANJAXndL+PUmPeHcAANQq2aoo3rOl0NbzKu8YD9Vq/yPl8cF3hRCfLWnEuwcA4CE8NDqxl2PKDYQBQAPZvHnNlEybvTsAAD/TFUXh28X23nVdXZfO9Y7xUB7b8O1581uXBtlqSQe8ewAASbKvS8N17wo8dwwAGs9XvAMAAE8SKaivtn//zcX2ntd6x3jYsqW/Vq4OXRHJXqGg73r3AACSEVibNBwGAA1mKtT/W5J5dwAAfkGnQvhmsaP06cWLl53gHeNhW3XojsrY4K8qhOWSHvDuAQAcU6Za+C/vCBye4B2Aw1fM994pqcu7o7GFyxW0y7sCjS1YfL4pvNG7A6l0t2Rvr1SHvuAd4qVYXPZiTeU+Iun3vFsAAMdCuL1SHXiJdwUODwOABlTsKP2jzP7auwMA8Kw+F0e5d4yOXpvZV+YtLvScE8fROsmK3i0AgOljZv9v+/jQ33p34PBwBKABxUGf824AADwn50Vx/c5iR6lPGR26bxsd2rxvcveZUrhc0qR3DwBgegTlWJM0oEx+GGl83blifu6PJL3AuwQA8JxlfjdAoa3nVVEUrZPsDO+WBN0n6UTvCACYZj+uVBe+UFoTe4fg8LADoCEN12X6vHcFAOCwnBfF9UpnvmeV1J3zjvEwOjH03Up1wVKFcImk3d49CahL9ruSrfUOAYDpZNL1LP4bEwOABhXEMQAAaECzTWFtsX3uTYVC71neMT7WxJWxgf5QC4uD7D+9a46tsK5SHbqpUm17b5B9ybsGAKZLCIG1SINiANCgWubM/qKkg94dAIAjELQ0ivXdYr60tlC4bKZ3jofy3QO7ytWh34/N3iSpGY9F3BNHB//qsf9xTRxmxBdKmvAMAoBpcmDWnhpDzQbFAKBBjYxctUfSN707AABHrFWyVVG8Z0uhredV3jFeRseHrp9S62nB9GFJzbOdNOjPR0c/8ehP/9dt2zb+RBb9gRjeA2hwFvSN2+/btNe7A0eGAUADCzLuAQCAxtcVReGGYr7nn9raemZ5x3ioVvsfKY8PvisEnStp1Lvn6IWvVsYGP/3z/2llfP33g8JqjyIAmD6sQRoZA4AGZi3xZySZdwcA4Ki1SGH1jChsLbSX3ugd46U8Nvi1efNbTw2y1ZIOePccob05Cyv0NL+fy9WBf5VsKNkkAJg28Yy6hr0jcOR4DWCDK3b03ihTZreOAkBTCmFYuZZLK5X+B7xTvBQKyzuiOPq4pDd4txymv65UB//pmf6CtraeWTOj8G2TMnoRJIDGFb5dqQ68xrsCR44dAA3OYjX5DcoAkEFm3Zqq3VnsKC3zTvEyOrphrFIdPDeYXSCpUQYht520YOH7n+0vmpgYOhBiO1+mnyQRBQDTp9nf3tL8GAA0uJwZxwAAoDmdKLMNxXzv9YXCypO9Y7yUx4eGWyejTpn6le7fdyaFd27evGbqufzF2yaGJiyoR8108SGAZmc5iz7rHYGjwxGAJlBs7/2BgpZ6dwAAjplHFMJfVsYGrlG6F8HH1OJCzzlxHD4uqdO75RcEXVsZG7z4cP+2zo7efzDTe49FEgBMs5sr1cGXe0fg6LADoAmYOAYAAE3ueTJbV8z3fmNxflnRO8bLttGhzfsm9yyVwuWSJr17nuD+1oPRqiP5G8tjC/9WFr443UEAMP0Ca44mwACgCeRCnZs4ASAbXhsrd2tnvmeV1J3zjvGwc+fw/kp1YE2w+ssV9F3vHkmS2XtGdq5/8Mj+5jVxay28VbLx6Y0CgOmVU8wAoAlwBKBJFPO9I5JO9e4AACTm1jjSitHRwR94h/hZExU77lops/dL+iWfhvDVSnXgqN9UsKit58wQhe9Imj0NUQAwzcLtlerAS7wrcPTYAdAkzLiREwAy5swo1neL+dLaQuGymd4xPtbElbGB/lALS0z6jEPAgZzid0zHF9o+MXSrQnj3dHwtAJh+rDWaBQOAZmHiRk4AyJ5WyVZF9T03FgorMnsZbPnugV3bq4PdwXSRpB8n9eeGoA9urQ5tn66vVxkb6A/SJ6fr6wHAdMkFbv9vFgwAmsT2iaFbJd3h3QEAcBC0NIrjLcX23nWdnaV53jleyuOD/zal1kXB9GFJ9WP6hwVtbZm15++n+8sejG2FFLZM99cFgCNmumXr2Po7vTMwPRgANJd/9w4AALgJCuqzmt1eaC+90TvGS7Xa/0h5fPBdUdDZJh2rD6wW1/WOkZHhaX8TwcTE0IGchfMlPTDdXxsAjoRFgTVGE2EA0ESmVP+EMvx+aACAJKktCva/xY7Sp4vFvhd4x3jZNjb4nV+a33pWkL1b0t5p/eKmTaMTg9+Y1q/5BFvH1+8wswt1rHcxAMCzi2PZp7wjMH0y+QqhZvXQQ7c9csL8s86VtMC7BQDgrktxvPyE5591/08euuU27xgP9967Jf7JQ7d+b/4JL/mPYGGJpI5p+LIPRDPrv/vAA7ftn4av9bQefPjW6gnzz4oknXMs/xwAeGZ2w2h16ErvCkwfdgA0G+MYAADgZ06U2YZivvf6QmHlyd4xXkZHN4xVqoNvDGYX6CgvCQwWVm/btvEn05T2jCrVBX8v6X+S+LMA4KmYItYWTYYBQJOJc/ZpSTXvDgBAqpwXxfU7ix2lPknBO8ZLeXxoeObUwU6Z+nVkR+a+Xh4fGJjurqe3Jp45dfCtMlWT+zMB4GcmZ0yGT3tHYHpl9kNAMyvme78g6be8OwAAqXRDpPrKbdWNFe8QT4W23tdFkdZJ6nyOf8vBYOEl5fGB8rHseirF9tJLFOxGSbOT/rMBZJl9vlIdOs+7AtOLHQDNyIytOgCAp/PaWLlbO/M9q6TuzN4FNDox+I19k3uWSuFySc9+m38IH/RY/EtSZXzgNpld4vFnA8iuwPb/psQAoAnFudp/STrg3QEASK3ZprC2mJ/79c720nN9At50du4c3l+pDqyR7DWSbn2Gv3THrD219yWU9ZQq40ObFMImzwYAmbJfrfpv7whMPwYATWh09BOPSvqMdwcAIPVea8HuLOZLawuFy2Z6x3ipVIduqlQHz1IIl0h69Of/77GFvtvv2zS9rxI8AnE47mJJN3l3AMgA03C5PLDbOwPTjzsAmtSi9p5zQwhf8u4AADSMW+NIK0ZHB3/gHeKpc+HK9rilfnUw/eah/+izlerg+a5RT1AoLO+I4uhmScdP45fdI9P90/j10MiCTpR0nHcGvMVvqFQ3fNW7AtOPAUDzCsV873ZNzzuPAQDZYDJdE2aE92T9yU+hved3oxD9Q82iN46PX3ufd88TFfPLXy9F/ytpmu5wCJ+qVAf+aHq+FhpdMV+6TrK3eHfA1VilOrhIR/a2FKQcRwCal5nZJ70jAAANJSioz2q6eVH7irO9YzyNjg9dX6nuPitti39JqlQ3fDUErfXuANCswr+JxX/TYgDQxCzX0i+p7t0BAGg0Vgwh/kaxo/TpYrHvBd41foZT+zu0PDb4N5Ku8+4A0HTqcRRd6x2BY4cBQBMbHb12p6SveXcAABqUWbemancWO0rLvFPwC2wytpKkMe8QAM3Dgr5yaA2BJsUAoMmZNOjdAABoaCfKbEMx33t9obDyZO8YPG5iYujhYPX/G6R93i0AmkNg7dD0GAA0uVps10nhIe8OAEDDOy+K63d25nveJa3h80NKlMc33i6FPu8OAE3hgdZZezha1OT4Bd7kJiaGDkj6d+8OAEBTeJ4p/Gsxv2NzZ3up0zsGjylXBz4RZB/37gDQ4II+NTIyPOmdgWOLAUAWWNjgnQAAaCqvtWA3FfM9l7IbIB32Tu79M5lu8e4A0LgCa4ZM4Jd2BlTG139f0k3eHQCApjJPCh8r5ndsKRR6z/KOybqdO4f31yO9WdKPvVsANKTvlasDN3tH4NhjAJARJl3t3QAAaEpnRrG+V8yX1hYKl830jsmysbHBu0PQH4pXAAM4TBYCx4gyggFARuyf3PMpSQ96dwAAmlKLZKuieM+diws953jHZFl5bPBrMvtb7w4ADeXB/Qd3/4d3BJLBACAjdu4c3m/SJu8OAEBTK8Rx+FqxvXddZ2dpnndMVlXGh/5J0me9OwA0jA07dw7v945AMhgAZEiI7eOSzLsDANDUgoL6rGa3L27r/U3vmIyy0Bp6JG3zDgGQehYsrPOOQHIYAGRIZWJom6TN3h0AgExoiyN9sdhR+nSx2PcC75isKZcHdkeyCyTt9W4BkGpfL48PlL0jkBwGABkTjAs+AAAJMuvWVO3OYkdpmXdK1myrDt1h0sXeHQDSi6f/2cMAIGPmPr/lOgXt8u4AAGTKiTLbUMz3fK6jo/cU75gs2V4d/HfJPubdASCFgnbNfX7Ldd4ZSBYDgIzZsqW/JrON3h0AgCwKv5Mz/aCzvfdt3iVZMhnrPZJ4vzeAJ7OwacuW/pp3BpLFACCDQi36iCR+2AEAHl5gQZuK+d5vdraXOr1jsmBiYuhAa2y/K9m93i0AUqMWavqwdwSSxwAgg8p3D+yS9BnvDgBApr3Wgt3Sme9ZJXXnvGOa3cjE0I9CiN4qacq7BUAqfObQmgAZwwAgo4LCh7wbAACZN9sU1hbzc29e3LH8pd4xza48NvD1EPRe7w4A/qIQf9C7AT4YAGRUuTpwczDd6N0BAICkM2OLvlvMl9YWCpfN9I5pZuWxwfcbuwCBrPvOtrENW7wj4IMBQIZZpCu9GwAAOKRFslVRvOfOxYWec7xjmpjNmD27V0FbvUMA+AgWWANkGAOADDvplIX/GaS7vDsAAHiCQhyHrxXbe9d1dpbmecc0o5GRq/aEOPyepEe9WwAkzcbL47v/07sCfhgAZNjmzWumJLvKuwMAgJ8TFNRnU7ats9D7Zu+YZlQeHygrqM+7A0CyLERXS8N17w74YQCQcTOmJvsl7fXuAADgF5hOslj/X7Gj9Olise8F3jnNpjI2+B8mjgMCGbKnVo+v8Y6ALwYAGXfHXZ98yKSN3h0AADwts25N1UaKHaVl3inN5sULFr5Him/w7gCQBNswMTH0sHcFfAXvAPhbtHDlkpCr3ykGQgCA1Aufqofau8bGNt3vXdJEgiTzjkA6FPOl6yR7i3cHpl2s2LoqE0PbvEPgiwUftH3HtVuD7DrvDgAAnp39Yc5aKp35nndJa/gcMz1Y/APNLoT/ZPEPiQEADjHpCu8GAACeo+eZwr8W8zu+0dle6vSOAYC0C6Z/9m5AOjAAgCSpUh26yUybvTsAADgMr7Fgt3Tme1ZJ3TnvGABIqa+VqwM3e0cgHRgA4HFBH/ROAADgMM02hbXF/NzNXV3dM7xjACB9jM/4+BkGAPiZ7dXBz8l0i3cHAACHzx4ZGRme9K4AgDQJ0g8q1aEveHcgPRgA4Eks2Ae8GwAAOHzRWu8CAEgbC/Z+7wakCwMAPMn26t7/kDTm3QEAwGH4VqU68C3vCABImdHK2N5h7wikCwMA/Jzhukz/6l0BAMBzZTz9B4CnYP8iDde9K5AuDADwC1rnzB6S6SfeHQAAPAcj26vrOd8KAE/2wKy99Q3eEUgfBgD4BSMjV+0JEe8KBQCkn8neJ8m8OwAgVSysvf2+TXu9M5A+DADwlGbumfqYpPu9OwAAeAajh+6uAQA87v49B1uu9o5AOjEAwFN6bGIY/sW7AwCAp2MKH+R8KwA8WQj64K5d/fu8O5BODADwtGbtrX1E0o+9OwAA+EV2r0XHDXpXAEDK3H9oJy/wlBgA4Gndft+mvTLjjQAAgNQJ0pWjox856N0BAOkS/oWz/3gmDADwjOJc7aOSHvTuAADgCR6uRzXOtwLAk/340A5e4GkxAMAzGh39xKMhBHYBAADS5OrR0U886h0BAKli9q88/cezYQCAZ1UPB6+UwkPeHQAASNpfD1MMpgHgyR5onTPnw94RSD8GAHhWo6OfeNQs/qh3BwAAQdo4NraJ19QCwJOEj42MXLXHuwLpxwAAz8mMOXP+WdJ93h0AgEybUj13hXcEAKTMfbP21t7vHYHGwAAAz8nIyFV7gsJa7w4AQKZ9qrzj2nHvCABIEwt6H2f/8VwxAMBz1jJ791WS8cELAOAhtnrufd4RAJAqpuqMWXs+7p2BxsEAAM/ZyMjwpCn8P+8OAED2BOnz23dcu9W7AwBSJQqXj4wMT3pnoHEwAMBh2V7ds1HSiHcHACBb4lj/6N0AAClzW2Vswb95R6CxMADAYRquK4S/8a4AAGSJfXP7xOD3vCsAIE1CpL+T1sTeHWgsDABw2CpjA9cF043eHQCAjAgRl9ACwJN9pzw6+F/eEWg8DABwRGJFq70bAADNL0g/qIwN/I93BwCkihmfxXFEGADgiGwfX/9NSV/z7gAANLvwIe8CAEiZr1TGh27wjkBjYgCAIxbJ3i2p7t0BAGhOJm0vV3d/yrsDAFJkyuq5P/GOQONiAIAjtq06dIdkQ94dAIDmFEL4gDTMoBkAfso0wCtRcTQYAOCo1KzlvZJ2e3cAAJpM0K44HLfBOwMAUuTRejTF27hwVHLeAWhsDz/8g70vOH7pHAWd7d0CAGgqM4NNnnvC/DMXnTD/zJnPm/+K+x96aMtB7yig2Z0wf+kfSlrs3YGnEtaOVjd83rsCjS14B6DxnXxy9+w5M+aWJZ3i3QIAaGKmqqLwbUnfUk5fqVQGqt5JQLMp5kvXSfYW7w48WZD+//buP0rPsr73/fe6n5mEH4kS0FYRCEmGiUK7t0K3VapVtqg9q2BdaDZWK5KJG2oV69azt2d72hJb6267dl0ecVebkskQlLZiPe1Gj62AtSVopWIQDck8efJMEiIUISRAEkhm5r7OH+CPWkBCZuZ6frxea/H/e7FYs577w3Xf1879h/Y9f9euax8u3UJ3MwAwI05bunJlihgt3QFAP8l3R6o2pFzfnFLesGXbVd+MiFy6CrqZAaBDpfS25rbR9aUz6H4GAGbI6mr50h3/nCPOLF0CQN/6XkTckiJvyFHdvHDRwNdvvXXNZOko6CYGgI70jWZ78c9HrK5Lh9D9DADMmOXLRs7JOX+5dAcAPGZfRPxTxKOvDdTVsTe1Wlf4jgA8CQNA56nreGVr+7p/KN1BbzAAMKNOW7byb1OO15buAIDH8UBE3pAibkop3dQ4at83Nm269lDpKOgkBoBOk7/QbI+dV7qC3jFQOoDeklP9zpSr70TEUaVbAODHPDMi/XKO+OWcI+qHF0wNLx35Vsr55oi8YWCyceOmXWvvLx0J8JhHYqB6d+kIeosTAMy44WUjvx85f6B0BwAcpjoitkSODVGlm6fy1Ffa7fU7S0fBXHICoHPknH9v68TY75TuoLc4AcCM2/fwwO8vOGryLRGxuHQLAByGKiJOjxSnR86XDEQjhpes/MHVg3WavrnVumpT6UigL2x/eHL//ygdQe9xAoBZMbxs5YWR4y9KdwDAzHL1IL3NCYDOkHKsGJ9Y99nSHfQeAwCzZnjpyi9HxDmlOwBgFt0bEV939SC9wgBQXk7xd1u3rful0h30Jq8AMGvqqr6sqquNETFYugUAZsmzI+K8HOm8iBwP7ZncN7x05Q+uHjxU1xu2bx97pHQk0DUmc4r3lo6gdzkBwKwaXjLysUj5stIdAFDIZES6PSJuqHN9c53m/WO7veaB0lHwRJwAKCtH/ujW9th/Kd1B73ICgFk1f/qRyw8OzH9TPPp/SACg3wxG5LMi4qwqpahicnp46cht3796MM2vv7xly/rdpSOBTpDvztXk5aUr6G1OADDrhpdc/J8jpTWlOwCgA01FxK0pxU3Tdf7H+ZONmzftWnt/6Sj6lxMA5aTIq8bbY6OlO+htBgDmQhpeOnJ9RH5V6RAA6HyP3jQQETe4epC5ZgAo5vpme91rSkfQ+7wCwFzIjajfMf3oO5BHlY4BgM6Wnhs5r4iIFVWuYnjpyn+JlG764dWDSzZGrK5LVwIz5uHpVP1G6Qj6gxMAzJnhpSt/JyI+WLoDALrcgxFxS4p8Q47q5sGjH7pl06ZrD5WOojc4AVBAzv93c2Lsw6Uz6A9OADBnBo/e9weTDy+4MCJOL90CAF3sGRFxbo50bkSOyYcX7B9eOnJbRGyIiBtcPQhd5VsnLj71j5oTpTPoF04AMKeGl1z88kjpH8J/ewAwW6Yi0rfisasHp3LctH372N7SUXQHJwDmVJ3rOHvr9nVfLx1C//AQxpwbXnrxlRFpVekOAOgT0xExHjk2pMg35MF5f99srrmvdBSdyQAwd1LEn4631/166Q76i1cAmHN1lf57NR2vjxQnlG4BgD7QiIjTI8XpOdIlMTU5Nbx05caIdFOq8j+mgekNW7as3106EvrM9wYOVR8oHUH/qUoH0H9arXX35ir9n6U7AKBPDUTEf4jI7811/HV9aODjpYOg36RI7920a+39pTvoPwYAiti6bXQsIv116Q4AAJhjnxtvj366dAT9yQBAMWky3hmR9pTuAACAOXL/YJ3fWTqC/mUAoJjxO0fvipz/W+kOAACYCzml923aPvYvpTvoXwYAimpOrFubU/xd6Q4AAJhVOf3to6/BQjkGAErLA3V1aUQ8VDoEAABmyUNTaerS0hFgAKC4zRNrd0QO16AAANCTUsT72+31O0t3gAGAjtCcWPwnEfkfS3cAAMAMu2G8ve6TpSMgwgBAx1hdNyLeHhEPly4BAIAZsi9NNy6JiFw6BCIMAHSQze2xrTmly0t3AADAjMhp9fiOKydKZ8D3GQDoKFu3jf7PiPhi6Q4AADhCX2xOjH6kdAT8KAMAnSbHwPR/joj7S4cAAMDTkmN3mkxvD0f/6TAGADpOs7n+uznyZaU7AADg6cgpXzJ+5+hdpTvgxxkA6Ehb22PXRKS/KN0BAACHI0f+9Nb22OdKd8DjMQDQsQ7V9TtShPtSAQDoFjumY947S0fAEzEA0LG2bx/bmyOtCu9OAQDQ+erI+a3t9poHSofAEzEA0NGa7dEbUo4rSncAAMCTSx9tTozdVLoCnowBgI43/8DUByJivHQHAAA8gTv2PTLw26Uj4CcxANDxbr/n6v11Vb8hRRwo3QIAAD8qRRyoq1hx111r/Fal4xkA6Aqt1lWb6kjvK90BAAA/Kuf4zVZr3R2lO+CpMADQNba2Rz/pakAAADpFirimObHuytId8FQZAOgqh+r6HRGxvXQHAAD9Lk9MxuBvlK6Aw2EAoKts3z62N3J1YURMlm4BAKBvHYqIC135R7cxANB1mhNrb8kpfrd0BwAA/Spd3myP/XPpCjhcBgC60tZtiz8ckW4s3QEAQN+5vtk+5Y9KR8DTYQCgS62up2JqJHLsLl0CAEDfuK+uGiMRq+vSIfB0GADoWu32+p2pSisiYrp0CwAAPW+qqvKKVuvKXaVD4OkyANDVxreN/n2E7wEAADDLcr58S2vsK6Uz4EgYAOh6zfbiD0XEF0t3AADQq9JfNyfG/kfpCjhSBgB6wOp68FD1axF5onQJAAA9Jkd7/tQjIxGRS6fAkTIA0BM27Vp7f+TGmyLiYOkWAAB6xsMR6YJv77xmT+kQmAkGAHpGc2LtLTnl/1q6AwCA3pAi3tecGP1W6Q6YKQYAesrWbWNXRMSnSncAANDlcqwfb6/7ROkMmEkGAHrOVAy+K0dsLd0BAEDXGq8bhy4rHQEzzQBAz2m31zzQiOnzImJv6RYAALrOfVWdf6nV+vSDpUNgphkA6Elb2uubdU4XRsR06RYAALrGdM75zVu2j20vHQKzwQBAz2pNjH4p57i8dAcAAN0i/dbWibHrS1fAbDEA0NO2Tqz7cKT4TOkOAAA6XI6/bLZH/7B0BswmAwC9Lg8edfSqiPh26RAAADpTivjmgcl9KyMil26B2WQAoOdt2vQn+6o6vy4i7ivdAgBAx7mvytUFu3Zd+3DpEJhtBgD6wqMfckm/Gj4KCADAD01F1G/aPLF2R+kQmAsGAPpGsz16Q+T8O6U7AADoFOm3m+2rbixdAXPFAEBfaU6MfThF/mTpDgAAysoRn2i2R/+gdAfMJQMAfWfBonnvjogbSncAAFDM9c87ZfG7S0fAXDMA0HduvXXNZF0dekNEbCrdAgDA3MoR36mrQ2/8yldWT5VugblmAKAvtVqffjBNN86PiHtLtwAAMGe+16jz+a3Wpx8sHQIlGADoW+M7rpyISBdExMHSLQAAzLqDKdUXPHo7FPQnAwB9rdke3RApXVK6AwCAWZVTTheNb7vq5tIhUJIBgL7X3Da6PlL6cOkOAABmR875Q+MTo58p3QGlGQAgIprbTvntiPhc6Q4AAGZYis9snTh1dekM6AQGAIiIiNX1wkWDb4qI60uXAAAwM1LkLy08bvDXIlbXpVugExgA4DGPXQ/4xoi4rXQLAABHKMfGGKzeeOutayZLp0CnSKUDoNO8YMmqxdNp+msR6bmlWwBgDnwrRf7z0hF0hhzpoog4vXTHDPjuVEyf3W6v31k6BDqJAQAex9DQytOrOm2IyItKtwAAcIFOHK0AABavSURBVFjuz9ONl23dceXm0iHQabwCAI+j1Vp3R87p9RHxSOkWAACeskci59d7+IfH1ygdAJ3q/r0bdzzruDO3Roo3hNMyAACdbjrltKI5sc5HneEJGADgSezeu3HTCYvOPBQR55ZuAQDgiaUU/328vW60dAd0MgMA/AS792zccMLxZ86LiJeXbgEA4N9KOT403l73odId0OkMAPAU7N6z8cvHL3rRohTxktItAAD8UI780ebE2PtLd0A38BFAeIq2the/NyL9RekOAAB+4M+3tk99X+kI6BYGAHjKVtcLFw1cFBH/X+kSAADyFxYuGnxbxOq6dAl0C182h8N00kkrjj5m3oK/C98EAAAo5aYDh/a9dteuax8uHQLdxAkAOEy7dl378FQMnh85NpZuAQDoOzk2TsXg+R7+4fA5AQBP07JlK08eyLEhR5xSugUAoE/sqKvGy1qtK3eVDoFuZACAI7B06UWnDET1lYi0pHQLAEBvyxPTKb1i27Z1d5YugW7lFQA4Au32+p2N3DgnInaUbgEA6GHbp6J+pYd/ODIGADhCmyfW7mhEfnWkuKt0CwBAz0lx13SqXt1ur99ZOgW6nVcAYIY8f+lFw/WjrwM8t3QLAEBvyHdXUb9yS3t9s3QJ9AInAGCGbGmvb1YRr42I+0q3AAD0gPuqiNd6+IeZ4wQAzLDhJSP/PiLfGClOKN0CANCVcuyOSK9qTox+q3QK9BIDAMyC0069+IWpSjdGxPGlWwAAukvaU1fpVa3W2o2lS6DXeAUAZsHW7WO3RaRfiYgHS7cAAHSRhyLXv+LhH2aHEwAwix47CXB9RDyrdAsAQIe7r66q13j4h9ljAIBZdtrit78gNaZudDsAAMATyXfn6YFXbd1x5ebSJdDLvAIAs2zrjis3p1ydExHfLd0CANCBvptydY6Hf5h9BgCYA+MTo+ONyOdExK7SLQAAnSNPpOnGy8cnRsdLl0A/MADAHNncHtvayNXLIke7dAsAQAfY1siNc8Z3XDlROgT6hW8AwBxbuvSiUwaicWNEDJVuAQAoIUdsrVO8atu2dXeWboF+4gQAzLF2e/3ORq7OjUjN0i0AAAWMT8f0uR7+Ye4ZAKCAzRNrd8yfeuQlKcfXSrcAAMyhr86fOvjSdnv9ztIh0I8MAFDIt3des2f+galXR8T1pVsAAGZbivylo/ZPvebbO6/ZU7oF+pUBAAq6/Z6r99fVgvNT5L8q3QIAMFtyxGcHjt5//u33XL2/dAv0Mx8BhI6wonHa0gVrUsRI6RIAgJmV1zbb+y+NuHa6dAn0u0bpACAi4o58/57brjth0ZkLI+KlpWsAAGZEij9utscui7ijLp0CGACgo+zes/FLz1r0wkci0rmlWwAAjkSK/H8122OXl+4AfsgAAB1m957bbj5h0QsfikivDq/pAADdp06R3jveXvfHpUOAf83DBXSo5UMrfyXquCZHHFO6BQDgqUgRB6ZzflNrYuy60i3Av2UAgA42vGTViyPVn4+IZ5duAQD4Cb4Xkc9rtsf+uXQI8PgMANDhhobetizV1RdTxGmlWwAAHl9qxkD8H83maLt0CfDEqtIBwJNrta7aNpUbL4+Ib5RuAQB4HF+t5k2d7eEfOp8BALrAxMSV9xy1f+qVEfkLpVsAAL4vRVx31P6p12zZsn536RbgJzMAQJe4/Z6r9w8evf+CHPnTpVsAACLH+gWLBt9w+z1X7y+dAjw1vgEAXWj50ot/M0f6SBjxAIC5V6fI7x1vj/0/pUOAw2MAgC512tKLL6giXe2aQABgDj0UKV3Y3Db6xdIhwOEzAEAXG14y8u8j5esi4uTSLQBAz7sz5enzxifW3146BHh6DADQ5ZafPHJiDObrcsSZpVsAgF6Vbk2T8brxO0fvKl0CPH3eH4YuN37n6F0DRx/9ipzif5duAQB6UI6/OWr/5Cs8/EP3cwIAesaKxvDShb8fkd9fugQA6BXpg8326AcjIpcuAY5co3QAMFPuyLv3bLzhWYteuDcinRtO+AAAT99UTvk9W9vr/qh0CDBznACAHvT8ZSvPrnP8VUQ8p3QLANBt8t1VSm/csm3dV0uXADPLAAA9anj4oufFVOOvIuLnS7cAAF0ixT+lQ+kN3veH3uSIMPSoZnP9d+tqwStSxLrSLQBA58sRo3Va8EoP/9C7nACAPjC8bOSSyPnjETFYugUA6DiTkdK7mttG15QOAWaXAQD6xGlLVv1iSvW1EfFTpVsAgI5xT+S8ojkxdlPpEGD2GQCgjyxfMrI8p/y5iDi9dAsAUFaO+M5A5As2t8e2lm4B5oZrAKGP7N67cffCZ75wdCDSMyL5OCAA9KuU42N1Y8GK5rY13yvdAswdJwCgTy1fOvKWHPmTEbGgdAsAMGceyJFHtrbHPlc6BJh7BgDoY4+9EnBtRPxs6RYAYLal26uYWrGlvb5ZugQowysA0Md27924++hjTxsbHJj30xFxZukeAGCWpPRnh+r6Da2Jq+4pnQKU4wQAEBERw8tGLko5fyJHHFO6BQCYGSniQE7pHc1to+tLtwDlGQCAHxhesurFkeq/jIhTS7cAAEcqT6So/tN4e/QbpUuAzlCVDgA6R3Ni7S2DRx/9sxHxqdItAMARyLHmwKH9Z3j4B36UEwDA4xpeNnJR5Py/wi0BANBN9kVK73TkH3g8BgDgCT12S8BfRMQLS7cAAD9Bjo1Vmn6Tr/wDT8QrAMATGp8YHa+rBS9JOT4WEbl0DwDwuHLK8bG6seClHv6BJ+MEAPCUDC+7+PWR09qIOL50CwDwmBy7U6SR8YnR/106Beh8BgDgKXvB0otPm450TUT8XOkWACDfUlf5za3WVdtKlwDdwQAAHKbV1fKl2y/Lkf4wIuaXrgGAPnQwRX7/eHvMK3rAYTEAAE/LC5at+pnpXF8dPhAIAHMnx8a6Ub+11bpqU+kUoPs0SgcA3em+PRu/t+iEl4+lPDkYES8NHxUFgNk0HZF+b+Hxgxdt2jT6L6VjgO7kBABwxIaGRl5a1Xl9RAyVbgGAHtSqq3RRqzX6tdIhQHfzf+yAI9ZqjX4tDaYzI8ea0i0A0FNyrEmD6UwP/8BMcAIAmFHDy1ZeGDmuiIhnl24BgC72vZTzu8Ynxq4tHQL0Dt8AAGbU7j23bXrmohevqXJ9fKQ4MwyNAHA4cuT4s6k0+LrWxNpvlo4Beosf5sCsef6pK1+bq1iTI04p3QIAXWBHndMlrYnRL5UOAXqTEwDArLlv723b5h/94jXzBvJARJwdRkcAeDx1RPqjfY8M/qcdd165pXQM0Lv8GAfmxPDSkZdFxNqIPFy6BQA6yHhK9arxbVfdXDoE6H1OAABzYveejTsXnXD6+io3jo+Is8IACUB/qyPSJ9JgunB861irdAzQH/wAB+bc0NCqF1V1/acR8R9KtwBAAV/Pdf71rdvHbisdAvSXqnQA0H9arbUbTzxl8dkp8nsi4qHSPQAwRx6MlC5tthef7eEfKMEJAKCo5SePnJjnxR9Ezm8t3QIAsyalqxtTA+/fvGPN3aVTgP5lAAA6wmlLV56XIj4eEYtLtwDADNqeo3rX1vbaL5QOAfARQKAj3L/ntuZjVwZOxaNXBvr7BEA3OxSRPnTg0L43b9/xqTtKxwBEOAEAdKDhJateHKn+XxHxc6VbAODw5VtSVO8cb49+o3QJwI8yAACdKg0vG3lr5PyHEfGc0jEA8BTcWef8ztbE2HWlQwAejyO2QMfavWfjt54372c/OTWvMRleCwCgcx2KSB86av/UmzfvWv+d0jEAT8QJAKArLF8ysjynfEVEvLp0CwB8X07xd408/e4t7fXN0i0AP4kBAOgqQ0suPr+R0sdzxCmlWwDoazvqnC9z3B/oJo7TAl3l/r23NU9cePpVdRo4OlKcGf6OATC3DuXIV0zW8avt7WO3l44BOBxOAABda9mylSc36vitSPH2iKhK9wDQ0+rIcWXdaPxeq3XlrtIxAE+HAQDoesuXjvxcjvqPI9Ivlm4BoPekFP+Qon7flm1X3Vq6BeBIGACAnjG05OLzq5Q+EhFDpVsA6AmbItJ7mu3RG0qHAMwER2aBntGaGLtu4aLB0yOlSyPi3tI9AHSt70VKly5cNPgiD/9AL3ECAOhJy5a99acaMfDbkeOSiJhXugeArnAw5fjT6UZ8qNVaZ0gGeo4BAOhpw8MXPS9NNv5bTnFpRMwv3QNARzoYkT5aV/mPPfgDvcwAAPSFFyxZtXg66g9EilXh6kAAHjUdOdY2ovrw5om1O0rHAMw2AwDQV4aG3nZGlRuXR84rSrcAUEyOlD5bp7y61Vp3R+kYgLliAAD60tCpF7+kqtKHI+Kc0i0AzKkv5zo+sHX7uq+XDgGYawYAoJ+l5UMrX5en4/JI8aLSMQDMqm/UOf9ua2Ls8xGRS8cAlGAAAIiI4aUjL4vIvxtOBAD0mHRjRKxutkc3lC4BKM0AAPAjHhsCPhgR/7F0CwBHwoM/wI8zAAA8DkMAQNe6ISJ90IM/wL9lAAB4EqctXfXLKdW/FTleUroFgCf11UjpQ81to18sHQLQqQwAAE/B0NCqF1U5/5fI+c0R0SjdA0BERExHStfk6fojW7eP3VY6BqDTGQAADsOyZauGBur6spzi0oiYX7oHoE89knKsmW7UH2u1rtpWOgagWxgAAJ6GM069+DmTVfWeiPyuiDi2dA9An3ggIn10MlefmJi48p7SMQDdxgAAcAResPiS5041Jt+TIn49Ip5RugegRz0QkT8xmQc+6sEf4OkzAADMgKGhy+ZXef+FOef/miJ+pnQPQI/4dqT0P+t07F+2WlccLB0D0O0MAAAzbHjpyMsixbsj5wvCBwMBDtd0pPS5yPExV/kBzCwDAMAsWbZs1VAj57dH5Esj4rjSPQAdbm9E+tO6mv4zH/YDmB0GAIBZNjT0lmc06sGVOeI3I9KS0j0AHWY8UvpIGog/Hx8ffah0DEAvMwAAzJGzzrpkcN/9h16fU3pHRLwy/A0G+leOSF9OOX9ywfGDf3PrrWsmSwcB9AM/PgEKGB6+6Hlpqvq1HOldEXFS6R6AObIrRf54Hqg/1Wyu/27pGIB+YwAAKOiMM1bMmzpw7K/klC6JiFeFv8tA78kRcWPKec3AMfv/ZtOmaw+VDgLoV35oAnSIoaGVZ1Y5/Xrk/KsRsaB0D8AR2pciPl3X+ZNbt4/dVjoGAAMAQMcZGrpsfmP6odfllC6KiF+KiIHSTQBP0VSk9P/WdX11NBZ+qdW64mDpIAB+yAAA0MGWnzxyYgzWK3JUIxH535XuAXgC30qR11XT8z6zeceau0vHAPD4DAAAXeL5y952Vq6ri3LEWyLFCaV7gL53X8pxTarq9Vu2XXVr6RgAfjIDAECXWb58ZGFM1ivqnN6aUvxiRFSlm4C+UUfEP+SIq6vB9Nnx8dGHSgcB8NQZAAC62BknrTp+cn5+Y+S4KCKfHf6uAzMvR6SvRor1gwfTZzftWnt/6SAAnh4/FAF6xAuWrFpcp+k31ZFWpYjTSvcA3S41U9Sjk1H/ebu9fmfpGgCOnAEAoOesrpYv2/mKOudfSxFviIhnli4CusbeSPHZejo+1dq++KaI1XXpIABmjgEAoKetaAwvXfjSlPOKnOKCiDipdBHQcVoR6a8i4vPN9ilf9dAP0LsMAAB9ZGjobWdUdWNFRL4wIp5fugcoJMXmyOkzdTV9bat11abSOQDMDQMAQJ8aGnrbGY06nZejOt8HBKHn5Yj01RT1tXmguq7ZHG2XDgJg7vmxB0CctvjtL4iB+rwq8i/nHL8QEQOlm4AjNpVzbIiIL6ScP9/cPraldBAAZRkAAPhXTjzxkmMWHDV1dsr5fN8NgK6zK+X4XE7pugOHHrp5165rHy4dBEDnMAAA8KR+7FWBl0ZEVboJ+IE6In0tRX3ddJU/731+AJ6MAQCAp2zp0otOGciN10SVXhM5vyoiji/dBH0nx+6IuCFFun6qyl/atm3dnaWTAOgOBgAAnrbh4ZGlMR3nRsS5kfMvRcTC0k3Qgx6KlP42Im6IRtzgA34APF0GAABmxPLlIwvjUJyTU/2aiPSqcM0gPH0pNkedbqijvn7+Mcf8/aZNf7KvdBIA3c8AAMCsOOOM31gw+fAjL4mIl0XkX4iIX4yIeYWzoBMdjIibItLNEbFh8Oij/skDPwCzwQAAwJz4dz/91mMfOXbwRSnqX8iRzo2Il0XEUaW7oIBHImJDinxDjurmfY8MfPOuu9YcKB0FQO8zAABQxNDQW57RyINn5xw/H5FeHDl+PlKcULoLZsF9EfnrEemWOqd/asyLr42Pjz5UOgqA/mMAAKBjLD955MTpgfqsKlVnReSz4tFTAseV7oLDsDciNkSkW+tc3zpYz/vG5h1r7i4dBQARBgAAOtipp1581MBA9aJGXb8453RmTnFmevTjggOl2yAipiJic+TYmFL+5nQdX4+BhRtbrSsOlg4DgMdjAACgq7zylasHdu2aWF7lxlmpzmflFKdHxJkRcXzpNnra/RHx1Yi0KVLcUafpW086acn4V76yeqp0GAA8VQYAALreWWddMvjg7kNnVFWcmSP9TIp8Ro50ekScVLqNrnRnirw5R/WdHPk7KadvLjx+4I5bb10zWToMAI6EAQCAnnXGGSvmHTx4zGmN6XR6TtUZkeL0yPmMiFgeEY3SfRQ1HRHjkdKmyHFHyvWm6Ua+45nPnN/0oA9ArzIAANB3Tj314uMGIp7fqKplOeqhHHFaSmlZ5BiKiGeV7mNG3RsptkWOVkRupahadZ1bk5HHt28f21s6DgDmkgEAAH7EqadefNxRjbysjmoo1zFUpViWIxZHpJMi8skRcXTpRv6VhyNiZ0TalSLvzPnRh/xUTW87lOe32u01D5QOBIBOYQAAgMMwNLTy2RHVSY3pfHJd1Ysjp5OqiJNyxCmR48RI8dMRcWzpzh6xP3LcEynuypF3pKh2Rc676sg7otHYVVWNO5vNNfeVjgSAbmEAAIAZduKJlxyzcLD+6enB+jmN6Xh2jvxTuYrnVHU8O6f0Uynl5+Ycz4yI437kn36w9/v/5Bx7U4q7U4576yrurep0d0TcO92IexuT1b88NFndc9ddaw4U7gWAnmIAAIAO8LOnvHnRoXTMcdOD+biBmH5mneO4HNVxVY7jIur5kdLCnNNA5LwopxhIKS3MkeenHMekHMfmlOblyM9I+cc+bphifkQ65qlV5AOR41/dYZ9TTKdID0bkgxFxIKc4kCIdjFw/GDlNR0p7UspTkfNDEdXBOsXeFPXeKsXe6anYW+WBB+blA3u/vfOaPTP17woAAAAAAAAAAAAAAAAAAAAAAAAAAAAAAAAAAAAAAAAAAAAAAAAAAAAAAAAAAAAAAAAAAAAAAAAAAAAAAAAAAAAAAAAAAAAAAAAAAAAAAAAAAAAAAAAAAAAAAAAAAAAAAAAAAAAAAAAAAAAAAAAAAAAAAAAAAAAAAAAAAAAAAAAAAAAAAAAAAAAAAAAAAAAAAAAAAAAAAAAAAAAAAAAAAAAAAAAAAAAAAAAAAAAAAAAAAAAAAAAAAAAAAAAAAAAAAAAAAAAAAAAAAAAAAAAAAAAAAAAAAAAAAAAAAAAAAAAAAAAAAAAAAAAAAAAAAAAAAAAAAAAAAAAAAAAAAAAAAAAAAAAAAAAAAAAAAAAAAAAAAAAAAAAAAAAAAAAAAAAAAAAAAAAAAAAAAAAAAAAAAAAAAAAAAAAAgF71/wMrtnOxIt5+tgAAAABJRU5ErkJggg==;" vertex="1" parent="1">
          <mxGeometry x="-515" y="239" width="62" height="62" as="geometry" />
        </mxCell>
        <mxCell id="SRiD97IWDXF6vMLHgxWp-5" value="" style="shape=image;verticalLabelPosition=bottom;labelBackgroundColor=default;verticalAlign=top;aspect=fixed;imageAspect=0;image=data:image/png,iVBORw0KGgoAAAANSUhEUgAAAlgAAAH0CAYAAADhUFPUAAAgAElEQVR4nOzdeZyVdd3/8df3e11n5syZGXaQTUBZXVJzYVfBQMg2s2ixTctSAdFyy7yJGYnUSjME1LK97ru0uqufdy6goimLppklyiKi4IaoyMycWc51Xd/fH+ecmcPgCsPMWd7PRz3s4UE74jlz3ue6Pu/vxyAi8k5umWVZdxjU1EQA3pKJH3XW1ZoK/yiCCFJRANjMfwtdAPgkfEgGgYElgTFXcu6q7QDUTPGpWRl07VMUkXxnuvoJiEgeq8Ey4BjL2Y8EALEbxx4RRV4tnjmVmIWmMMr8ymIIVu0FWOMT93DJ4AVwC6Pt8Ztbw5WCloi8DQUsEXlzuQFi8fF9fC+41BnmkfDLSAaQvdJT3CIgImZ9fAON4UPGmfnBnFV3Aekre7cCt94ave3fRURKjgKWiOwuN1jVYG2f8V/DM5ebCn8wTSFErhSCVXvpABX3LKkIAndL6IJa5j68DoB7p/hM1dUsEWmjgCUiaTU1FlbabLjyl4yb5qxZSLk/nsgV25zV3nEEWHwqfGhIJZ3h2qgifg1nrtwJKGiJSCsFLJFSV4OFKa3BimWTRnkmqsWaz5TAnNXeCvAy81kNwWZDtDCcvfYXrY/eMsvyKd02FCllClgipSz3isuyyT2sCy80hgtI+FUkg/QVG1NytwPfJReBiSizPsZAc7jSwIJg9ur7gfStVlZG1KCgJVKCFLBEStEtsyzrbiX74e8tmfh5Z90Ck/BH0BxCWJJzVnsrAiwVHjSF4NwvwjCq5byHtgC6bShSohSwREpJu9uB/rJJkx3RQsq9KTgHLVEAzoLR7cD3wgBRZj4r4UN9sNPBNVGy4VoufjwJ6FgHkRKjgCVSKm46xs+eZ8X1Y4d51puP4cvEM1desldiZF8F+MYn5uEaU+uMozacs+YWIH3lENB8lkjxU8ASKXa5V06unRC3cS4wcCmVfg+SITjdDtwP0gGq3LM4B83RHda5Bam5ax4CNJ8lUgIUsESKVfv1NjeM/5RzZr5J+IfTEkKgYNUJctfuROB+HBqzkHNXvwDsflVRRIqKApZIsWk3ZxVbOvHYyLhayuwpmbabjl3oTNn5LK917c524MrokPIlrcPvms8SKToKWCLFJPeD+vpJAz0bXo4x55DwLY0BOM1ZdaEIR/pYB9/iGoPHDNSGs1f/GYBZsyyz0HyWSJFQwBIpBrnB6t4pvl3XPBvjLjOJWP/W9TYGH9fFz1Mgd+1OEEHg/uwRLWiZvfZxIH3b8MVHNJ8lUuAUsEQKWbtWmrd0/Icx1FLhH02g9TZ5Lnc+q8U5Fkd+y9Wc/cgOQLcNRQqcApZIIdpjvc24IzzsAnxzGr7W2xSYAJuZz2oMthGxMHpl9c2tV7AUtEQKkgKWSKHJPRl8ydhe1thLjTHzSPhxkgFkr4xIIYkgM59lDTQFawzMD2avWQFkjnWYEmUboSKS/xSwRApFuysZ3rKJX3NE800iNpjmzLEL2htY6NIBqsKztEQQud+FAbWct/opQFezRAqIApZIvqupsbCybb3NDRNPcs4tpNyb2LbeRnNWRcVl1u5U+JAM6h1cGzU3/pCvP7YT0PlZIgVAAUskn+Vesbhx3AgvMguw9vOUW2jUepsSkD4/q9zDNQSbjI1qw3PX/gZIz+EdOkvHOojkKQUskXyUG6xuOqabDcovNMZ9g4RflTnPSsculAwXgcmdz1ppgmh+MO+hBwCt3RHJUwpYIvmk/XqbZRNOd1BrKvwRrettNGdVqtLlhdbl3Obm0ESLOHfNFkC3DUXyjAKWSD5od+yCf8P4ic6ZhZR7JwGZ9TYOMLodKAHG+CQ8aAhec47vR81cxzdWNwEahBfJEwpYIl0t98rDkolDPC+ajzNnUeFl56x07IK8mQDf+sQsrin4jwndwnDumluAPQ6gFZHOp4Al0lVyrzT8fErcNjTPNZbLSPi9tN5G3qV0gCr3bKZRepsNw9rUeQ/9A9B8lkgXUsAS6Wy3zLKsu5Xsh563dOInnXULTIV/OC1Rer2N0bEL8p7krt2JgBvD5paFfP2RlwDdNhTpAgpYIp2lBsuAY2z2dmBs2bijI2wtMfthrMnMWQEKVrI3DJnzszJrd5LBSziujF4pX9YarhS0RDqNApZIZ8j9YFt6XH8f7zJnzGwSvq/1NtLB0mt3YtbHN9AYPEpkFoRzV98GaD5LpJMoYInsT7nBqmaKb/s1nQPmMpPwB7bOWSlYyf6RDlBxz5KKIIj+FEZmAeet/g+Q3ml5n+azRPYXBSyR/aHdVQJvybhTsHYBcW8soUvPWWm9jXSOtvmshqDJGbc4KjNXc9bq14Ddl4eLSIdRwBLpSO3Os+KGiYd7kVtAzHwS30JjEGEMKFhJ50uv3Yl7uIbUNoNdGM5e9ePWRzWfJdKhFLBEOkrueVY3T+hlm7nYGOaR8BMkc9bbiHSdCEdEufUxBprDVSZifjB39T1A5liHKVF2k4CI7D0FLJF9dcssmzsw7N0w4cvOMd8k/GE0hxBqzkryTvr1WuFZmiOIot+EKVfL+Ws3AbqaJdIBFLBE9lZNjeXQJ1rnrPyl46Y4YxdR7k3EOWjWeVaS5xwBFp8KH5LBLufcdZGfuoazH9kFaD5LZB8oYInsjdzbgYsnHux5bgGWLxJvXW8ToWAlhcIREDM+MQ+XTG0wxtSGs1f/N6BjHUT2kgKWyHux23lWU6qsaf6GgQup9LvtNmel9TZScFwEJr12B6A5vMc45gdzVq8C9thAICJvTwFL5N24ZZZl3WFkh3+9pRM+43C1JuGPSp8xpDkrKRrpI0QqPEtjCM7dHDq7kLmrngN2v3orIm9JAUvk7bQ7diG2ZPzYyJqFlNmTMy0srbeR4pO7dqfCg4bgNQdXRhXlSzhzZROgQXiRd6CAJfJWcgd8lx432DP+fOBrVPjQGIDmrKT4pY91iFmfMotLBo8bZxaGc1b9Adij6CEibRSwRNrL/Wb+8ylx29g02zhzGZV+H5oyxy5YzVlJSUkHqHLPEjlIhX+1uNrU7LWPAunbhi8+orU7IjkUsESy2s9ZLZtwanrOKnYEqUjrbUR2X7sTGNyyIOUWccHa7YBuG4rkUMASqcFy4hSbvR0YWzL+6MiygJj3UazmrETeRHo+K+7hksELGK6Meg9e1nqrUEFLRAFLSlzunNUNE/v5UXSps2Yucb8sM2eldqDIm4sgM5/lG2gMHwK3IJy95g5A52dJyVPAktKU+w27Bmv7TpiN4TJT6Q+kMTNnpb2BIu9GOkDFPUsqgtD9ITSmlnNX/QfI7DdcqfksKTkKWFJaZs2yHPZK67EL/tIJM51xC4j74wmd5qxE9lb2kN2EDw2ppDNmcdTE9/nG6tcAnZ8lJUcBS0pDu/OsWDp+jGdYgG8/g2+hSXNWIh0kwDM+5R4uGWwxjoXhnNU/a3203XJ0kWKlgCXFL3fOatnkHjYKLzWWeST8xG7rbUSko6TPzyq3fvpA3ugBE0bzg/PWrAQytw2nRNnGrkgxUsCS4tVud5q3bPwXHWaBSfgH0xym19soWInsT+nDeCs8aArB8aswMLXMW7UZ0G1DKWoKWFJ82p0u7V8/foqzppa4dwLOQUsUgLNgdDtQZH/Lrt1pm8/a5TDXRHX2Wi59sB7QsQ5SlBSwpLjkfiNeNvlgzwXzMeYMKjxo1JyVSBcL8I1PzOIaww3GRAvCc9f+DtCxDlJ0FLCkOOR+A77pmIQNYxcYZy6myu9BMgSXuR2o9TYiXa1t7Y5z0ByusMbNT81euwbQsQ5SNBSwpLC1n7NaOv5Tzphak/DH0JKZs9JBoSL5KP3eTF9dBsePQ4KFzHl4G7B7OUWkAClgSWGqwTLgGJu9HRhbOvHYyLiFxOxMrbcRKRAGiDLHOsQ9aAh2OOOujLbHl1GzsgnQfJYULAUsKTy5P3CvnzTQ88L5OL5GZcyS1HobkQLUtnYnZnHJ4DETURvOXf1nYI/iikghUMCSwpEbrBZ/sMx6r88Gc5mp9PvRFEKkOSuRAtc2n5XerPBXa1mQOnf1Y0D6tuF9ms+SwqCAJfmvXbvIWzr+w86YhabCP4og0nobkeKTvgqd8CEZBAa3ODD2as5dtR3QbUMpCApYkr/arbeJLR57ROR5tZTZU/GM1tuIFDuXmc+q8HANwQvAomj76htbr2ApaEkeU8CS/JR7ntXi4/tYP7jUwFwq/DiNmrMSKSFt81megaZgjXGmNpiz+g4gHbKe6Btxq+azJL8oYEl+afeN1C4bfw5wuUnEBtMcQqhjF0RKVDpAVXiWlggi97swFS1k3tp1gM7PkryjgCX5oabGwsrW24H+0oknO1wtFd54wsx6G6M5K5GSl7t2JxnUO9ziqCL+fc5cuRPQ+VmSNxSwpOvlXrVaNmmU58IF+PZ0YlZzViLyVtLzWeUeLhlsNo7acM7qXwHp+c1DZ+lYB+lSCljSdXKD1Q+P6mHLKi40hguo9KtoyMxZ6dgFEXlLLgITUWZ9jIGm8H5jmB/MXn0/kNn0cBjU1ChoSadTwJLO1+6Hnrd0whedYb6p8EfQojkrEXnP0ke1VHg2vXbH/SI04UJmP7wZ2L00I9JJFLCk87Q7jdlfNmmyI6ql3DsJHDRHETjA6HagiLw3hsx8lvFJeNAQ7HSR+37UmLyOix9PAjrWQTqVApZ0jtzB0xvGD/MiMx/Dl6nwoTHQnJWIdKQA32TW7oRPGdyCcM6aWwCt3ZFOo4Al+1fuN8ZrJ8Rt3M0zzlxKpd+Lxpz1NiIiHatt7U7kIBXdYUM7P3Xeg/8AtHZH9jsFLNk/bpllWXcr2R9e3rIJn3RQaxL+obREEGi9jYh0igiw6avlqQj4cRh6CznvwRcA3TaU/UYBSzpWDZYBx9jsQGns+rHHRp5diO/NxDPQrGMXRKSTZeezrPGJe9AQbHeGK6OgxzLm3d4CKGhJh1PAko6T+wPqpmP6e2H55Th3DpW+T1LrbUSky7Wt3fEtril41ERuQThnzW3AHovlRfaFApbsu92DlW+DstnGcBkJvz9NmWMXNGclIvmjbT4rdBBEf7ZBuCA176HHAa3dkQ6hgCV7r923PW/JuFMwtpYK71hCBynNWYlIXktfVa/woDFscc5dF/mp73P2IzsAnZ8l+0QBS967GixMad0byA0TD/dcVIvvnYZvoCmIMi8tBSsRKQTptTtxD9eQ2gYsimavubH1Uc1nyV5QwJL3Jvcb3U3H9LFB7GJjzDwq/DiNQdsiVhGRwhLhSK/d8Qw0hauMi2qDOWvvAjK3DadEWrsj75YClrw7exy7MP4sh5lvEv4QmrXeRkSKRjpAxT1LKoIw+k2It5DZD24AdDVL3jUFLHl7e6y3GT/NYWqJexOJHLREATir9TYiUmTSXxoTPiSDeoe7LvJS3+fsR3YBClryjhSw5K3l3g5cMnaUZ7zL8fgiZR406TwrESkBLrN2p9zDJYNNJjK14dxVvwG0dkfelgKW7Cn3m9nicd2sby8wcDGVfhXJnDkr18XPU0SkU7h0cafcS3+hbA7vMYQLgtkPPQBkRigOQ/NZkksBS9rsMWc17vPOmfmmMjZKc1YiIqSPnqnwLY0BwM9C4xZy7potgI51kN0oYMkexy7414+f6Cy1lHvTAGiJInBozkpESp4BoszanYQHDcFrDnd11GQW843VTYDmswRQwJLcHwRLJg7xvGg+zpyVXowaQHZRqoiI7M4RELM+ZRbXEKwzmAXhnFV/ANJfXA+dpfmsEqaAVapyg9W1E+K2jLnGcikJvw+NITinOSsRkXfWtnYnchCEf7POzU/NXvsokL5t+OIjWrtTghSwSk27YUxv6fjTnDELTMI/gpYIAq23ERHZC7nHOgRgbgxdahFzHn4J0G3DEqSAVSrazVnFlo07OsIuxLen4BloDhWsRET2XXo+K+7hkqmXcObK6JVdN1LzRAugoFVCFLBKQW6z5YaJ/XznLnO42VTEyjJzVmoHioh0nAiIiGXX7gSPErn54dy1fwPSIevQvpHms4qbAlYxy/2mNGuWtVO3zgZzman0B9IYQqRjF0RE9qN0AzvuW4IIguhPobELOHfVf4DMfsOVms8qUgpYxeiWWenbfNn1NksnzHSwkArvWMLMehuj24EiIp0k/WU23c5ucrjFURRdzdyHXgN0flaRUsAqJu3mrFg87lDPt7V45pPErNbbiIh0rQCvde3Ocwa3MJy95ubWR2+ZZXXbsHgoYBWLe6f4TG09dqGXjbtLDWYuCT9BUnNWIiL5wUVgIsqsjzXQFK4yuAXB7DUrAK3dKSIKWIVuz/U2ZzjsAlPhD6MlhCBznpWIiOSTdICKe5aWCCL3qzAKFzH3oQ2AbhsWAQWsQtVui7u/dNwUh62lwjuByGm9jYhIvjOkT4M3mfmsZLDLwTVRub2WrzxYD+hYhwKmgFWIcr/ZLJ0wwrPmcnBnEPegMUzXg3U7UESkkLTNZzWkNhjjFoaz1/4G2OMLtRQGBaxCkvtNZumUKkvTPIO5lEq/G41BegGpbgeKiBQoF4FJr90BaApWGMyCYM7qVYCOdSgwCliFoP2c1dLxp2fW24yiJYSU5qxERIpIOkAlfEsyAOduDp1dyNxVzwG7l5okbylg5bMaLCdOsdk3UmzZuPERtpYyezKQmbMCdOyCiEhxaZ3PMj4VHiRTOxzm6qiifAlnrmwCNJ+V5xSw8tVutwOPG+wZ73Iw55DwoTEAR4SClYhIsUvP1frWp8zikqnHjaM2nLPmT4Dms/KYAla+yQ1WNVPitm/LbIy71FT6/UiG4DK3A10XP08REelM6aBV7vlEDlLR36zh8tS5qx8D0rcN79N8Vj5RwMoX7dbbeEvGfdRZW2sq/KNIRRBEAWi9jYhIiUsfGp3wIRm0GFgWtERXcsHa7YDms/KIAlZXa7feJrZk/NGRZQEx76PpLexabyMiIu24zLEOFR6uIXgJ3KKoz4HLWm8Vaj6ryylgdaXc86wWH9/H91KXO2POocKP06j1NiIi8rYiHOm1O+kv5A8Zx4Jgzuo7gHTIOrRvpPmsrqGA1RV2m7PC2gPGf43IXG6q/ME0hRA6BSsREXm32tbupCII3C0hbgFz1jwF6PysLqKA1ZnazVn510842XksJO6NJXSQ0pyViIjspezanfR8VtI5FkfGu5rZD+wENJ/VyRSwOkvu7cBlk0Z5hLVY+xnKrOasRESk4zgC/MzanWSwxWBqw9mrfgGk534PnaVjHTqBAtb+lns78KpjutnusUtNxAVUxhKZ86x0O1BERDqYi8Ck57OsgabwAWPc/ODcNSuBzIaQw6CmRkFrP1HA2l/a3fP2lo4/wxkz31R4B9MSac5KREQ6Q3r0JO5ZmkOI3C9CzCLmrN4E7H53RTqUAlZHq6mxsLL12AV/2aTJjmgh5d4UcNAcRZkVCLodKCIi+98ea3eCXQ53dVSVvI4vPp4EdKzDfqCA1ZFyBwh/MnaYl7ILMOYM4h40as5KRES6mCMgZnzKPFwy2GCgNpy9+r8BzWd1MAWsjpCb/H91RMLWV84zcCkJvweNIUSZ9TYiIiJdzkVgoNxaHNAS3WWxC1KzH1wDaO1OB1HA2he3zLKsu5XWOasl4z/ljKk1lf4YWrTeRkRE8lqEwVLhQzIA3I1hzC3iq2u3AbptuI8UsPZGDZYTp9js7cDYkvFjI2NqKbMzsQaaQwUrERHJf7nzWQkPksF259zVUUV8GWeubAIUtPaSAtZ7lftCu2HCQM+5y3DMJhGzWm8jIiIFKgIiYtbHN7jG8DGDWxDOXvNXYI+DsuWdKWC9W7uttzmszPatnm2MuYxKvx+NmfU2mrMSEZHC1rZ2J3TQEt1mMfNTc1Y9BmjtznuggPVu5IQrb9n4jzpjFpi4dzSBg5YowOh2oIiIFJX03Zj02p0mg1sWGHs1567aDqSvaOlq1ttSwHo7NdjWlH7DxMM952rx7Wn4BpqCKPPbp2BVwNLjB2ku53/nPp79o3mTx0VKTfZ98Gbvl+zj+mApKgGe8Yl7uPpgG84tiuauuRFQyHoHeh+8lZxwZZeMn2esuZqEH083LTRnVYjcHn90gMHHEMNQbtL/O1cKRwpHi3OEOBwOk/NrTLs/ihSb3b+ApF//MQxxYyl7k1d+iKPRRbTgiHLeLwpeBW23+Swag5VhKvUlzn/kOQ3AvzW93t+BXTb+W6bCX6T1NoXJQesP+QSWhPEoNxYfi8VgcDS7gDdcirqoBVwzGNP2F9tyKonRw8YoNz4GQ5SJZi2EtLiIJiIaXUSY+Sjy9LaSIhBm3jdVxlKJT7mxeFjAkYxSvOSaIGra/VPEOTBl9LYVVJsyPGMJcaSISLqAOhcS4DLvPSlA6atVVb519cGmyAVTmfPwNoWsN6fX+JvJvFi8JRM/T4X9NS2hljIXmIj0t+0K49HXlBHD8kbUzI5wFwRPQpgicwEr/W/VHw5ef97nVRM6hzFgMPwn3AnhqxBuhFTmb2wzf53XH/z+9LCV9LTlGAxJAnZEKYLMzyGFLSk0YSYADbTllGHZHjVRH2yH1Kb0698AZQnwD+NwvzfOOTDpbOUZw5aogbrUZkg9n92CB34/iA1jmFcJGF52zTS6UO+PQpS+R9xCpV9GQ7Aq3F5+IjUrg91GagRQwNpT9p7y0uMGe8b7JzGvT2aQXeEqz2VnQjygt4nR3ZaxI2zkteZ1ELwOPvSumsZpPd/PQT2GMLznEAZU96O8vILK8gTdy6qojMWJnEu/MYyhriVJQ6qRhpYkLS1N7EruYtOurbxat4N1bzzDrW88AY33p8OXBWKjGRzrT6Uto86l2BmlaCJqzXJ6w0m+CnGUYxlo4zgcW5o3QctWKIszpcfHmdzvKA7pM5IhPQaSqKikV7w73cqr0smKzAVfY0gGzbzauJNkUwMv73qFJ1/dxGOvPMnvd9wDTU+Bhd7xSfTyKtgeNbHLhXpvFCJHQJXvu4ZgQTR79RXMmmW5VfNYufSabi+Twv1lE37oKv0LaAh05SrPGSDAUYblAFuOcY7nWrZC89NQ3oPTB3yBkwaP57D+YxjSaxC9qnoS98r2+f+3rqWBXck6Xtz1Mpt3PMtjL69j+csP84/X/5T+5l7Wh+5lo+hl4zQTsSNqoYVI39olb2TfOz6WQbachijFjsYHAPhQ/y9z2sHTOGbwERzYaxC9Ej32+v+nviXJCztf4okX13PH5vv48dYboeUNqDiWg/xu7HAt1LkAH6MiSeGI8I0lcLtCvPcz+4HNGnrfnX7S56qpsdTURFw/aaD1on8a3/YjiLI3hSQPZWesBtk4noPnmh6BqI6pfU/n8yM/woRhxzK092ASsfief61zrbc3stpPhrjcH/eZy1AW+6bvnAjHaw07ee61bTz+wjrufPYBfvfy76BlB8QO4sCyIfjG5/moUUFLulw6XEUcYOJUGMuW5L1g4aLhV3DaYadw2MDR6StUOdq/Z95skqr1PePS44zG7P7jszlMsWn7M9y1fiXfeOpmaHiY7omJ9LBxno2Sms8qJI6ASt93jcH86NzV39Es1u70Os517xSfqSsD74bxp1Pm/5bmUOEqj4U4ehifvjbOxqb1kNrKF4dewOcOP5Xjhr6fnhXddvv1kUt/sTIYjNm3l77Dkf6Pe8u/Z0OqkWd2PMeaLY/wP5v+xj2v/BaAfhWTqbLlvOKaqHOhPlCk02UvMQz3KtnU8iI0P8G5I77FWUd/hiMGH4pvvLZfm33fGLPXr1Tn2hq4ue+TZ17dyp/+/X9c9K9zwXVjZGIsL0SNNLhQV7MKQ0TcszSFD4WzV4/r6ieTb/RzPVfm8qa3dML1VPlzqQ80e5WHslethtoEzwZ10PgwHxxwBpcc91XGH3wMcb888wtzauLmzb9td+jzap1F2fODZGfjLh5/fh3/++SdXPfM9yCVpLxiAgO9Cl6Mmmgi0geK7HfZW4KVxuMAU87m+nsY1uOD3DjxEqaOnkyZTf+4i1yUed90/LsmG7ZszpWtx59/kh+suolfb/kR/aomY6zHy1ETPlbvifyWvU24M/TMMZy9SrcJcyhgvQlv2fjfUxH7FI2av8o3IY4YlmFego3Jh6BsML8Zu5APH34y3ePp2xnpb9wGu49XqfbVm31rD1zIky9u5M9P3M63118LLdsYmDiBmPF5NmpsLSiKdLRsuOpryvBxvNjwdy455DtcMPmrDOjWD4AoitJXqjrpvRO5qDVoJVON/P7Rv/Dl1Z8F/0iGxXqzJWpQyMp3Jl0hNY5JwZzVq7jpGJ+zH9FtQhQe3kqkT7n8kv1w6GF8ehBj464VfHboeSw48XxG9xsOtH3rtiY/7urm3lLJPjffeLxv4BjeN3AMp73vQ9z6+P+jdt1FQJyDKyayy6XY4VKaz5IOlZ23GmDjvBg2QtND/OKEW/jcsafhG6/tvWM7971jjU0f3xs5ErEKzhz3GUb0OYgTls9jS9MGhleM5umwXiErrznwDDjlifby45NI5G1kw1UfU4Z1ji0N93Ld2J/w449dxeh+w3HOtX4T7qxv3u9V9rllnyvAYf1HseDkC3n4tH9xxoGz2Vx3DzvCBg62lZlT40X2Xfb9M9BW8GKwC8KnuOtD9/Gl42alw1XUte+dbLCLXAQOjh8+jvWn/Q9HdD+Gp5P/YIRXRaDvvPnNAZHRbcF2FLAkr2U/HPrbcuqiFl5reZBbp93G+SecRVVZovWWRr5ctXon2efqcJmrBnDskCNY9rFF/O/Jt4PnsTl5N6NsFVXGy5ymLbJ3ct8/LwT14F7mgQ+tYProEwCInOv0q1ZvxRqLM+n3xah+B3PbqcuY2ucjbEquZbhXrZCV7yKXHy+kPKLfEMlr2ZmR18JmmpvXcPvJ9/DJIz8EZOY38uTD4b3K3srMXtGq8OOcesRMNs/6I/NGfJsNu1ZgXcRAG9cHi+y1AEd349MUpaDlH6yc+YfGbVoAACAASURBVEcmHXxc63ELXT2n2F72fRFGIQf2GMjPP3QVY7pN4emmTQyxCb0XpKAU5qeTlITsMQwpF9LSsobbZ97LzEOmAplv3gVy1erttF7RygStg3ofyPc/9F/85qQ/sjP1CC+0vMxwr4pANwxlL8Sw9MBnZ+Mq/vyB2zlxxPjWtmu+3k4H8KxHGEUM7TmIP5xyDfgJngvq6GPK9V6QglH4n1BSlBzpD4fu+OxMPsgfpv4fMw+Zkn4sD79576ts0IpcRJmN8bljTmPNx1bTs2IQTyfvY5RXpbksedcM6S8oB3kJnq1fyVXvX8rHjpjZ9ngBvH88m/7icVj/Udxx0jJo/gdxDGX62JICoVeq5KUo58Nh6bif84kjT0n/eecK4sNhb6VDlgPnGDf0/Tz2iV9yWv+vsKF+BaO96sxWQ5G3F+A40FawofE/fGTQWZwz4QtAps1agO+fGWNO5Jqjb2Rb/X0M9RKaTZSCoIAleSfEMcwm2JBcy+eHnc+Xxn0ayJ6ZU/w/Vq0xOJM+k2hIz4H85KNXcc7wy1i/azmHeNW6kiVvywFVxqMxSgEvccXxF9A9Xt3aFiwkxpjW1u2Xxn6aif0+zcamLZnZRL0LJL8V1rtNip4DehifLWE9xPrxrePnUhmrKMgPh32Rra6HUUivRA++N/Nyzhv9bZ6sW85IW6UrWfKWIhwHmDg7Gh7g2qN+zFGDDwPA2ML8cpK9dd470YPvTJgHwSY8B2U6G0vyXOl8YkneM6Q/HHqbckg+xC+Pu4pDDhiRnrkq0LbgvkoP+4ZUl1fy3ZnfZM7I/2Jjw4rWmazC/MiU/cUBvU2Mp1Ov0K/HND591EeBnNU3BSr73CcPH8uc4d9ia+NKBthyBSzJa6X5qSV5KXtez9MtW5nQ71N8+PDpACV/QyzbqKqKVbBoxiWcMewbbKhfwUgdwCg5Wr+g2HJofJwfHHk2A7sfkCmFFPaPemMMURQRsz6fP/ITYKDZhcT06pc8VtjvOikyhip8aN7AJUedQa9E96L4cOgInrWEUUT38mquOvkyJvb5NBsb1zHMVipkCZCeXextYmxIvQbdJjJ11GSgeL6gZIfzjx7yPs4ZdhkvNd5Pf1tOWCT/fFJ89MkleSHEMcCWsallK2P7fILjR0wAiufDoSN41hJFEQdU9eGnM74D5QPYknqVAZmBX4Ws0uaA7qYMmh7lqpGnM7h7f6AwjmR4N7ID72U2xifGfBBCdGSD5DW9OiUvWAxxPGjZwFdHn0bvRA/Q1as9ZHe2jTlgBPdPXwqpf+GiiO7GV6uqhDmg0njsiprBg5OGTwIKf/ZqT+l/liMHH8aYXh9mU+olDjC6iiX5SZ9ekhcqjeX5MAnlQ5l40HFA+swr2VP2isTxw8fx+yl/5aWGv9PHlOGrVVXSuuGzI7WN6X2+wKgDhmf+bDGFK8hejOtb1Yszhs6A5ieoMn7XPimRt6CAJV0uAqpNjJbURj57wEcZ1vtAoHhubXQ0g2ldd/Kp93+Eq49ZxtN19zDCqyTSrcKS5HCUGw9SW5g2cDzd49UARXdunKHtXKxjBh0JBppcQLm+XEgeUsCSLudw6W+hLa8yddBYErE4FPmJ7fsq9wDGuZPPZPbIy3mqbjmjvGoNvZcgh8HHgIMjBxwK0Pr6KFbD+w6FiqN5Pqyn0nhd/XRE9qCAJXnAELgILIzsm761oYM035k16aH3RCzOgmlf56QDPs+GxnUcpGZhSXFAAstLURLiQxna68Cufkr7VXamrHdVL07tcQwELxE3uoIl+UcBS7qUA6qN5dkwCfHRDOk5qKufUkGxmWZhv8re3DDjCijvzzOpVxhoK9QsLBEOR6XxqA92clTlURxQ3QegyIbbc2T+sbqVV3FEj5EQPk9MH2WSh/SqlC4V4YjjEYa7OKzqUKoqKjOPFOmHw36QbRaO6nsQD5x8AwT/piVKqVlYIhxQZiyEL3NIt2GUxcq6+intVyZzKxSgT7e+4NItZJF8o4AlXS5hfAg3MS4xjOqydMDSj8v3JjuvNung4/jjlP9jR8OD9DXlxDT8WxIqjA/ha4xJDCYRq0j/ySJ+E0Wk58uGVQ2AKFP80Ctd8owClnS5mLEQtdCvvCdxv7yrn05Bym0WnnbUKfzg2BvZVHc3B6tZWAJc64B7z3j30vh3nclSPcrTbcnsP3NJ/LNLwVDAkq6XCQY2VqafkPsgt1k4e/IZnD/626yvW85oNQuLXNvVG+OXyJlQmRez8T3wwBFlrmKJ5A8FLMkfSgD7zJr0PFaFX863ps7jhANOZ33j4xxktRi6uJXov9nMrXEFK8lHCliSP/RTskNkj2/oV9Wbn838LsRH8EzqJQapWShFSq9pyUcKWCJFKNssHN5nKA+cfB2ET9AYpehpYmoWStHRK1rykQKWSJEyJj34POmgY/nz1Nt5reFBehpfa0VERDqBApZIkcqtrn/siJlcO/bHbK67l6FeQs1CEZH9TAFLpIjlNgvPnfRFvj6mhg11KxijZqGIyH6lgCVS5LJD73GvnG+dNI8pB3yep5IPq1koIrIfKWCJlIDszsI+iZ7cPPM7kDiSZ1IvM1jNQhGR/UIBS6RE5DYLV598LYT/4fWwmV5qFoqIdDgFLJESYkx6pc74YUfz15PupCG5mh4mRpmahSIiHUoBS6SEmJybgR9538ksHvdTNtfdw0GZnYUiItIxFLBESkxus/Brk77AhYdcwfpdyxnjVRNq6F1EpEMoYImUoOzOwnIb41tTz+OUgV/mqeRDHOypWSgi0hEUsERKVPb4hl6JHiye8W1IHMbm5hfVLBQR6QAKWCIlLHt8w/DeQ3lo5jJwW9keNtFbzUIRkX2igCVS4oxNNwuPG3Ikfz3pj7Qk19DdxCjHEnX1kxMRKVAKWCIlbrdm4eHTWTrhF2zedQ9DvYSuYYmI7CUFLBHZrVl41oTTueSwRWyoW8For0rNQhGRvaCAJSJAW7OwzMa4dOocPjzwK6xPPsAILYYWEXnPFLBEpFVrs7CiO9fPqIHK49jUvI3BNqFmoYjIe6CAJSK7ye4sHNZrMA/NWAzsYHvYSB9TpmahiMi7pIAlInuwxrY2C//2gd/TklxDFR5xPDULRUTeBQUsEXlbHzz0JG6c+Gu21N/LEFuha1giIu+CApaIvKl0szAdp7484TN867Ar2VC3gjFqFoqIvCMFLBF5SzZzfEPM+Fw8dTanHng2TzUsV7NQROQdKGCJyNvKNgt7xLtx3cnz6V89nU3Nz3OgmoUiIm9JAUtE3lG2WTi05yBum/EDcM+wNWygb6ZZqJAlIrI7BSwReVeyzcJjDjyCO6bfDo0PkcCSMB5hVz85EZE8o4AlIu/ZjEOm8OOJv+HZupUMVrNQRGQPClgi8q7lNgvPHP8Z/uuI77FhV3ZnoW4ViohkKWCJyHuSbRb6xuOiE89h1pDZrG9YzgivSs1CEZEMBSwRec+yzcLu8Wp+MP1bDKiezqbmbWoWiohkKGCJyF7JNguH9BzE32b+ENjO1qC+tVkoIlLKFLBEZK+ZTLPwqMGHcce0P0Lzw1RkmoWRQpaIlDAFLBHZa7m3AmccMoWfT/odz9WtZLCpaPeoiEhpUcASkX2S2yz8/NhZfPvIH7ChfgWj1CwUkRKmgCUi+6ytWWi56MRz+OyQ81jfsJyRahaKSIlSwBKRDpFtFlaXV3L1yZcxtPsH2di0JdMsVMgSkdKigCUiHSbbLDyw+wD+OuMasCm2hvX0M+VqFopISVHAEpEOld1ZeMSgQ7hj2i+h8WHKMVSqWSgiJUQBS0T2mxljTuRXJ9zK1vr7GKRmoYiUEAUsEelwuc3C0487jZojr2FDnXYWikjpUMASkf0i2yz0sHzjxLP54kEX8FT9ckapWSgiJUABS0T2m9ZmYVkl3512KYf2/CgbmrYw1FYqZIlIUVPAEpH9KtssHNS9P7+bcTXYZp4N3uAAE9diaBEpWgpYIrLfZZuF7xs4huXTfwstj+DhqDaejm8QkaKkgCUinWra6OP55eRbeKHufgbYCgxGEUtEio4Cloh0CmMMLtMs/MJxn2TR+3/Ehl3pnYWRbhWKSJFRwBKRTmMyzUKDYd4JZ3HGwReyvn45I71qDb2LSFFRwBKRTpVtFlaVJVg07RLe3+vjbGzapGahiBQVBSwR6XTWpkPWwG79+PXMq8AzPBvsbG0WiogUOgUsEekS1lqcizis/yjunv4raHkUH0c34xMqZIlIgVPAEpGuY9I3BE8aNYnfHP9Hnt91P/1NHKtmoYgUOAUsEekyhradhZ899uN895jFbKhbwQivUs1CESloClgi0qWyOwsthvNP+CpfHn4xG+pXMErNQhEpYApYIl0oey5Uqcs2CxOxON+ZdjFje3+SDY1PqlkoIgVLAUukizh2P3yz1GWbhQOq+/LLmVdCrJpng50MsGoWikjhUcAS6WSRiwDY+PLTbH71udbDNyXbLHSMOWAE90y/GVoeJYpCNQtFpOAoYIl0suwVq511r/PVO/6LhlRj+haZQlZa5n7g1JET+f2Jf+Hl+gfULBSRgqOAJdLJTCZBJMoT3LP511x//08JcZmQpQhhaLtt+smjP8J3jk43C0dmdhaKiBQCBSyRLhJGEXTrzWX/PI/fPvxHIN2ocwoRrbdNLYavn/hVzh7xTdbXLWeUV02ooXcRKQAKWCJdKXqV4dUn8aUHZ3H3+gfSf075CshpFvpxaj5wIZP6fYYNjU9wkJqFIlIAFLBEuogBcBAZA2XHMe2uU3n8hSfTV28izWNBW7Owf3UffjZjEcR68kzwmpqFIpL3FLBEutjOqJmDvG7gejLrzkvYuvPF1mAhmZDlIkb1O5j7ZvwUUo/REgV0V7NQRPKYApZIFyvD8kzUwIj4MDbsvI3LVlxNXXNDa7CQ9EwWDk4YPo5bTvwrr9Y/yAEmjqdmoYjkKQUskS7mgAosm8J6RlVO57dbfsQ1991E6CI1CzMMbcP/s97/Ea4+dikbdq1ghJqFIpKnFLBE8oADPAwbwnrGdJtO7b8u5NcP/wHINAsVsnY7kPW847/M7FHfYn29moUikp8UsETyhMn8d2uUZED18Zz5wKe566n7Wx9XxKL1QNYKP86CD3yDE/qezobGxzjYq1KzUETyigKWSJ5wpN+QDS4kxEB8LDOWf5J/Pb8us7NQ81jQdnxDv6re3DzzO1A2iM0tO9QsFJG8ooAlkmd8DNtdM0O8SqAHH7vzIp57/XmssenDSaW1ADCy70H8fcZNEP6Lliigp4mpWSgieUEBSyTPOMDH8lyUZGT5UJ5943YuXX4Vdc31eGoWtko3Cx2TDx7LrSf+P16tf5DepkzNQhHJCwpYInkoG7I2hvWMrpzO77Yu4eqVN5ByoRZDZ5icIPXJoz7MtWNvYlPd3WoWikheUMASyVPZZuH6sJ7R1dNY9Pgl/PahbLPQqlnI7s3CcyZ9iXNGXsb6uuWMVrNQRLqYApZInjPAtqiRwdUncuaDn+H2dfe2PqaI1Tb0XuGXc8W0i5jR/0usTz6sZqGIdCkFLJE8l20WtuAgPpZT7vkcj217Qs3CHNnVQn0re7FkRg3ER7C5ZQcDbYWahSLSJRSwRApAtll4oFcJrpqpd1zAlte3tV69kbZm4Yg+w3hwxg0Q/ouGqIVeahaKSBdQwBIpANmh961RkpHlQ9hZt4KL7lrEG0112lmYw2ROvZ940LH879TbeaNhFT1NjBhWEUtEOpUClkiByG0Wjqqcxh+33cj3Vi4jFQVqFmaYnImrU4+YyQ/H/oSnd93DcK9SzUIR6VQKWCIFJHdn4ejq6Xz339/k52t/D6hZmJXbLDx30peYN+bbPFWX3VnoNPQuIp1CAUukABkMW6MkQ6qncPbqz/O3dfe0PqaI1dYsLPdi/NdJ53Ny/y+xIfkIB3uVahaKSKdQwBIpQBZIupAkEcTH8qEVM3h067/VLMyR2yy8YeYVUDGKzS0vMyjTLFTIEpH9SQFLpED5GHZkm4VmJB+78yK2vKZmYa5sAeDg3kNYPXMphP/hjbCZXiam4xtEZL9SwBIpULnNwhHlg9hWdxdfX76Q1xt3qVmYw2Rm08YPPZq/nHQH9cnV9DQxytQsFJH9SAFLpIBlQ9amsJ5RldP587Yfc/W9S9QszJF7K/Cj75vBj8b/lKd33cNBahaKyH6kgCVS4No3C69+4nJ+uua/ATULs3bbWTjxC1x06BU5Ows1jyUiHU8BS6RIGODZMN0sPHf1l/jbE3e3PuZ0pab1il6ZjXHp1LlMG/Al1ifvZ7h2ForIfqCAJVIkLNBEullYXjGeD909jYef+1fr6ebSdnxDn0RPbppxBSSO4+mWF9UsFJEOp4AlUkTSzcIW+noVYA7lg3epWdhebrNw7YzrIXqCnWEzvdUsFJEOpIAlUkTSQ++GbVGSEeUDebVuBeffVctrjTvVLMyRbRaOHXoU/++ku2hIrqYanzgW/Q6JSEdQwBIpMm3NwjpGV07nr8/fzKJ7FtMcptQszMi9Ffjhw6ezbMIv2VJ3L0O9Ss2riUiHUMASKULpZqFlfVjH6OppXLtuAT9Ts3A3uc3Cr0w4nYsOXahmoYh0GAUskSJmMDwTJjm421Rmrz6Dv/z7ztbHdKUmt1noc/lJ8/jwwLNY37CcEWoWisg+UsASKWIWaCHiDRdQnZjAqfeeykPP/lPNwhzZAkCPim786OT5UHUim5pfYLCahSKyDxSwRIqcj+FVl6KbVw7mYMbdeR6bX31OzcIcuc3Cf8xYDNE6doRN9DFlahaKyF5RwBIpctlm4fNRI8PLB0Ly38y76wpeTapZmCvbLDxmyBHcNm0FTY1rSGCJ4yliich7poAlUgKyzcKnw3pGJsbyfy/+lO/c8yOawhY1CzNybwV+6LAPcOOEX/Nc3UqGeQntLBSR90wBS6REZHcWbgzrGV01neuerOEnq34NqFmYldss/PKEz3Lp4d/lqV3LGaVmoYi8RwpYIiXGYNgcNjC820nMW3sW//v47a2PqVnY1iyMGY9vTp3DaQeew4bkvWoWish7ooAlUmIskCLidZcikZjAafeewpotj6pZmKO1WRjvxjXTL8dUHs+m5q0caBMKWSLyrihgiZQgH8NrLkVPrxy8I5hwx2w27diiZmEOa9O/F8N6DeYfM38EbhMvh0n6mHI1C0XkHSlgiZSg3GbhwWV9oekp5t5Vy47k663BQsDY9Gza0Qe+j/+bdhctTWtJYEkYTzsLReRtKWCJlKhss3BzWM/oxFjufPEXLLo70yzU8Q3A7s3CUw49iZ9M/C3P7VrJgTaheTUReVsKWCIlLHdn4Zjq6Vy3vpZlD/wCULMwK7dZeMa4TzP/yO9pZ6GIvCMFLBHBYng6bGB49Ulc+PDZ/O+//tb6mK7UtDULfePxjRPP4bTB52hnoYi8LQUsEcGQbha+5lL0qJzIafd+iAc2P6RmYY62ZmE1182Yz/BuH2RT0xaGqFkoIm9CAUtEgPTQ++suRaUtA/9Ijr9rHpteUbMwV3Y27cAeA7l1xveArbwYJumrZqGItKOAJSJA+2ZhH2jawFfuvJztDa+qWZgju7Pw/YMP5/Zpt5NqWks5UKlmoYjkUMASkVa7NwuP5f6X/1vNwnZybwXOPHQqP530P2yru59BpgIHuo4lIoACloi0kw1Z68M6RlVPY/GGhSx94OeAmoVZ6WZh+vfhi2NnseDIH7ChbgWjvSoiNQtFBAUsEXkTjnSzcHOYZET1B7jooXP4wz9vA9LhQs1CsJnjG3zjceGUc5g1dLaahSLSSgFLRN6UAQIidrhm+lZNZtZ9H+H+p9cC6CpWRrYAUF1WyTXTL+ew7h9Rs1BEAAUsEXkbPoadLiBmffCP4MS7vsaGV55RszBHbrPwtzOuBvMcz4UNahaKlDgFLBF5S9lm4QtRIwfF+kLLq3zljm/xct0ONQtzZGfTjhx0CHdOvwuaHqIMqFKzUKRkKWCJyNvKDr0/E9UzquJQHtj+Oxbecx1NQbOahW/i5DEn8vPJv+f5uvsZZCsANQtFSpECloi8o+zOwg1hHaOrp7N04yKu//vP0sPwahYCuzcLvzD2k1xx1A9Zv2sFo9QsFClJClgi8q5ZDJvCekZWf4BL/jGb3z/6F0DNwqxss9DD8vUTv8bnh53P+obljFSzUKTkKGCJyLtmgBDHdtdMv6rJfPa+U7lv0xpAzcKsbAGgqizBldO/yZgeH2Fj00aG2UqFLJESooAlIu+Jj+ENF+BZD8qOZspdZ/Lky5vSwULzWACtBYDB3fvzh5nfBxuyJaijn5qFIiVDAUtE3pNss/DFqImhfg9IJfnynZfzUt0rOr4hh7Xp2bTDBozmrum/heaHiQHVxlezUKQEKGCJyHuWbRY+GzUwqmI0a165hW+vuIZkqknNwlyZ+4HTR5/ArybfyvN19zPAxAE1C0WKnQKWiOyVbMjKNgt/8vTVLP77T9UszGFoaxaePvYTLDp6MRvq2pqFIlK8FLBEZK9ldxZuCusZUf0BLntk7u7NQoWsnGah4fwTzuILB13Q2iwMNfQuUrQUsERkn+Q2CwdUHc9nV57KPRse7OqnlVeys2mVsQqumn4Z7+95Ghsbn1SzUKSIKWCJyD7zMexyAc5aKD+GD6w4m3UvbUwfvqmhd6CtWTiwWz9+PeO74JerWShSxBSwRGSfZZuFL0VNDPW7Q1DHp++4hBd3bdfOwhy5zcK7p/8Kmh/GOkc342smS6TIKGCJSIfIbRaOjo/mP6/9mW+v+AENqUY1C3MZwMFJoybx6xP+wEsNf+cAU47BKGKJFBEFLBHpMNmQtT6sY1TVNG7e/H2uu/8nrc3CSEPvmSCVaRYeexrfOepHbNx1t5qFIkVGAUtEOlS2Wfh02MCo6mn816Pn87tH/gykG3VqFmYXQ0dYDBec+FXOGH4hT9WrWShSTBSwRKTDZZuFL7omBlSfwOn3f5y7NzyQeVQBC3ZvFl45/VIm9fk0Gxuf5CCrxdAixUABS0T2Cx9DnQtwxkDZ+5m2/EyeeHE9Rut0WmULAP2r+/LjkxeCH+OZ4HUOsHE1C0UKnAKWiOwXuzcLe0Lo+PgdF7HtjZfULMyRbRYe2n8k9834H2h5FKKI7moWihQ0BSwR2W9221kYP5iNr9/Ggruvob4lqWZhrkyz8IQR4/nN8X/i5fq/08+UY9UsFClYClgisl/ttrOwajo/2/wDrrnvJkKcmoUZBtN6ter0Yz/OVccsYeOuuxmpZqFIwVLAEpH9zgEeho1hPaOqp1Hz2Df4n3/8CVCzMCu7s9AA5x3/Fc4acYmahSIFTAFLRDpNhON518ig6hP4wv2fzGkWCmTPCotIxOIsnH5xpln4HzULRQqQApaIdBofQ4MLCTBQfizT7vocj7/wZOu5UNJ2fEP/qj78dOYiKOvFM8FrahaKFBgFLBHpNNlm4cuumSF+NUTlfOqOS9LNQh3f0CrdLIwY3W849538U2j5J1bNQpGCooAlIp0qG7Kei5KMjA9j/c7b+ObyK6lraVCzMJdJ3xA8Yfh4fnfiX3ix/u/0MWV4WEUskQKggCUinS7bLNyYaRb+9tnFXLvyJkIXYY3V0DuZnYWZ34dZR3+U7x23jKd33cMIr1JXsUQKgAKWiHSJbLNwQ1jPyKoPUPOvC/nNw38E0rv6FLJydxbC3Mlf5uyRl/JU/XJGe9VqForkOQUsEelSDscLrokh1Sdyxt8/xfKn7u/qp5RXss3CCr+c2mkXc3zfz7K+8dHWZqGI5CcFLBHpUtlmYRMO4sdy8t1n8NjzT6Sv3mjoHWhrFh5Q1ZufzlgE5cN4JvUqA20FaGZNJC8pYIlIl8oOvW93LelmYehz8h1fZ+vOF7WzMEe2WTiy30H8/eQbIPUYLVGKhI3hNJMlkncUsESky+3eLBzKK7uWc/Fdi3ijqU7NwlyZ2bTJBx/HH6bexo6GB+lnyrCaxhLJOwpYIpIX2pqF9YyunM7vn1ua3lmYaRZqZ2G6WZj1iaM+xPePvZEtu+6lp5fowmclIm9GAUtE8kZus3BU9TQWPn4xv1j7e0A7C7NyT72fe/yZzBl1OavrVoIH6FahSN5QwBKRPOTY5hoZWj2Fsx48nTufXNnVTyivZJuFca+Mb3/g65zS7xOQBN/6Xf3URCRDAUtE8o7FkHQhSSKIH8vMuz/LY9vULMyVbRb2q+rN4hnfhjg0p5pzfoXmskS6kgKWiOQlH8Mr2Wah687kO87n2defV7MwR7YAMLz3UJZ/+H4aXSrnUd0uFOlKClgikpdym4Ujyg+koe5uLl3+XTUL2zGZnYUnjZrMrCM/3Pr7YnQFS6RLKWCJSN7KNgs3hXWMqZzO759bxlX3LiXlwtY5pFJnMDgc1hiG9xqCNfqxLpIP9E4UkbyWbhZangrrGd1tGlc9cRm/XJNtFmoxNGRDFvq9EMkjClgiUhAM8GyYZGjVFL764Oe4fd29rY8pVqR/f7K3C0Wk6ylgiUhBsEATEUkibGIcp9x9Go9u/TfGGJyG3kUkzyhgiUjByDYLB3kJoD8z7/wGW17fpmahiOQdBSwRKRjZZuHWKMmI8sG8UreCC+68gp1Nu9QsFJG8ooAlIgVl92bhyfzl+Z9w5b1LaI5SahaKSN5QwBKRgtPWLKxjVNU0vvefy/n5mt8BahaKSH5QwBKRgmWA56IkB3WbyrmrvshtT6xofUwRS0S6kgKWiBSsbLNwlwvwE+P5yN0f4R/P/UvNQhHpcgpYIlLQfAyvuhQDvAowwzjpzq+rWSgiXU4BS0QKWm6zcHj5IOoa1jLnjhpea3xDzUIR6TIKWPL/27vzMLuqMt/j37X2PjWcSoUwBQRkDEODTdMKZAAhAvrYXvR29zXo9drelrYVkpBGbTpNc9NV1dVpOqItQiWIjWirj9cbuF5E1DA0hCmp2I2gvAAAIABJREFUhCmCxACBhBBCJjJWnTrD3mvdP/Y5VaeKBDJUUmf4fZ4nPpiT8JyQs8/+7bXe9b4iVa90svDVuIfT0xfw6ze/z5xHusjrZKGIjBAFLBGpCaWThS/FOzl99GV848X/xe2LfgLoZKGIHHwKWCJSUwyG1+MMJ4/+CDO6r+S+3z3Y/5rX2UIROUgUsESkppROFm7zEU3pCXzyPz/G0tefK54sVMCqCcW/Rh/H4MBi8CRtO0QqhQKWiNScEMMWX+CIoBnsWYy//1pWvb1GJwtrjI9j8GCMQZ3PpNIoYIlIzSmdLFzrMpzceDRknmfa/e1s6dumkFVTkjUrRSupRApYIlKTSicLX4t7OCN9Hr9Z9wP+5eFbycUFtW8QkQNOAUtEalYpZK2Id3LG6I/yrd//I9998j8AnSwUkQNLAUtEaponKYJ+Le7lpNaPcO3Sv+aeFxYAyQaTThaKyIGggCUiNc8A+eLJwsNbLuDP/vNPWLzqGTBGq1gickAoYIlIXQgxbPUFmmwKwg8w6cG/YeXm1UmndxW9i8gwU8ASkbpQOln4puvj5IajIPN7rr7/H3k7s01F7yIy7BSwRKRuDD5ZeC4Prf8x//zwd8jGec0sFJFhpYAlInWlNLNwRbyD01ov4+YV7dz+5I8AnSwUkeGjgCUidcliWB1nOLn1Eq5d8tfcvexXQDLLUCcLRWR/KWCJSF0qnSzc4vOMHXUhUxZezuJVT4NBq1gist8UsESkboUYtvmIlA2Tk4X3T+OVTat0slBE9psClojUrUEnC1NHQW4Nf7XgBjb3btXMQhHZLwpYIlLX+k8Wuh5Ob/5DHt/4v5n98HfIxjm1bxCRfaaAJSJ1rxSyXop3cnrrR7l5RQdzH/8hoJOFIrJvFLBERBg8s/CU0Zfwt09fxV3L7gN0slBE9p4ClohIkQEKODb5PGNbLuSKRz7JE68t1clCEdlrClgiImVCDDt8RGhDSP0RH35gGi9tfFUnC0VkryhgiYiUKZ0sXOf6ODF1OOTW8T8X/AMbe97WyUIR2WMKWCIiQ5SK3le7Xk5vPoslm+bT+Z/fpi/SyUIR2TMKWCIiu1B+svCM1o/S9cpsbn3izqQYXicLReQ9KGCJiOxG6WThq3EvJ7dewsynp3LXc78EwBidLBSR3VPAEhF5F6WThZt9nmNaLuIzj3yKR1d2AzpZKCK7p4AlIvIeSicLvTXQ8EdMfnAaKzas1MlCEdktBSwRkfdQOln4lstyUupwyG/gfyyYyYaezSp6F5FdUsASEdkDpaL3Va6X05vP5Nm3f07bQ98iU8gmK1kKWSJSRgFLRGQPDTpZOOqj3L7yX+nSyUIR2QUFLBGRvVA6Wbgy7uWU1kuY+fQ0fvbMPYBOForIAAUsEZG9ZIAIx0af57jWi/jcY3/GwlcWJy9qFUtEUMASEdknAYadPiIyBlLn8JEHv8iL61/G6GShiKCAJSKyz0IM612WE1OHQZTncwtm8tbOTZpZKCIKWCIi+6p8ZuG4plN4fss9zHroJnoLfWrfIFLnFLBERPaDBwIsK+Mezhj1Ub6/8ia+89gdOlkoUucUsEREhkGA4ZW4h3GjL+WG52bw06d/DuhkoUi9UsASERkmMZ4NPsf7Rl3E5x/7byx8ZVHygvKVSN1RwBIRGSZh8WShNwYaP8hHHvgCL6xbgTFGRe8idUYBS0RkmJRmFq53OU4Mx0Ds+Mz9M1m3Y6NOForUGQUsEZFhVApZq10vpzadwu+33ssND/4rPfmMThaK1BEFLBGRYVY6WfhK3MMfjPoYP1z1bb792L/j8MXB0CrKEql1ClgiI0Qny2pfgOHleCfjWi/lH5ddy0+fSk4WWmPUvmEY6BqSSqaAJZXDjPQbODhKtwSry68uxHjW+xzHjbqYv3js0/zny0+M9FuqGdYk11CdfHVIldE3vIw8U/x6jOORfR8HSelmkHeF/v+v5/DaFWDo8REFgKZzuezBL+lk4f4qXkTZOAcMzNfWdSSVRAFLRlzkHVh4u28ruagw0m/ngDPFQPlWZjMADVhi3RpqWohhg89yQjga4hx/suCrrN2+XicL95EtJqw1PRvAgNP1IxVIAUtGXMZHEPwBSzKr2JHrGem3c9C83bsVPATG6PZQ40ozC193vZzaNI43ty/gHx78V3bme3WycF8UH1I29mwCk/z3NdoolAqjgCUjymDI4iBoZVnPy2RzfUDtFq96fP8K1qadm4o/q4BVD0oh65V4J2e0fJQfr/4O//bo7cQ4nSzcC6XDAdk4z+rtb0AQEKGAKpVHAUtGlAV6fMwJtgWyL7B221sj/ZYOqNI9tLfQx9K3X4TwSGK8bg91otS+4aW4h9NaL6N92df58ZK7AZ0s3FOlh68tPVv5v1ueg/Asct5p/UoqjgKWjChDUj/RZEOIYeXmVcWfr9Wvy+Tm8HbPVu7a+lsIjyXr45r908ruven7OL71Yr745Gd48KXHRvrtVJ01W97k7Z6HOCIYTcbXxwEZqS4KWDKiSs/rvT6CELrXPUfeFTA1+jRfCo6vbVoNPU9yQjCGrT7ShVhnLNDrY/rw0HguH3twik4W7gFfbNQK8PxbyyGCQ2wjvWgFSyqPvtdlxAUYdvoCNJzLbesfZO3WZJuw1uqwyuuvlrzxLAApG6p+pE6FGDb5fHKy0B3Cny34Gmu2rdPJwndT/ErYkevhF6sehobjyRGjBg1SiRSwpCL0+pgTwlbofZrn3ngBqL1twtKC3Iadm7nz9QXQ+AG2ufzIvikZMaWZha+7XsY1ncCr23/DzAduZGdOJwt3p/TQtXzdy/x6ww84oeFk1rkcQY19V0htUMCSihCVCr2DQ7hn5YP0Rbka3CZM/izPvfECL2/5FeNSR7HZ5wl1c6hbpZOFK+Od/EHLx/jZmi6++ehtRL50slAhq6S0Pejw3Pv7+wEITKAeWFKxFLCkIlgMm1yO9zX9ET954zu88ObvgdrZJvQ+uTlkoxx3rfg1hE1kiTFq0VD3SicLV8Q7ObX1Mv7p+ev4jyX/B0hGwdTWQ8a+8660evUSN756C6ObJ/GWy2r1SiqWApZUBANkcTSZEDz87PlfEPm4Zm4wpaD47JoXuPP1b3J003lsdnldgDLIm76P94+6mC89+TnufSFZpam9ldy9571Ptk3x/GTZz6GwnsNsU9JDT6RC6ftdKkaA4Q3Xx3Hpi/n2ynaeff15gKq/ufSvXsU5vv/cz8A002BC3RxkEAtkfEwPjsPSF/BfH/o4v1n+MKCQVXpAWfTqU8xZcQPHpi9mvctq7UoqmgKWVJQIjzEWTCtdT/+ITCFbLPit3ptL6ebwyEtPcueqb3FK80Te0NaG7EKIYasvEJqAoHECn3jg0kEhqx5rslyxHm1z71ZmPvktCMfhTTIBQleQVDIFLKkoAYY3XZaTm8/jx6tv5r4XHgCo2i9S55Kbw5vbN/Dlxd+Apg+w00c1U1smw6t0snCjz3OEbaC1cRKf+M2l3PXcL4GkJqueWjiUVn8Bbl/8YxZtnM+pTSeyzmV1OEQqngKWVByPZ4vPk0pP4DOLv8by9a9UZQPGUt1IjGPe4h+ydvv9nNJwFBt1clDeRSlkbfB5mkzI0ekPc8XDn+Lmx+4gG+f7+2TVekj33vdfJXcv+xX/67d/w4mtH+G1uJdAh0OkCihgScUJMGzzEccEaShs5e8XfoMtfduTsFIlISu5OSS3h7ufu49/efHvObnlElbFGd0c5D2VQtYmn6fPeE5omcxXl/41f/erf2b9zk1YazHU7pZhf3g0hidfe4opj17OIelJbPUFYl09UiUUsKTiDDRgzHBq+oP88s07+JeHbyXvIoIqaMA4cHOAx19dymcf/a8cmb6QTT6vnj2yx0rXwXYf8ZbPc/roj3Lryk4+dveXWLzqGYD+Xlm1VADvvQef1Jw9/fpvufA3fwHhH5O2Kbb7SKu/UjUUsKQiJb2BDK/EvYwbdSnfWjGLrsfvHGjAWKErWeU3h6fW/JaLHrgKwnMIbMBO3RxkL5WugwjPS/FOxo26jBd6XmLSL87l9id/zPbsTqyxNVMA77zDGIMxhqWrn+O8X30OfIr3h2N4q1h3VTtRUmqdApZUNAOsdn2cMupSvr70K3Q99n1iXEXOa3PFbUFjDE+/8Tzn//IKiPIclzqU9bo5yH4wJKtZK+OdHNPwPo5q/DBXLfoCn/m/17B41dN46C8Gd7766rM8AwdCAH6z/BHG3zsBXIr3p47kDZchxFbZn0rqnQKWVDQLxDjedH2cNPoSvvr0l5n94HfYmc/0z2urhO2R5Ci5KW4LLuG8X/538I0c33AUa3VzkGFQ6vi+zmXZYRynHXIZ97+9kEn3nEf7/d/klU2rgCRoleqzqiFoOe8wxQMhvYU+5j7xAz6x4BKC8I85NnWowpVULQUsqXgWQw7HWpfllFGX0vbbr3HtfW2s2bZuxLdHvPf9fXpiHHc/dx8X3TcBfAPHpQ5njevVzUGGVYAh7x0vxz0c23gSxzRfxD+9eB2nzf8T5j7+A17f8iYwJGhVwEPIUK7s2sEYlq9/hat/8Q9M776S49IXM8Y28KbL6vqRqqWAtStGdTKVxhbrUFa5DKeNvow7X/8mp939FzzyyqLkdWOh+IV9ML6MS8HKGFPsc7WeWb+Zw5SHPslhDRdwVHgIa12fbg5ywITFnnFbfMRJLZcQmkOZ3n0lJ87/M25+9N9ZseHVZDu9+BACyWqR8yO3ruXx/YHPFq+dLX3b+X73/+asuz/Kj9fewqmjL2OzL/C2L2hbXapaMNJvoBLZTxx3BangLCLnUAitGKb4Y7PPc3LD6WzOb+I/VtxI0DOGEw49jjHpQ5ICWQ+uOIbGDGNY9oAvbruUblqZQpYHVjzK5ff/LQve/HfGtV7KTmK2+ILClRxwFoMDtvgCaRtwYvMZvB31cf+a25n78gL6Nu2k2TYyunk0TanG/gJyA4N6aQ3ndTKUx+O9728aWnoPO7I9PPTSY8x4qJNbf99Bc8MfcFzDqbzmenHFP5tUAQMYg8Hc6X71xho+eYzlvrcqq0B2hChglWvHshBvL3//J2mwf0RBAasSBRje9jmOClo5JHUC9679Ht955TFOiscwdvQRtDaN6v8S994PrkMx9Penei+lbZXym1DpRzbKsXT1MjoevZmZT02lhxZObvpDXnMZ8jiNwZGDqrTCu9lnOcw2cUzjqWz1AYs2/JgfrLiDpa+vIdfbR8qGNDc20xg2DPo8A/3Xyj5fL8m/pP+fd3XdAKzbvoEHVjzK3y38Bv+87G95vZDhlPQHyRnPBp/TSdvqkhSfOp+3xs9zv1q7nnNPtyxcrYAFhCP9BirKxZMtLHQe/5Iu8cpVKvbd4HM0YDml9VJeLWznLx//DIc+fwmdZ3yej5x6AacceSKNQcM7bhBDg9OuWAZuCOW/f8POzTz9+jLuWvFr/uONb4M5hFNaL2WHL/Ca6y0GK316ZGSEWLb6iC0+YrRNcWjLJVjgka1LeWTRT+EpuPzIK7ns2Al88NizOfHw93Pk6CNoCoqBaxefXV/cUjTs+pop/R5jTH95Rfn/Ojybe7bw8oZXeXzVEm5cdQ87tz8MDSdxSuul9PqI11wGQE14q1Fo8Hm/vpBiTfITkx0sHNG3VCl0JyjXPjmkfWEU3jphkg/Mk8VvFKlwMZ5DTYrDTQMrC5sg9zw0vp8vHfNZLj1hEmcdfTrvG3M0Y9KjCc2eL9p6IJPPsGnn27y6aTXda5/lh6/fz8ptv4GglWObPkhgLGtcHwajpU6pOHExGh1tG2g1KTbFfWwrrIHCG8m3/6iL+OIR5zF+7NmceMQJnDDmWEanWzm0+RAaU417vU3n8BSiAlv7trOlZwsvb1zFs2+9wP976wl+t+3e5KJqOJtTUkfSR8Q6l9O1U808ES1hSCa6O566eMpIv51Ko4C1G8G8iY/SHFxEXxyhlb6KZkhuJB4YaxpoMSEbXB+Z3FIoxNAA4w/5NBMOO5NTDj2Bk0YfS0NjEw2pxnf8eyIXU8jl2JzZwoqtq3h12yp+tuVJ6H0++QWNf8jxqcPxGDa5HFmcCnGl4pXGy4wyAWNMihBLwce8Ge+Awu+hkE0+3w2jaG6ZwJTWMzlq1FiObDmCk1qOpqWxBRuGNDY0Yoqfd0NSNJ/L54gLBd7KbGb1jjfZuHMD929/kTU9CyBPUmTReBbvCw+n0YRkfMRGXwC8rp1qVlqASFnIx5+Mp3XfV1qkGOm3VikUsIYqfkCCrvGfojH8BZHTKlYVcSQf6mYsh9kG0iZku8uyvrARopeSX+BJvvR39djsgbj4zxYIDofUKYwLWvEGtro8O3xEzEDRvUi18ECpsDTEkDaWUSYkbVI479jssmyLeyBaCa534DcYdn3NlF4vfUeWfk34hxwRHMLhQRMFPNtdnh4fky/+Qq1Y1YSI5jCkL3o4nrr40pF+M5VI94d3Ecyd+H9oDa+gJ8oDDSP9fmTvlJ7aG7EcalO0ECbHxPHE3hP1J6lEaSxJaAIsBouhgGObL7DDJw9ldo9LfkUqX5KPBp4g0wQ0G0urSRXroXx/wbrzngLJycPS4oXFEGKxxfqt5FSjZ6eP6PER2eJpXl03NcYTEZqQyDmLHV+YtuhprV69k7a+dmX+FMsVd7nYx1fbnXzAtIZnFkNWiB6+qkbpJF8Bz3qXA3KAKf4l7qruwxRvJBFxMYglP2t0KlBqkoFBn+0sjj4f87Yv9P9cUAxHyXUw9Hd7YpJC+Jiyk4PouqlhEYEJSVl8FF+jcLV7+vTvTukDc8ukk23K/8Kkww+QicH7CEOobcPqt7u/Ql0UIru2q2tG10vdcICjMQhxHh/FM93V3d8Y6TdVybQaszvtCyPaJ4fMWPSaK7gL6C18F++hOSyt+imtVzmzmx8ismu6XuqSAyJCa0mHoc/FvyMX/Zf+cNWuHLE7uj7eS9nSZ6prwvnOmNk02sswBnJxBN6C0QdMRERqiy9uBzYF0Btt8fg5Lt10C19cmGXKFMtdd6mh6LtQwNoT7e0W2qE9qdgM5k38nPe+zbSkTiMfQ6G4bSgiIlL9ksOmzQH0xYC/I3a2k+mLkmaiqrnaIwpYe6P8Q/Wjs9N2Z8vXjOHrpMMx9EXgUNASEZFqlaxINViLMZCPHzaOWdG0xYuA5B7IQldabJB3p4C1L27/UMhXnkmC1nfGjwtStg34fJL2I1f8z6ptQxERqRbJdmBjgM9EKw2uI5665CdAUmd15hS4QluCe0MBa1+1t1vOfLH/AxfeNukS730nTcEknIe8U32WiIhUrqTTRrLzkg6hN+rx3v+bi/23mLFkB6DtwP2ggLW/hiyZBnMnXukNs0w6PJFcDLHXqB0REak0yWpUU2DJxeD8T2NMG9MWrwQG79TIPlHAGi7lKf+OiYfZvJ9pMNNJh2kyESRtHRS0RERkJDk8jkYbFk/DLzKOWdH0xQ8DSaPtu0AnBPefAtZwasfCZNsftLrOOzOwYQeh+TShhWxc+sBq21BERA6u0oibpgDfG60x3nfG07rv6H+9OMVkBN9hTVHAOhDmT7Es39QftIKuiZdjaKM5OJe4WJ9ldjtuWEREZDglOyhJnVXWW3OLs7mb+MozmwFtBx4gClgHUvm2Yfvk0B6VnWq8uZ6W8Gj6YnCqzxIRkQNmoM4qchD5n8e4DqYueR5Q24UDTAHrYHhkcshHikFr7nlHhyac6WE6zUGYNHFTfZaIiAybZG5gyoaEBvqiZ3GmLZ6++D4g2WUBtV04wBSwDpYh9VmpWy841wWugwb7iWKhoeqzRERkf0XY4nibTLTewxwX5Lv6twDVduGgUcA62OZPsSw/C9rbk7YOt43/c4/tMM3hB8g7iFwEqs8SEZG9MlBnlYkcnnmxszdyzZPrAAWrEaCANVLKP+y3fyhto9R0Y7iOdOoIssX+WZYQP8LvU0REKlmy+9EYWLyHvPu19aatMG3R00BSwP7WM6qzGgEKWCOtvD6ra9LxgfFtGK4cGLJZHLopIiIyIKmzCm1Ig8VnCsuNpyOe1j0f0HibCqCAVQmG1GeFXZMmeONn0xRcUnwiUX2WiIiUjbcxIc0BZKItHj/HZc0tfG1xFtB2YIVQwKok86dYlt9F/9ideZM+7/FtJh2O09gdEZG6N9B2IRsD3BnHcSfXLF0NqJ9VhVHAqkTlTx+3jB9tA/N1Y8zXaAlHkYkGhnOqPktEpA54BwYarMUayMYLDXZWNPXJJ4B3HJ6SyqCAVcnKn0a6zj8tMGEb1n+OxkBjd0RE6kNEYEIaA3wmWmmM6YivXvQTANrbLWe+qDqrCqWAVemmTLFMof8CCudNuMwb00ljMAHnIaexOyIiNSjZqWgOobeQ8YZ/c7nst/jqsm2A6qyqgAJWtRgyhDOYN+FLHjPLtITHk40h8snFKCIi1WygzirvIPY/i33cxvSlLwODT55LRVPAqjbl24bf/NARYbohGbuTDpvIRKCxOyIi1cjhcTTYMKmzipYa/Kxo2pIHgGTF6sUjHXdpO7BaKGBVoyFtHRrmjT87xrQR2j8ntJCNXPGvVtuGIiKVzhMRJuNtfG+0Dnyn29j9vf7moNoOrEoKWNVsyMDOYO6Ey8G00RycS+yhoLE7IiIVrHy8TdZAVxSFc5jx+GZA24FVTgGrFgweuxPauGG68VzPqHAsfcX+WarPEhGpFAN1VpGH2N1rXdRWmPbUMiD5TmehxttUOQWsWlIetG694JggiK8HM5V0aFWfJSIy4pLxNikbEhp8X7zMxL4tvqb7XuAduxJS3RSwak07losn29KycuqWiee7wLfRGHwCYyCn/lkiIgdVabyN7a+z2ghujjuyp4srXswDqrOqQQpYtWro2J25E67whjaTTp1J3kGk+iwRkYPAATapsyo44Htx5GczY8laQMGqhilg1brB9VlpGzXMMIbrSIeH0ReDU32WiMgBkOwWNAYW7yHvFljn2wrTu5cCqrOqAwpY9aK8f9at558Y2GAWlitpCqBP24YiIsMoabvQEOAz0QoT0xlfs/inQFLGceYU1VnVAQWsejJkblU47/wLPUEnTcFknIe8c+ABo6AlIrI3SnVWxoSkA+iNtnnvb3Jh4Wa+8kwG0HZgnVHAqkdDJq8Hcyd+wRvaTHN4MvliWwedNhQR2VMDbRdyMTj/wzi2ncxY9BoweAdB6oYCVj0rf5r69jljbEPTdQaupSWVpi9KnsYUtEREdsM7MAPjbfrixwyuLZq2ZCHwjodZqS8KWDK4W/C8c08LfKqDwHyWBgtZ1WeJiOxCRGBCGgN8JnrN4Dviqd0/AlRnJYAClpTMn2JZvql/vmE4d/zHPLaT5uB8jd0RESnyJCevk/E2GY+52WFvYuoT2wCNt5F+Clgy2JAiTNs14SqsmWVawmPIxhCprYOI1KWBOquCg9jNjz1tTOteAajtgryDApbsWnlR5i0fPiIMCtd7zHRawgaN3RGROjIw3iYwkI2XGsOs6OrFDwBJsHrxSMdd2g6UwRSwZPfasTC5f9swdcvEc1zoOwiDTxEa1WeJSG3zxTqr5gDfG60DZruNjd/rX+VX2wV5FwpY8t6GDCANusZ/ylvbYZqDc4hUnyUiNSdZoU/qrPIG3xUZO4erF20EFKxkjyhgyZ4r/1K5ZVyDDY+YDmamSYdj6YvBF+uz/Ai/TxGRfTMw3ib2ELn7rGFW4erFy4CkgP1R1VnJnlHAkr03KGiNPy4I7Q3AVcWnPSgNNxURqQ4DdVahxWei3xl8Wzyt++fAO6ZgiOwJBSzZN+1YLp5sS8eRU10TznfGdNBoP44xkFN9lohUOAO4Yp1VUwC90WYPc1y86RZmrMwD2g6UfaaAJftn/hTL8rsoLZkH8yZ+zntmmZbwDPIxFNTWQUQqUlI7mg5tceX9e3EhP5u/eWYNoH5Wst8UsGR4lD/l3XR22qbT1xrMdbSEY1SfJSIVZKDOCg/Z+CET2FnRVYu6AfWzkmGjgCXDa1D/rEknB6GbhTF/SWNQauvgUP8sERkZA+NteqMVBt8ZT+v+KaA6Kxl2Clgy/IZ8UYW3TpjsA9NJU3AhzkPeOfCAUX2WiBxYhsHjbXqiHR5/s6PpJqYt7AFUZyUHhAKWHDhD67PmTvhLD22mJXUiOY3dEZEDLjnR3BRALgbPj2JPJ9MWrwQGr7iLDDMFLDnwyotF75h4mM1zncHPIJ1Ka+yOiBwADo+j0YZYA9n4CeNoi6Yvfhgo1llNdrS3aztQDhgFLDk4hozdYe6EMwJMB6G5gpTV2B0RGS79bRd8b7TaOD87nt59R/+r86dY1VnJwaCAJQfX/CmW5Zv6g1Y4d+LHvaGTpuBcYg95F2E0dkdE9lqyEt4cQibKerjZNXITX1q8BdB2oBx0ClgyMsqLSudPsXbz2quAWaYlPJq+GGLVZ4nIHkkOzTSFlshB5H4ex6aNaxb/DlDbBRkxClgyssrrs26bNDZ0/npvmEo6bFB9loi8i4HxNoGBvvhpjJ8VT+1eALxjSL3IwaaAJSPvnWN3Puis6SA0lxNYjd0RkaEibLHOKhOtBz/bbdz5Pdpf1HgbqRgKWFI55k+xLD+L0sme4LaJf+o9HaY5PJvIQcEloy0UtETqVbKinQyWj4z386IwdSNfeXw9oGAlFUUBSypP+Zdk++QmOzY33cBM0uERZGNwXtuGIvVlYLyN81Bwv7bOzypM734WSArY33pGdVZSURSwpHKV12fNPe+4gKANY75UfHrV2B2R2pf0s0rZkJTF9xWWG2/b4mmL7gY03kYqmgKWVLYh/bPCrkkTvHGdNIWXAarPEqld/XVWZKItHm50zY1dfHFhFtB2oFQ8BSypDkPrs+aN/7zHzjLN4Wnki20dtJolUguSWsvmwNIXg/F3xFlm89Xu1YD6WUnVUMCS6lL+1Dp38ihL9msG83UIK/YaAAAKvklEQVRGhaPJRANDXf0Iv08R2UvegUnqrABy8cPGu7Zo2pIngHc8ZIlUOgUsqU7lT7FzJ44LDLOw5gs0aOyOSNXxRIQmpDHAZ6KVxpmOePqinwCqs5KqpYAl1WvIF2/YNfESb30HTeGFOA85jd0RqWilFefk4EqPx9/sGoM5/NWTPcDggy4iVUYBS6rfkOGtwdyJV3rDLNMSnkhW9VkiFSi5XpsDS86Bcz+Jnetk+tKXAY23kZqggCW1o3zbsOv8w6y1Mw1mOs1hmj6N3RGpAEnbhYbieJts9IRxviOavuQhoBisJjvVWUktUMCS2jKkrQO3TfpAgG8jMJ8mtJCNXPFjr21DkYMrIiiOt+mN1oC/0U3t/m7/q2q7IDVGAUtq0/wpluWb+oNW0DX+E1jTSVP4QWKvsTsiB0/5eJushy4X5OfwlWc2A6qzkpqlgCW1bdDYnbMa7NjWL4O5waTDo/vH7qitg8iBMDDeJnZQ8PfExrUxdcnzQBKsHlWdldQuBSypD+VB69sfPjpsKFzvjZlKOgzJqD5LZBglY6xSNiS0+Ez0rLG0xVcvvg9IVpdBbRek5ilgSf1ox/K+D9lSIXxq3vgPOm86aQg+gTUauyOyPwxJ24X+8TaF9d5woyts/i4zVuYB1VlJXVHAkvozdOxO14QrvDVtpjk4k0KxPstoNUtkLyTXTHMImYID893YMJurF68DVGcldUkBS+pX+dP0v01ssk1+hsHMJB0eRl+xPsuqPkvkXQzUWXkPebfAejOrMG3R04D6WUldU8ASGdQ/a9LxgWUW+C/RHEBfnNSTqD5LZKiI0IakDL4vXmGcb4und88HVGclggKWSGLo2J254y/0xnbQGFwCFOuzPGBUnyX1q1RnZUxIOoDeaJuHOS7I38JXnskAqrMSKVLAEik3tD7rtkmf9961mXRqHLkYIq/6LKlXSe+45sCSjcFzZxzHnVyzdDUweCVYRBSwRHap/Cn8lvGjbWiuM5hrSYej1NZB6ot3YJLxNsZALn7MODMrmr7oMUDjbUR2QwFL5N2UB62u808LTNhGyOdIWciqrYPUvGS8TWOAz0SvGXxHPLX7R0DS9uTMKaqzEtkNBSyR99LebmFh/9idsGv8Zd7aDpqCScQe8i7CaOyO1BBfbLuQjLfp8d7f4sLCHL7yzA5A24Eie0ABS2RPDSnetbdN/DKeG0xLeDzZGGKvbUOpdslqVFNgKTiI3c/i2HRwzeIVgNouiOwFBSyRvVXeNPGbHzrCtqSuM97MoDlsok/1WVKVBsbbBAayUbfxvi2atuQBQHVWIvtAAUtkX7RjuXiyLQWt1NzzznGEbaTMnxJYjd2RapKMt2kO8L3xWjw3uiMXfZcriqtUarsgsk8UsET2x5CGisHcCZd7YzpNc3gOkUvG7qD6LKlIyUprOoRMIW+gK4pSNzLj8c2AgpXIflLAEhkOg9o6jGuwwZFXATeYlnAs2eLYHaOxO1IRBsbbxB4id4+1cVvhqqXPA0kB+1vPqM5KZD8pYIkMp/KgddvEYwLPDXh/FS0pS1+UnM5SfZaMjKTOKrQhDRbfGy0zho546uJ7gHdMMxCR/aOAJTLchtZn3XrBuS6IO0kFH8ca1WfJwWUAV+xn1RTge6PN4Ge7ePM8ZqzMA9oOFDkAFLBEDpShY3fmTrjCG9NhmoMzKHiInFaz5EBLPmPNIfRFDvz3Yh/PZtpTawH1sxI5gBSwRA608tWB2z+UtnHDDOOZyahwDJkYvOqzZNgN1FkBZOMHrHFthalLugH1sxI5CBSwRA6W8tWCW88/MbDBLAxX0hxAX5zUx2hFS/aXJyJlQlIWn4lXGOvb4qu75wPvOPUqIgeOApbIwTSkkDicN/Ei7+mkKbgIXxy7g7dgVJ8le84wMN6mOYRMtMPjb3K+6WamLewBVGclcpApYImMhPlTLMvvorRFE8yb8AWPaTPp8GRyGrsje6VYZxVQbAnyw9jEnUx96jVg8OQBETloFLBERlL5tuG3zxljG9PXGfwM0uEoMtHAqoTIO3iHN45GG2IM5OPHTOTbomu6FwIabyMywhSwREZaOxYm2/7tm7kTzggMbQT2szTYUn0WqK2DlHgiQhPSGOAz0Wrj6IynL76z//X5U6zqrERGlgKWSKVob7ewsD9ohXMnfczjO2gOJhB7jd0RGDzeJuPhZpfL3sRXl20D1HZBpIIoYIlUmvJi5HasHTvxKgzXm3R4HH3F+ixtG9abZDWqKbAUHET+7hg/i2ndKwDVWYlUIAUskUo1aOzOpLGhdzM9ZjrpsIFMBGjsTh1I2nekbEhooC9eajxt0bTFCwC1XRCpYApYIpWsHcv7PmRL2z6p2yae4xwdpMynCKzG7tSqUtsFWxxv0xetxTHHbWr87sDqptouiFQyBSyRajB07M68iX/q8R0mnTqbvCuN3VF9Vm0oq7OKIuP9vMja2Vy9aCOgYCVSJRSwRKrJoPqsyU32yOxVxpjrSYdjyRbrs6zG7lSpgfE2zkMhvtd621aYtmgZkBSwv/WMxtuIVAkFLJFqVF7UPPe84wIT3gBcVRy7A6rPqiZJnVVok/E2fdHzxriO+OolPwdUZyVSpRSwRKrVkP5ZqXnjJzhsBw32Yxij+qzqkNRZNQfQW9jsvZnj0o1dfHFhFtB2oEgVU8ASqXZDVjiC28Z/1jvbZtLBGcUj/VrNqjwD4236Yofnjtib2UxftAZQPyuRGqCAJVIrylc75lwwyrb6aw3+OlrC0YPG7qg+awR5ByapswLIxQ+Z2LdF13QvAorjbRaqzkqkBihgidSa8vqsWyadHARuFtb8JU399VkObRuOhGS8TUOA7y28bKxti69e9DMApkyxTEF1ViI1RAFLpBYNHbtz24TJ3ptOGoML8R5yLsKorcNB4UlOdjaHkIl6PNzkInczM5bsANSFXaRGKWCJ1LIhQ3+DuROv9IZZJh2eSK7Y1kH1WQdKslLYHEDOgfM/il08m+lLXwZUwC5S4xSwROpBedH0vAvHWOKZxvsZpFNp+srqs2Q4JG0XGmyYnOaMnjDGtkVXL3oYKNZZTXalprEiUpsUsETqSfmqSdd5ZwY27CAwnyZlIau2DvvNF+usGgN8Jlpj8J3x1O47+l/XqpVI3VDAEqk3Q9o6hHMnftwbOmgOzifyUNDYnX1QPt4m6+FmRzCHqU9sAxSsROqQApZIvRo8die0Y7NXgbnepMNjyMbgVJ+1B5JVv6bAUnAQu5/HLpjF9CeXA+pnJVLHFLBE6l150Pr38WPDvLnBGzOVdBiSiUBjd3YlqbNK2ZDQQF/0LM60xdMX3wdovI2IKGCJCMnYnfd9yJZWW1K3TTzHOd9JQ3A5VmN3+hmKbRdMSFOAz0TrwN/oNjZ9t3w1UNuBIqKAJSID5k+xLD+L0gm34Lbxf+69bTPp8GzyLqnPqt/+WeV1VhHwvdhHnUx7aj2gflYiMogCloi8U/kqzA8mN9lMbroxXE9LeBh9dVeflazeNQY2adIa/9oaP6swdcmzgMbbiMguKWCJyO6VF2l3TTo+sP4G4MvFIcVQ+/VZEaENSRl8X/w7401HPG3R3YDqrETkXSlgici7a8fC5PKxO5O8M500BZeAh5xz4AFTG9uGpTorU9wO7I22eMNNro+b+driLKA6KxF5T/8f1vmLRh5y33EAAAAASUVORK5CYII=;" vertex="1" parent="1">
          <mxGeometry x="-551" y="204" width="43.2" height="36" as="geometry" />
        </mxCell>
        <mxCell id="SRiD97IWDXF6vMLHgxWp-9" value="" style="endArrow=classic;html=1;rounded=0;exitX=1;exitY=0.5;exitDx=0;exitDy=0;entryX=0;entryY=0.5;entryDx=0;entryDy=0;" edge="1" parent="1" source="SRiD97IWDXF6vMLHgxWp-4" target="SRiD97IWDXF6vMLHgxWp-12">
          <mxGeometry relative="1" as="geometry">
            <mxPoint x="-435" y="269.66" as="sourcePoint" />
            <mxPoint x="-380" y="244.9999999999999" as="targetPoint" />
            <Array as="points">
              <mxPoint x="-440" y="270" />
              <mxPoint x="-440" y="240" />
              <mxPoint x="-320" y="240" />
              <mxPoint x="-320" y="190" />
            </Array>
          </mxGeometry>
        </mxCell>
        <object label="Ingress 1" id="SRiD97IWDXF6vMLHgxWp-10">
          <mxCell style="edgeLabel;resizable=0;html=1;;align=center;verticalAlign=middle;" connectable="0" vertex="1" parent="SRiD97IWDXF6vMLHgxWp-9">
            <mxGeometry relative="1" as="geometry">
              <mxPoint x="-29" as="offset" />
            </mxGeometry>
          </mxCell>
        </object>
        <mxCell id="SRiD97IWDXF6vMLHgxWp-12" value="" style="shape=image;verticalLabelPosition=bottom;labelBackgroundColor=default;verticalAlign=top;aspect=fixed;imageAspect=0;image=data:image/svg+xml,PHN2ZyB4bWxucz0iaHR0cDovL3d3dy53My5vcmcvMjAwMC9zdmciIHZlcnNpb249IjEuMSIgdmlld0JveD0iMCAwIDEwMjQgMTAyNCIgc3R5bGU9IndpZHRoOiAxZW07IGhlaWdodDogMWVtO3ZlcnRpY2FsLWFsaWduOiBtaWRkbGU7ZmlsbDogY3VycmVudENvbG9yO292ZXJmbG93OiBoaWRkZW47IiBjbGFzcz0ic3ZnLWljb24iPjxwYXRoIGZpbGw9IiMyMUEzREQiIGQ9Ik0xODYuMTgyIDYwNS4wOWg2NTEuNjM2VjQxOC45MUgxODYuMTgydjE4Ni4xOHogbTAgNDYuNTQ2djE2Mi45MWEyMy4yNzMgMjMuMjczIDAgMCAwIDIzLjI3MyAyMy4yNzJoNjA1LjA5YTIzLjI3MyAyMy4yNzMgMCAwIDAgMjMuMjczLTIzLjI3M1Y2NTEuNjM2SDE4Ni4xODJ6IG0wLTI3OS4yNzJoNjUxLjYzNnYtMTYyLjkxYTIzLjI3MyAyMy4yNzMgMCAwIDAtMjMuMjczLTIzLjI3MmgtNjA1LjA5YTIzLjI3MyAyMy4yNzMgMCAwIDAtMjMuMjczIDIzLjI3M3YxNjIuOTA5eiBtNjUxLjYzNi0yMzIuNzI4YTQ2LjU0NSA0Ni41NDUgMCAwIDEgNDYuNTQ2IDQ2LjU0NnY2NTEuNjM2YTQ2LjU0NSA0Ni41NDUgMCAwIDEtNDYuNTQ2IDQ2LjU0NkgxODYuMTgyYTQ2LjU0NSA0Ni41NDUgMCAwIDEtNDYuNTQ2LTQ2LjU0NlYxODYuMTgyYTQ2LjU0NSA0Ni41NDUgMCAwIDEgNDYuNTQ2LTQ2LjU0Nmg2NTEuNjM2eiBtLTU1OC41NDUgMTYyLjkxYTIzLjI3MyAyMy4yNzMgMCAxIDEgMC00Ni41NDYgMjMuMjczIDIzLjI3MyAwIDAgMSAwIDQ2LjU0NXogbTY5LjgxOCAwYTIzLjI3MyAyMy4yNzMgMCAxIDEgMC00Ni41NDYgMjMuMjczIDIzLjI3MyAwIDAgMSAwIDQ2LjU0NXogbTY5LjgxOCAwYTIzLjI3MyAyMy4yNzMgMCAxIDEgMC00Ni41NDYgMjMuMjczIDIzLjI3MyAwIDAgMSAwIDQ2LjU0NXpNNTU4LjU0NSAyNTZoMTg2LjE4MmEyMy4yNzMgMjMuMjczIDAgMCAxIDAgNDYuNTQ1SDU1OC41NDVhMjMuMjczIDIzLjI3MyAwIDAgMSAwLTQ2LjU0NXpNMjc5LjI3MyA1MzUuMjczYTIzLjI3MyAyMy4yNzMgMCAxIDEgMC00Ni41NDYgMjMuMjczIDIzLjI3MyAwIDAgMSAwIDQ2LjU0NnogbTY5LjgxOCAwYTIzLjI3MyAyMy4yNzMgMCAxIDEgMC00Ni41NDYgMjMuMjczIDIzLjI3MyAwIDAgMSAwIDQ2LjU0NnogbTY5LjgxOCAwYTIzLjI3MyAyMy4yNzMgMCAxIDEgMC00Ni41NDYgMjMuMjczIDIzLjI3MyAwIDAgMSAwIDQ2LjU0NnogbTEzOS42MzYtNDYuNTQ2aDE4Ni4xODJhMjMuMjczIDIzLjI3MyAwIDAgMSAwIDQ2LjU0Nkg1NTguNTQ1YTIzLjI3MyAyMy4yNzMgMCAwIDEgMC00Ni41NDZ6TTI3OS4yNzMgNzY4YTIzLjI3MyAyMy4yNzMgMCAxIDEgMC00Ni41NDUgMjMuMjczIDIzLjI3MyAwIDAgMSAwIDQ2LjU0NXogbTY5LjgxOCAwYTIzLjI3MyAyMy4yNzMgMCAxIDEgMC00Ni41NDUgMjMuMjczIDIzLjI3MyAwIDAgMSAwIDQ2LjU0NXogbTY5LjgxOCAwYTIzLjI3MyAyMy4yNzMgMCAxIDEgMC00Ni41NDUgMjMuMjczIDIzLjI3MyAwIDAgMSAwIDQ2LjU0NXogbTEzOS42MzYtNDYuNTQ1aDE4Ni4xODJhMjMuMjczIDIzLjI3MyAwIDAgMSAwIDQ2LjU0NUg1NTguNTQ1YTIzLjI3MyAyMy4yNzMgMCAwIDEgMC00Ni41NDV6Ii8+PC9zdmc+;" vertex="1" parent="1">
          <mxGeometry x="-290" y="160" width="60" height="60" as="geometry" />
        </mxCell>
        <mxCell id="SRiD97IWDXF6vMLHgxWp-14" value="" style="shape=image;verticalLabelPosition=bottom;labelBackgroundColor=default;verticalAlign=top;aspect=fixed;imageAspect=0;image=data:image/svg+xml,PHN2ZyB4bWxucz0iaHR0cDovL3d3dy53My5vcmcvMjAwMC9zdmciIHZlcnNpb249IjEuMSIgdmlld0JveD0iMCAwIDEwMjQgMTAyNCIgc3R5bGU9IndpZHRoOiAxZW07IGhlaWdodDogMWVtO3ZlcnRpY2FsLWFsaWduOiBtaWRkbGU7ZmlsbDogY3VycmVudENvbG9yO292ZXJmbG93OiBoaWRkZW47IiBjbGFzcz0ic3ZnLWljb24iPjxwYXRoIGZpbGw9IiMyMUEzREQiIGQ9Ik0xODYuMTgyIDYwNS4wOWg2NTEuNjM2VjQxOC45MUgxODYuMTgydjE4Ni4xOHogbTAgNDYuNTQ2djE2Mi45MWEyMy4yNzMgMjMuMjczIDAgMCAwIDIzLjI3MyAyMy4yNzJoNjA1LjA5YTIzLjI3MyAyMy4yNzMgMCAwIDAgMjMuMjczLTIzLjI3M1Y2NTEuNjM2SDE4Ni4xODJ6IG0wLTI3OS4yNzJoNjUxLjYzNnYtMTYyLjkxYTIzLjI3MyAyMy4yNzMgMCAwIDAtMjMuMjczLTIzLjI3MmgtNjA1LjA5YTIzLjI3MyAyMy4yNzMgMCAwIDAtMjMuMjczIDIzLjI3M3YxNjIuOTA5eiBtNjUxLjYzNi0yMzIuNzI4YTQ2LjU0NSA0Ni41NDUgMCAwIDEgNDYuNTQ2IDQ2LjU0NnY2NTEuNjM2YTQ2LjU0NSA0Ni41NDUgMCAwIDEtNDYuNTQ2IDQ2LjU0NkgxODYuMTgyYTQ2LjU0NSA0Ni41NDUgMCAwIDEtNDYuNTQ2LTQ2LjU0NlYxODYuMTgyYTQ2LjU0NSA0Ni41NDUgMCAwIDEgNDYuNTQ2LTQ2LjU0Nmg2NTEuNjM2eiBtLTU1OC41NDUgMTYyLjkxYTIzLjI3MyAyMy4yNzMgMCAxIDEgMC00Ni41NDYgMjMuMjczIDIzLjI3MyAwIDAgMSAwIDQ2LjU0NXogbTY5LjgxOCAwYTIzLjI3MyAyMy4yNzMgMCAxIDEgMC00Ni41NDYgMjMuMjczIDIzLjI3MyAwIDAgMSAwIDQ2LjU0NXogbTY5LjgxOCAwYTIzLjI3MyAyMy4yNzMgMCAxIDEgMC00Ni41NDYgMjMuMjczIDIzLjI3MyAwIDAgMSAwIDQ2LjU0NXpNNTU4LjU0NSAyNTZoMTg2LjE4MmEyMy4yNzMgMjMuMjczIDAgMCAxIDAgNDYuNTQ1SDU1OC41NDVhMjMuMjczIDIzLjI3MyAwIDAgMSAwLTQ2LjU0NXpNMjc5LjI3MyA1MzUuMjczYTIzLjI3MyAyMy4yNzMgMCAxIDEgMC00Ni41NDYgMjMuMjczIDIzLjI3MyAwIDAgMSAwIDQ2LjU0NnogbTY5LjgxOCAwYTIzLjI3MyAyMy4yNzMgMCAxIDEgMC00Ni41NDYgMjMuMjczIDIzLjI3MyAwIDAgMSAwIDQ2LjU0NnogbTY5LjgxOCAwYTIzLjI3MyAyMy4yNzMgMCAxIDEgMC00Ni41NDYgMjMuMjczIDIzLjI3MyAwIDAgMSAwIDQ2LjU0NnogbTEzOS42MzYtNDYuNTQ2aDE4Ni4xODJhMjMuMjczIDIzLjI3MyAwIDAgMSAwIDQ2LjU0Nkg1NTguNTQ1YTIzLjI3MyAyMy4yNzMgMCAwIDEgMC00Ni41NDZ6TTI3OS4yNzMgNzY4YTIzLjI3MyAyMy4yNzMgMCAxIDEgMC00Ni41NDUgMjMuMjczIDIzLjI3MyAwIDAgMSAwIDQ2LjU0NXogbTY5LjgxOCAwYTIzLjI3MyAyMy4yNzMgMCAxIDEgMC00Ni41NDUgMjMuMjczIDIzLjI3MyAwIDAgMSAwIDQ2LjU0NXogbTY5LjgxOCAwYTIzLjI3MyAyMy4yNzMgMCAxIDEgMC00Ni41NDUgMjMuMjczIDIzLjI3MyAwIDAgMSAwIDQ2LjU0NXogbTEzOS42MzYtNDYuNTQ1aDE4Ni4xODJhMjMuMjczIDIzLjI3MyAwIDAgMSAwIDQ2LjU0NUg1NTguNTQ1YTIzLjI3MyAyMy4yNzMgMCAwIDEgMC00Ni41NDV6Ii8+PC9zdmc+;" vertex="1" parent="1">
          <mxGeometry x="-290" y="240" width="60" height="60" as="geometry" />
        </mxCell>
        <mxCell id="SRiD97IWDXF6vMLHgxWp-15" value="" style="endArrow=classic;html=1;rounded=0;exitX=1;exitY=0.5;exitDx=0;exitDy=0;entryX=0;entryY=0.5;entryDx=0;entryDy=0;" edge="1" parent="1" source="SRiD97IWDXF6vMLHgxWp-4" target="SRiD97IWDXF6vMLHgxWp-14">
          <mxGeometry relative="1" as="geometry">
            <mxPoint x="-443" y="280" as="sourcePoint" />
            <mxPoint x="-280" y="200" as="targetPoint" />
            <Array as="points">
              <mxPoint x="-420" y="270" />
              <mxPoint x="-370" y="270" />
              <mxPoint x="-310" y="270" />
            </Array>
          </mxGeometry>
        </mxCell>
        <mxCell id="SRiD97IWDXF6vMLHgxWp-16" value="Ingress 2" style="edgeLabel;resizable=0;html=1;;align=center;verticalAlign=middle;" connectable="0" vertex="1" parent="SRiD97IWDXF6vMLHgxWp-15">
          <mxGeometry relative="1" as="geometry">
            <mxPoint x="-19" as="offset" />
          </mxGeometry>
        </mxCell>
        <mxCell id="SRiD97IWDXF6vMLHgxWp-17" value="" style="shape=image;verticalLabelPosition=bottom;labelBackgroundColor=default;verticalAlign=top;aspect=fixed;imageAspect=0;image=data:image/svg+xml,PHN2ZyB4bWxucz0iaHR0cDovL3d3dy53My5vcmcvMjAwMC9zdmciIHZlcnNpb249IjEuMSIgdmlld0JveD0iMCAwIDEwMjQgMTAyNCIgc3R5bGU9IndpZHRoOiAxZW07IGhlaWdodDogMWVtO3ZlcnRpY2FsLWFsaWduOiBtaWRkbGU7ZmlsbDogY3VycmVudENvbG9yO292ZXJmbG93OiBoaWRkZW47IiBjbGFzcz0ic3ZnLWljb24iPjxwYXRoIGZpbGw9IiMyMUEzREQiIGQ9Ik0xODYuMTgyIDYwNS4wOWg2NTEuNjM2VjQxOC45MUgxODYuMTgydjE4Ni4xOHogbTAgNDYuNTQ2djE2Mi45MWEyMy4yNzMgMjMuMjczIDAgMCAwIDIzLjI3MyAyMy4yNzJoNjA1LjA5YTIzLjI3MyAyMy4yNzMgMCAwIDAgMjMuMjczLTIzLjI3M1Y2NTEuNjM2SDE4Ni4xODJ6IG0wLTI3OS4yNzJoNjUxLjYzNnYtMTYyLjkxYTIzLjI3MyAyMy4yNzMgMCAwIDAtMjMuMjczLTIzLjI3MmgtNjA1LjA5YTIzLjI3MyAyMy4yNzMgMCAwIDAtMjMuMjczIDIzLjI3M3YxNjIuOTA5eiBtNjUxLjYzNi0yMzIuNzI4YTQ2LjU0NSA0Ni41NDUgMCAwIDEgNDYuNTQ2IDQ2LjU0NnY2NTEuNjM2YTQ2LjU0NSA0Ni41NDUgMCAwIDEtNDYuNTQ2IDQ2LjU0NkgxODYuMTgyYTQ2LjU0NSA0Ni41NDUgMCAwIDEtNDYuNTQ2LTQ2LjU0NlYxODYuMTgyYTQ2LjU0NSA0Ni41NDUgMCAwIDEgNDYuNTQ2LTQ2LjU0Nmg2NTEuNjM2eiBtLTU1OC41NDUgMTYyLjkxYTIzLjI3MyAyMy4yNzMgMCAxIDEgMC00Ni41NDYgMjMuMjczIDIzLjI3MyAwIDAgMSAwIDQ2LjU0NXogbTY5LjgxOCAwYTIzLjI3MyAyMy4yNzMgMCAxIDEgMC00Ni41NDYgMjMuMjczIDIzLjI3MyAwIDAgMSAwIDQ2LjU0NXogbTY5LjgxOCAwYTIzLjI3MyAyMy4yNzMgMCAxIDEgMC00Ni41NDYgMjMuMjczIDIzLjI3MyAwIDAgMSAwIDQ2LjU0NXpNNTU4LjU0NSAyNTZoMTg2LjE4MmEyMy4yNzMgMjMuMjczIDAgMCAxIDAgNDYuNTQ1SDU1OC41NDVhMjMuMjczIDIzLjI3MyAwIDAgMSAwLTQ2LjU0NXpNMjc5LjI3MyA1MzUuMjczYTIzLjI3MyAyMy4yNzMgMCAxIDEgMC00Ni41NDYgMjMuMjczIDIzLjI3MyAwIDAgMSAwIDQ2LjU0NnogbTY5LjgxOCAwYTIzLjI3MyAyMy4yNzMgMCAxIDEgMC00Ni41NDYgMjMuMjczIDIzLjI3MyAwIDAgMSAwIDQ2LjU0NnogbTY5LjgxOCAwYTIzLjI3MyAyMy4yNzMgMCAxIDEgMC00Ni41NDYgMjMuMjczIDIzLjI3MyAwIDAgMSAwIDQ2LjU0NnogbTEzOS42MzYtNDYuNTQ2aDE4Ni4xODJhMjMuMjczIDIzLjI3MyAwIDAgMSAwIDQ2LjU0Nkg1NTguNTQ1YTIzLjI3MyAyMy4yNzMgMCAwIDEgMC00Ni41NDZ6TTI3OS4yNzMgNzY4YTIzLjI3MyAyMy4yNzMgMCAxIDEgMC00Ni41NDUgMjMuMjczIDIzLjI3MyAwIDAgMSAwIDQ2LjU0NXogbTY5LjgxOCAwYTIzLjI3MyAyMy4yNzMgMCAxIDEgMC00Ni41NDUgMjMuMjczIDIzLjI3MyAwIDAgMSAwIDQ2LjU0NXogbTY5LjgxOCAwYTIzLjI3MyAyMy4yNzMgMCAxIDEgMC00Ni41NDUgMjMuMjczIDIzLjI3MyAwIDAgMSAwIDQ2LjU0NXogbTEzOS42MzYtNDYuNTQ1aDE4Ni4xODJhMjMuMjczIDIzLjI3MyAwIDAgMSAwIDQ2LjU0NUg1NTguNTQ1YTIzLjI3MyAyMy4yNzMgMCAwIDEgMC00Ni41NDV6Ii8+PC9zdmc+;" vertex="1" parent="1">
          <mxGeometry x="-290" y="320" width="60" height="60" as="geometry" />
        </mxCell>
        <mxCell id="SRiD97IWDXF6vMLHgxWp-19" value="" style="endArrow=classic;html=1;rounded=0;exitX=1;exitY=0.5;exitDx=0;exitDy=0;entryX=0;entryY=0.5;entryDx=0;entryDy=0;" edge="1" parent="1" source="SRiD97IWDXF6vMLHgxWp-4" target="SRiD97IWDXF6vMLHgxWp-17">
          <mxGeometry relative="1" as="geometry">
            <mxPoint x="-443" y="280" as="sourcePoint" />
            <mxPoint x="-280" y="280" as="targetPoint" />
            <Array as="points">
              <mxPoint x="-440" y="270" />
              <mxPoint x="-440" y="300" />
              <mxPoint x="-410" y="300" />
              <mxPoint x="-360" y="300" />
              <mxPoint x="-320" y="300" />
              <mxPoint x="-320" y="350" />
            </Array>
          </mxGeometry>
        </mxCell>
        <mxCell id="SRiD97IWDXF6vMLHgxWp-20" value="Ingess 3" style="edgeLabel;resizable=0;html=1;;align=center;verticalAlign=middle;" connectable="0" vertex="1" parent="SRiD97IWDXF6vMLHgxWp-19">
          <mxGeometry relative="1" as="geometry">
            <mxPoint x="-29" as="offset" />
          </mxGeometry>
        </mxCell>
        <object label="Service 1" id="SRiD97IWDXF6vMLHgxWp-27">
          <mxCell style="edgeLabel;resizable=0;html=1;;align=center;verticalAlign=middle;" connectable="0" vertex="1" parent="1">
            <mxGeometry x="-258.9957142857142" y="158" as="geometry" />
          </mxCell>
        </object>
        <object label="Service 2" id="SRiD97IWDXF6vMLHgxWp-28">
          <mxCell style="edgeLabel;resizable=0;html=1;;align=center;verticalAlign=middle;" connectable="0" vertex="1" parent="1">
            <mxGeometry x="-259.9957142857142" y="239" as="geometry" />
          </mxCell>
        </object>
        <object label="Service 3" id="SRiD97IWDXF6vMLHgxWp-29">
          <mxCell style="edgeLabel;resizable=0;html=1;;align=center;verticalAlign=middle;" connectable="0" vertex="1" parent="1">
            <mxGeometry x="-259.9957142857142" y="320" as="geometry" />
          </mxCell>
        </object>
        <mxCell id="SRiD97IWDXF6vMLHgxWp-31" value="" style="shape=image;verticalLabelPosition=bottom;labelBackgroundColor=default;verticalAlign=top;aspect=fixed;imageAspect=0;image=data:image/png,iVBORw0KGgoAAAANSUhEUgAAAg4AAAIACAMAAADdbxR7AAAABGdBTUEAALGPC/xhBQAAAAFzUkdCAK7OHOkAAAMAUExURUdwTP////z8/P////////z8/P////39/fz8/Pz8/Pz8/P////z8/P////39/fz8/P7+/v////////z8/P////39/f////////////z8/P////////7+/v7+/v////z8/P////z8/P////////////////////////z8/P39/f////7+/vz8/P39/fz8/Pz8/Pz8/P////////////////////z8/Pz8/P39/f////////39/f////39/fz8/P39/fz8/P////39/f////////////////39/f39/f////////////z8/P39/f////39/f////////////39/f////////39/f39/f39/f39/f////////////////39/fz8/P39/fz8/Pz8/Pz8/P////////z8/P39/fz8/P////z8/P///////zJt5v///8PU+P7+/+7z/TNu5v3+/z125zhx5zpz50l+6fn6/tnk+jRu5jRv5lGD6ujv/OLq+/f5/j936PD0/d3n+6fB9Dx05/P2/vz9/zZw5vX4/kR66Pv8//39/3ae7nqh77/S95Ky8qnC9ebu/GCO7E2A6YKm8LvP9zVv5rnN9o6u8ePr/Pr8/sza+Yaq8Ed86eTs/E+C6jhy59He+WSQ7LHH9Zu384Sn8Pn7/out8UV76NPg+jdw5/L2/bfM9pa18qC784Cl8NDd+Y+w8WmV7e3y/WiT7X6j71WG6rTK9sHT90t/6cTV+GuW7XKa7liI62+Z7VOE6oqs8Ymr8c7c+WWR7L7R922X7cjY+K/G9V2M66O99EN56F+N65Sz8unw/K7F9XKb7vT3/qS+9FyL65+686vD9djj+lqK60F46FmJ62KP7Nzm++rw/ODp+9Th+qzE9crZ+Zy585Wz8nyi77bL9snZ+Hif76W/9Jm288XW+IWo8MLT+GaS7LPJ9pi28nSc7nmf71aH6p2581eH69Tg+kJ46MfX+E6B6d7o+3Wd7szb+VuK69rl+qa/9KG89NXh+nCZ7rMhvikAAABtdFJOUwAB+iQC7wSY/P75DPIKzv2JEQjnVLIOBnbpGRWBoT32SvVAfl8oNmLEuSGs38HUyuEvHGhqQ9rRkxMslnm87bbHMp4Jc1BIjadlNBbYvkaFHyp7nFtwpJu0qVhNAzmv247d5c1tVuOQ1n3L8B6LPMJIAAAgAElEQVR42uyde1QXxxXHfaBVY3y/aqJJxUeIGDWibQzBV6KxWpvYHmtzWmOO9TSm2ZWHPEQQOaAIioiKIioCJqJE4xuiSBCEghhEpL4Q6+uIRtETaxrMq2lPTpPwm53dnf3tzP7m7m++f/PbM/fuZXf2870z06yZu6tny5Fv+PTynd7L5/cjB3RpJuS26jHNs7t3R7mJ2np395z2mMiM26n5wCeHtpGxajN23nCRIHfS8E7DZE1N9XxNZMk91GXQO7K+Os6cJlJlf3X29JMJ1WGuh8iXrdW7U3vZgKb2by1yZlu99uJTskEN8xEfn/bUgD5tZCfUtZf48rSfxg3uKDspP8/OIn+2Ut8xshm17zRF5NA2mjhENqunfvWuyKMd1LzbHJmGWoxvKZIJXa37vy3TUsc/CngNWj1HeMs01bb7QJFUqHqsV1eZul7qJxILUZ2fJKLR/pGbblTfS0q6Vb9rbwBRQYx9WiQXmohodHRJ6sVYqYm2VMXUCTPDdnqWgEZXVmctkjDKvVopzAw7iYRG7zwaLqlp/c2zwsywi0ho9JWDkrbyiwnMjJeFmcG7+nrpTx4/Kpf0dfGIMDOga+IzurdwxYbPJDIVpAQJMwOuPAhodFrZVolcEdsSCMyM50Xq+RMJjY6KCZWMKTQmSpgZ8NTFR59GL31QIRlXxYOluldu8+pocQv4EQmNDvhkgeScFiQdEGYGHJHQ6MjsEMl5ZRQlCzMDhkho9MZ1OZI5xe2pE2YG/3r2xXa6d6k2cZFkXuErCVBlh27CzHCdyGh0oERJJKhSmBmu0rjBbc3TaGMiQZXCzHCFiGj0SYm2SFClMDOs1tMkNPpfEguRoEphZlgo+jTaKKoME2YGL2rdfyoDGm0QVdYsFWYGD+riM0yfRtdUSKxFgiqFmcEDjb62QLJCJKhSmBlMaXQrxjSaPqoUZgYrGj3JChrNAFUKMwMyjTao0r3CzOCRRj+kR6ONKeu2MDNsTqON6QIBqhRmBmgaTR9VegszwwoaHcSIRtNHlcLMMEmjO+imOIEhjaaPKoWZAZpGG0SVnwQIM8PeNNogqjwWKcwMFjT65/rL8S2i0fRRpTAzqNPoSgtpNH1UKcwMujT6/RyJYxGgSmFmkNHon3FKo+mjSmFm6On1GRzTaPqo8hlhZmjo17P0afSmgxIUkaBKYWaoqR8EGk0fVQozAzSNNqZ4AlTpPaKnuP9waTR9VCnMDIM0OowrGk0fVQoz4wca/Rd9Gn2aOxpNH1UKMwM0jTaKKhcKM0NPL4Cm0fRRZYvfubGZ0XvSL6DTaOqo0m3NDJvQaOqo0i3NjNH2odEGUWVDgjAz7E2j6aNKdzIzCGi0fOekZF/F15wWZoa9aTR9VOkGZobHXAIavW2rZH+FEKBKm5sZrQfZm0bTR5VdX35c0Gh3EQmq9JtnSzPDXWg0fVRpQzPDrWg0dVRpMzOj92w3o9HGdE4fVdrIzHBLGk0dVdrEzHBbGk0dVdrAzCCi0fslITJUCdvM6PcSAY1eIyrhB1R5LcDGZoag0cZRZXakPc0Mj7m/hESjY+OD4aBKcGZG60GjANHok9sqZdm/LiYXDKoEZWZMIKLR8ZwUw+Efjyzxb1gCBlWCMTN6+IKi0flNV0mlR8BBlSDMDGg0+ugyh6FdOgwIVbb/LedmBjganYueqXyZHzpa2LAMtJnR8g/gaHSmYoBFHI3usD6qbMermQGRRu9XDvFSHDBUyaWZMRAkjb6BGWUpOFTZdhZnZsafvWDSaNwBRjEQUaVXX36KYZwXAY0u4JAJL8EN9Uv+xhm3brG+uzWOj2KYMr4j1N7oCNxg63gcKQGqbNuHh8/OQa3g0GjFZyZuuOmcDlYfVbaa7HLQ4AWHRhOWQzK3w9VHlV69XVoN0/R4dPTuJZIkysEyVOnnynYIT52Py8pUvnujC7GgjO8h66DKtp7NXbWM5lXovdGhuGGncD7ow6u1UeVg1xyx1GMI+N7oONyj9yr3w9ZBlUN6uMK6nKM1pMsweqM3YoaeCGDcC65FayR/zguWV0PnDnbojd6AGfwFECPXRJUdrO6EeHysLXqj38fw0wwgY8/RQJVjrW2V8pgFi0araQcQKKmCKm+qosrulnZbd7LLTh3p/DtYzqHKSRZWQzf8ELavBrdTxxFFEDeBRXC8GH8z3rCu6wl/VtUNgNu2PFBEcQ5cDFXJ2EZKq7qk/jQU6/zclQCqSBFHBLwgQmL8MTdkqEVrc3xx1ZAXC7EapPuKQEDGkY/rmJpuzasC0x+7okiCqXI0kuUw4wjFHN3ZzpLXxRhMR0Mp0GqQtgD+znR8YczH2N1WrMvGnIueBbUapPAE/lvjyLQeQ1jZu93NlQuz0yBv14HOyjeAjWRRieLOPMccRs1V1uAhwNWgWHdTDzeU4GLr4YPy4VANuRqkFCSaJMCxnFcw1ucY98JMU1TDzjjQ5RCDhLMOcjBfpaF3Z6LFnxVhEaCrQUpC4qmyVTTyGKbV8LxiSUUS7GpQWNxZoKNZdBkJp+O7LMthOloNi6FvFbsSCQj41mVfBVmJJt+G7v8p8S4S0Frg8eShk0mG1TBA0R8LfrfY40hEO4DHs3YFEtAAC82rPdCrQbqIRLQEekAonOzFrhx+g66xCgZfDneRkMAfqLEGbbNnVg0T2oFuJMOq1G5PB6kR8TWZddGORN8VNjjc8JDN5g6SdAuJaCSzJZnoNko2OHZgN/xmKETnkIjmsSoHdPF+A/xqkL5EYloJPqLAaGu6HjzQjtnr8KvhJPr+uw0/plVIDy0jl3u4bDNkI0nxynUW8GscNS6GsykHH3TqAL8aapXdG2nf2Q2ljGBTDjOAbYSgr0zsSrJ84FEFb3cMaAabcvBG8pYNvhzwq+JP2azKvdnsCoam7Qz0tC3yx5ZDCfS4vkUCYrJ/GLowM2o9+KkDfnVjMfS4jiIBdWNRDn9F9/SAnrWM/fhyaIQeWAUS0GwW5fAOuD2UVBRbUJX6TclZ1Z2/EzJT6lMfXQBsZiGnqw1lsd9LG753difRkrvHThUfkAl1oPgfRcdBWlrbkCMOGLhY/ZBk+cNKVNzJfSnJshNKT0nKygBWDuuQGBiczTsd1G6cDsq5e+tKlGxCCQ9PfAzp3VHIvmFyDNCv8y+K7iyXKWhF5ntrwoHEjLpY9NvrPf4GcSnemZpGmaKi8x6FgKiHj5Ct7KkvxhqNpuYL7nNSXp8sU1fYqkQAG4KgLhb107JGoNNuzhOydnedzEhhKUd5X4iYxdrF6gOJ5AZfL/aXWSo65jO+CRuyWLMP7XJ4C0lIKr+52HoiWmavh3t4nkbsdBzsW6z9q3JeE7H/tr9sjT6o5rf/5wRbFwv1r8L4fHvGHVooW6igkouclkMVWxdrNgTXL7goUrZamd9x2U4ez9bFQncWraEx30nc1RgdXZuXSOclnJF9SXaFvl5JryCCc7PWbKFypcUsXawJLZAcfGyenH164Kfz08ybAus3u6YYvuf19+mw9OtXvt/HLrKewpykwXGILSbw7V/lOGzKVGd2tcv9OtmV+s9B8zdw5U9d3QlXTR8chW5jQvVQZl/qHSLIPgSRpnYGP5kpu1r/Ngkigh33LLtjdqqOuli+LP2rMrPVkKhAfc7vDRDf4C+7XkFlZo6PrUBAgbyasos1k+beoq0o+1dxmE8AJ8HW+tTTMh9amup092iu8hyj4yZTPJ+di6Xwr8yeaVOFS6dTjfpnvpb5Ua2TGKIQ06FlthUVdbFep1cOk2n7V6ew2TS+p2NI9QqZJ/mXOTPHjsD265k8LAZ1sSZz7F/txHeYGP18vZsu86YDjwwnIxTvw5tcLJqRwMzFehMZ6T6z5bARn8vlho5czPjGX+ZQKZ8by0VsLf4675nM8UPHy71JrRqmoCM1fVCmGiXYbmDz+4JamU8dOGpoKnxE5TJmN0uvRq43hVY5vIJ+FJreW/SKWiqXk/KHwH1pMrc6RY7dA8vULvLAZI4fIdd7hVY5TEIuvNc0hKpWzWRAIdEFlsyXeVYd6cnNORtUr2F2s3T0yFhqJ2uiByx/aLocDqpnspIE2Jcny3xrO9nhYJgjSX5UodkkI/PssZSqoQu6f+BR0+UQrvFJkK5v6RUlmL9hkZcZzygJOmzDb2g8YGj7AO260CmHvuhIPzc9UsU6IYdE6Gzml1NmcsVE4659B89L+9X/oqow/9jqTSZb7Bp1WV14g8bPzZ89+CkbF8uXet3+LxNaplOjJv2PN+FXBZ395+byEPxUq4n+v33cltJbR0zURLQOowzfpvHjdPOefy4bF2smctltNMz9w1orZxs1ng8FTnc8Lfy2tOnKuj0yySwuMHdzirMlsT1Rc96Qp1W3FBzzwA8cr9mdjn/lhwyVzr7kBVpJrlMltPnOrbCLStmDlli2+l8jblp4+a2zzjHraxqOdonWL/fRSDFCNPyouFiKUwsobcy6Q2MeJServHj3LHPirizPq8I8ener/+AehiRn73WGgZ5SMzlj/671s3tUMnwNuSqVswwGoa9EiZbuadzbAOzOU7eM35Bld25mGGQfKof/hSY5seBzPp5IbdHq+A7aRye/6G78g2iUw3jkoquolYN0QeMZHKX8nA2MMXw3NiapTks1vk9Uu3vKywxvDLDzPC7wSi3ITeuY2hDk3208jXIYhYyW5mFoi7KXqv+PJBmZiWNf3fP3azQ5p2gwA/VfLSgy2pXZqJwHJWoVVd55aulF0MooCtXwBDpcuitNKmLUvYcSh+aBuBRjtyFstfYk57b6TzU3pg4s3WRsIMnIYvccrYdcI80TrOuRiz9B379Ko33CTWiN6v9KcpPcxK0yNn38UK91UQNfZOoxcmNjueTAmwv/S92VB1dZXfGxblhxGx2pjq3rOLhWXEattdap0zodl9a1rjO1LrXT9wx5MRtLEpMQiJCEQAhbFkIwIRgCxCBbCBEim6DsyiYKKEsAi9AAVqy7yXnvO/ecc+93vsf9+91z73fe77vfued3FuQL2djqNLttsHsW60ymqiQ+CO8Xdc3iVTvSJnzDA7POhoHV5qikV5AgN/M1mQWIxu/wMK11bd83Vo9Gdu04C7gMLHCmPRx6ApGLQz6MfXjOTMGSPqUM7Y/OpgQ1I+6sfhQWbQwTD0ntBt959hLnegXUUE9rNPSA/JU/XYmTstGgx8ZZHPKIlsSE+LNySQLmMu6dy4a1LcN/Ma7ZB7UC187Pe9jC4Sm47UEhf8bao26YxDRiRHo64lWKEAOZkHsRHJMM/MZwXzJ/x4JlnrKFwy+AwP4hv0b6PAcV3gbWUNPZkjAx1PJPqGeVMdoP+KPT/WAd66aaT8ONh/wbKTts1bqgjL4YJocuZlq5PRj67/btFct1zGKd5zhkyxAGYXVAZHE6gk/HJDEikZKzLeO5X53sY1Fb8IL9zhINxzsP2TLcOS2CGQpYZk0xJopV6qjKKlKvw9eySvVuWawo/srvWid9tghfttQJvIVmY8J4rsGkN+VoyPa33rVjFutBIG5XyPfRlitR63rusbUdk8at39EkLHk9aY7PyoQs1oN2cLjHR/7Ka7QIrLN29ks2ARPHjvBpEeUAfeF/6Tlwfb/HCg23ngIeoEoBDqFB3LiC13byF5mKCeQnkyeX8NGwS6GcMaDLTrnVBg5PgAfI1+nsMJ0X89QoaQ1fjUmsFwgsjDDRUNJHQZWQxXrCJX81MaQzFrCO3BQHr40DYmYu75acpdIfximL1ZMUNeZ+1HDCz2RHLkooyZp1NC/jwOE/Oqoc6o7F6nGhpcUtZjjpWh0/wocDqFToVn2FAYdiHVW+3nXVC3scA/wVHIf8f8e2YVJnCYVmMrxoSr3EWt2xWHfBQFQlNIRqqa+ZPOYYTdEU56gnHyTDQanfWjNY9q5jg78Cr9kUUmysRSIjGgH7hVhs3QwiGrYq1bLuAwzcp93xVxPU4BCqpFwuSi0WQNtplsvlJtH6dC5Wq2wOzqvz3PFX0/XgEHqfwl2UytsZpqKXQLHYtaS4+wTF7jB7wNrHS+FwmTZ/1fl0oHkmh0rD/EegYgcIpaYX0ipPbFRsZw8LF1wmhcOjjuxtySikRgtUyzS7DhcrC2lOIYfTTtXTZA6IQn1UCodrwTN8pPcMmfQk+okiHmgYLrRW5BCmbzpjpp4uQV7HP4VoOAvyV7v1HmEzJz5SUiG7GZcpyFLPaef4JF/S0yVksc6SweEi+EHVaw23kkcHCSzKKlziSrbApUxa/l01ZUIX70UyONwPxGxSe4B0bhkvvkU5FxfIPQj77OEWniiv1NImDBK+XwaHa4CYT9TgMIEff8q1KIc4fXeHCUI869XUCfLNrhGh4STIXx3S2n5Ob0FkEdOiHItL45kjTZKWGhllWvoECY0XniSBw+VOrG3JqJZl3LD+QsNFluP9ziwV7VfP5Q9ZrMslcHjYneOWyV8J41BZFuUqXBTjTj1fWsou0qzl4HXBYl0FhLypBYfl4ih1hkVZhEsi11nOmxwRb3eHkkIhi3WVBA5ng82PVdp8i0UDG7pFaUiNWE0U0/eoTcqNliNnmz2LdSXc+2dKey+xUTDZoiww0M/EK1CG1WbHKam02p7FgvxVbrrS4RCx0jDVojxsiHmnyDhQELYcbccMi3VyQB86+xR5kkVpKCNLaTk/zb7N8+c6Ok0Cr9jJ9vyVktekwkHrO4pFaXAppxkFvOykE9c0Ha2CoqbXHjP81XgHOqZYlAby0Xirnu6mE9dbOlotsmWxAuKvUvKdaNlsURo6aRnCoRJrUt3sUym8fogtiwX5q6M6MMa9QxFnFmWlYfpo3FHGKVODb7pARa0zbVmse4GAbJVtV6Jn+EttGa4sykE2Ye9zOJzKK++jz5TQV0WxID/sXi5/dTHY9mCVXQ9H39iK0KLejizKCtNk7wSjZE5oTnhKZhRlIHN4OXXmXMxksf4Md61Dv6WZHMcV5W4syiOmuZ6NrNaySpQXfH3KjEBziDJUsrHm2bFYkL8aqoIGNESp8dvU3EFHnViUu00zPdq7UkOlvx/Lv83Zb0N/oxJjD+H/sB1/tVUFDqgL6nvOJJlVbdDLohwioxNSeMXqf2ijjc7qr5GuMCLDisV6Jgj+Kgm7vZX/UMt9BCtE1cOiXGWaNiTWrMGsJmmRH2vSLEJ/94aGbkGb67Pt+CsVan4nprSPvRkZgUVpdCLFaAfIC5UOp3YKsEMTN0uCYLGu5MDhIXjmatStCU1EdLa+M4O2k+XJjmFRfmCcNCmqiAgzVHpSFdVyHb1OQbewbuJDHDjcBiYfVOEy6Yf3HJ5TEFqU6RPNc0ChG26odL+u+axoxf15AbBYt3HgcDPY8J6gPZLl4Hgq5rU6BRYl6WvTpRodN1QaNsBCjyMVjy/4PN7MQMO5ZwRBvPWn/jffjL68o7uLRfkOaUZC/U/fpyZmrexxUc4EFE4tCtpd3XXJM86lw+E++PVVKICIpsk1RjfgqmU2vh36w7e8gtwqZVPbd4BYOou3VHhGtIt7L+VC6uf4GKz5RzocLgBT12gcDlsQfX0a4/c5B5l/0uGpbcWzRx7kmKG9F3yyopR5DoXDC2MY3umYFI0iSzBH+QI6HG4Pgr9CnL/5MVM88iwqg/s5Yr/rUwU+UKdjg5TFerI72O0+hd1i/SVeF9HhwYyIh8duHXYZWhXPLNadcLcpCrvF0qI8qcnWSLyh4TXP0pvYWdahoGBYuvVOKhyehXdojW/FYZGy9qbGFxpyvWu4z8fmKUQ9rARLPkuFw2PwkqaAhhyEKcS6JnyQFU9oWIYkoyRixqRCcSDIYj1GhcPzYK+tCnCY462qAWiucMvQ+EFDB/pV3YPMHKOgYsCrPkNEw7+DsHtXIzFx+MyytHhBwzg8kgWLwMpP8l/F8Cb/FxocHg+CvxpF4jJju+M/jA807DIFm2OROwq1gdpkLNYtYNo2BTTUIoSf8cWp2xoPaDCXzp8abMhkZoKIxTo9ABfqYOSlM89OXBw8GrbwHYOdx8Z4ZbFO7RYAf/U/b0WRUnBrAnZAREjmNmbllPmv5OUSFusm+KQKVg7yWY3Q2lMPfi1Q5xOtblY1NxrP7WgCS95HgcOlYFKaAhqSvWNLqO23qiYF6HyaT9sjFjO52X8t/1fCYl0BJhUpwAGJqK8nkx79gkLDhv3ELaYjWUPrFdQMeivcLuGvFE6xqKyQTuMIWUjK+mDQsJFeXxq5Aml8k0GPkO5PmuHQC+5To5i2dxp/FqPoTNKYINAwkRH52oDIUaiYMJLPYt0I3fAa/JV3ZBMrw/nlEn00zOJUOpgZljEzjsYiPot1N5iikQWQ530t4KWsJa6IP+dTl4HQWAqKzktls1jXgV3WKMDhMxemw/fnYYIqGrh9G9uDjZB7q+uSzxvRcD3c5UqFXXr7JDPYfMm+0fHmfOo8kOLrCQrxyTB87HoTHJ6D/4dG1ybvSHdBQ8vduWrOJ37RCywEcJE+i/U4l7/SIOKRi4WkacL+DTpoeE9wF0hHEjYa9FmsW0xw+EcA/BX8pNk6PVitsOXOp2a3jxr+UkHTQDOnG9BwGuSvZmvAwbsTqSw/KXON/2jYKPPHIFefGQqaBixWt1PjkL9K9o51EFouKb4TGI1CBrIJCa1TUDVc/iYcDi8G4ElHosbEy48k/qtvF4FRTpy4XbixtYhlmqiv6kt5/JVKXbMq966ZHFrA/bg6OLGFlpxbLv3rkhMCDXmA3+UrUDSc0J0Zp+iz2+FTscyD0hP/EAkOi8UbQ44fjQq0LBYrir8apgGHeXaRUFyT7afw5Zg5Ml9S4NDkB063K+gaxmv2wuBwA7xMaaABSbWcL5ZZT/hPY1dd6bONMPUr8caQDAKNkoLFYM0bMTg8EgB/hXmh5OQ64R33au51gJDII09iLvTjC0QfdcCouhuDw9UB4BVpdzRAnuExw/iPpnmWnT5itkP3iDe2j49Pp2NK1zWvQ9BwfgBudOxzKv9W1RkdD1mIWdRghMMU8c6QKlEqDYUm01msc8BPU/NU4OBZx00etWusKhtB3a2bTdMTxOWckGQLlZJhX4FFn/OGwwvgp4dV0BDypBjelkqsHGX6P9/BDxdjpcFd0q0lI84MDWWvA46PF7zh8GvL4A7h8AyBFlfCXmj6NxcY3EhljSYJ4rR2b8MkS0XbHVQWK4q/Uurr51miQRjTn2gsErTRGGpSZaoqGtkpfNplniIHqGgbvCrdTvOCwyXwA5mpAwdPs09WMmmp0XEwkPDlrzGak6WyGkkI+16noe0GKov1QBD81dfDkyb4iC0q6dB4QvALKWj5c6OYAQUNtQ4N53BYgz4O9QWLvugFhzvAD5crwcGzwxUzbLdl6hha85Eiu0O98wG6Zksx0zmCJIMMUlF3bxqLddyJzhzzjoyrCYy7RNtqKjcdDn9BEFhGlpZV2rSE8bRICdsUFXUXABbrhNhw+A3cXYUSHPJtoweHtc5iVZCjBPW8yxGYsKl6ETVdbIG3GBXCMMpN3ovGXzWGgj4dKMdT3hsrOtixTIQr02SuzKytQ0jpeUimmM77B/2iN8SGwy/h3VwLDlliONQOXzAwLBgEh4ok3zMysf5IYtzD4WWQ8/ZIbDj8PRD+KhRVLZkYfJNevCVNmnJlbn2dPlAourF9cKYUDjofC9hM4Woaf7VUCw7lfNth3ZCtNvVFU403/OkW0l+dUtgssh1m6ugbkv/nk/irOi04eDpmPKp9v18/zrYUlDEOrcFygQ3jDyWxbxa1OvqGJV3PiQWHP7EPVFfjKCM8KGfvQhdJVsaiv5vt18g/XDg9hmSkCqaSF3hJmMBi/d6Jh1gytlG9hy0jP8wPOxnGshGOEnf6LZ+TQ/dKViopHLQO+VcMNPzhZ2Bvc9XgUEK5AFS2kXMgKLdCwwWgcoCzpUZvG9mFIvEuWfSqlsLHm1msXwXEX4WQaNIfszxmjn3JcaeCFt7d3HKUF839sUiMd0WzXC2FDwcLXxINh9+Cn3SoocG73OK3kbt5uxf7kII7HN/SSOcLpu6oqcAZGqW+96HojqUPRMPhb+AnC/XgUOMdDVXbUPJe2I/Rjm+p1JdF+2fPrqxEgnm1FJ4ILul3mPmrBj04eAY29l7jW2mfUUJXiPUhgXg7P1TTOIgzP/E4CIe/wr311YNDVTiAMRwJC/4/e9ceVNVxxteqMz6iNrE2OtU209akiROTcWo7edQ2JmlrzeTRTtpknMbWdtLMtPcCFwQCwoXyFvEiIFq8wEUeIkh5CYoKBIQoPlARJBI0KhqxGLVGEKvBBhG97Nm7u2d37/lwhu/P+9jd8+3vnPPt9/seyYUQKzKkqxCZxXoeh8Mi/MY0Dg3U8nrukzU1Ls51jhqgBjphhmmcyWLN0nswVyjJsTDqL7URHIfhtlIzkNgM07gDq6c2C4fDUr1uO5UCVk06/xRWD781C7DVWplxGsd8YX/G0LBYt1NfpRTBbYH1llMIUuoRqxlQuozTeAOdxXoV+zpnuXFLC0gAbW6WsudumEFiI2hPDLO5xzidH6KzWN/Evi4yDAu7MkvNwBK77orJVN4RC72Oy76GwSEGm/pPdP7q30atq9A8HMTzP3Wew2AZ/juyWw3Se/DQmZ8ZgoZHJmAL22XQqkIOmkcEwhWFFcf+xss0/sp8zZhF5e0YAQAmW43RfDaNxZqOfdluzJr8ake2X0N+GpN7g7NYLzrDYRr2ZaYBCwqvarSO7D6BTTEkRpXGYo1aoI/+lZXA6rgjmyNHdt6FdNsNCKn2cM1izcYXVO2mNbReqa9pqGvLGdlyFqHSUXPcvf0tcBbrrftweAL7KlRpOdyYpvrerItr64rS/Ef2Wc/pd013c3FvU26AW+CA08iL7sNhIfaVqtrpiauO1rXBGAheG9Z2uoUKyek8X3gmqy7YuC7PkUFfro63rzpUn+AXqA4OjpUuWazX3FMVHLkAABjgSURBVEGt+dprV0IAIb/oZE3XgHlemal606xfDIaQOirjjm5PM9h5tbLdI6xMEX+AsVhL76HhOXzW4yrcjV6GAyH6y8z1JalDVrFf7RPiOh4U5NtU9tUOg8MjctpsKsKa8TLNiwfhsAQndeTj/R3GdrT0b9lmq6ogWTypaSrPgC58AuF7C490G+lfjT4tX+LxEjbmq674qwzpqaK6DXt8tq0rOJROsbauqDvGxB6jO9wTssPOGsXHtUifRXOxEX81CIcfYV/I10YOM0Ahse11Wauq2XfJf5XNyOWca91oj79hQAyNV6XsJmHPzV/cRcOjOH91SDoUz70Wlmfa9qNxlbwW1T5lBq2OFq8xXTUni9wLCi/Z58O2oeNNeGQADn/EJ5L2mruvNXpQZ0NZk86wAFUvLv3RxKklm/ZsPuy294Wk/XABG++7ZP4qWBYNPe64+NKzYdkJQpX2GhStQDSl3W9n8cUT7vC+SPoDysks1nvYxxdl4VCj9qq9a5vtuyXCQlQl2Ek55yyJVY3KPSxybmwLVt71nQE4zMBmyZaFg+rrTh8e6JRtOHxe+eNBcqewYJMFd1is0cr5qzreywm90diQySwuL1spXdXRQrYTFEfJCGtYfVNXdvxmzrbyksXcTmPDzXYPf8WV75q258xd07hqABCu/QMH5Vz1Z1XdjHLOWnqu2faifHNsx6BL1dF1qo/jdCZp5XVhwz3RD4c/YB96SHsdmLejd1Gxs7fXd73t0lVfSkcSqcjNVGUR0nI5lDba0BF5Xy906Esx90I3KySkRZJVwsZf2A+Hucr5q610r0GtnXiSpXRCleoKlKXOAypVyusmbWhyG6yQ7A1UDs4uuVEnhg73QX8TiynYHBul4RBAMQfaiv30mxyeEsZk1KfqTLcCCaV8Qh3ZZRnc1GLXxYOCZWv7fT50vCmTEHocZ9cV1Kty1Ta3paFSB6fiJGHq1yLkBJMwYk5SbWpa6/nK9WTKNEU6cRLvKPy41pJUUoKE2BlzQwn9T8tdd7ezijO6N1Se7C4JL8OHWsWW0VEhqpCQtugdJ71NeFX+HyL0BvbRFhVwSO7AFx+5rlLmBjotupJylWiQSIqh+8KamP+v78ZOGhG3FewTxr/O1BZ2yFITa2OPGGIxHEjl+M9eCl8g+gqLV+v4EfXJRFFDZP7JdVA94HT29N6ipPcFRi7NQuhJbGkX1MDBFGK7awOVNmbzFhZybTXpbXxz77gSrRYOokZMGXVU3mLw4RuTzuaYzYeLzitK9sZe6k8iNBlbWq9JmcR0xRXGHUtW4k4uFXs82BW7hQ+L0QTJVNdrip5mOSaHwloLp4YuZLK2bcFOE5z4WOXvIO7njfNBdk1fO2cWkNhRP9uN7i0ZwSyapQgtw9ZWAggHGvkVKkJuc9Wka0vqT1D2jbvJ9WMh9x/d97ERTN/Yw3OZls+EfDqYrlKUdso97EnOR4OBloFZPEFcIntXoB5hboHDDISmqo6MkxJKdX//VN2jxbDj4g4781KXOd4Ya/VflB899iUJTt1Yvd+pCD2LLa4QFA5Vuv364nflHRnqy4lzC3FBTzLwcsCpG1PQs1oGqwAUDhZKNXLPvToHC2Tn3JywUL34SoiLevp45wHVjXll5iL0NLa6TFA4UA/ofTqTVw/ptwR82NHPnybrW0U4PUnLug9Q21hW/9MIvYstLwMWDlT3nc5T3sfMrV2tx/Uh6JmJd49jS4lg7pA52hZY1kBYPNAcRxG6rMkVzINCpNZdGtWuOGZyN30VKX6Aug7H1vY3hH6ML7ASFg7Lg1QFB95ibmy82BtGD3HhCKaPdRJS13ic0tsIzVfj/jPm8WA+p8P3k888ZBJf27VCKHIljCQP0IeD6Si2ml8i9B18hd3AcMhLo8WJ8GeIJTG39QDxf3uZ75hofuIiwXsYWw4mPIpiHkLoffxgHQKMByr7x5/7woxjD3KIujK5TVpfRtaANRdS0elmjVNSe7SQT7uRlIA2FakmCcxNddUvoIJZAoDbrbyHMdApUEXjQcV30rA0tuQJYDiYdlJvKE5DbhtrTz8MEHzffy27+dZwjjFMaTikmjVBxdOJWVjG9WJ3JZ3UW5PLqbuPeYu7pm5DmL4oPuKih5W8fQFUyxqP/EvERjeGNj4iSjWVSuLym9pYO0rL3djEdFjwOEAcrDYdN0FdPJp38tRRxFpAZs//QeOBTh1wmA8BaYytiC2nPUaDWXjgIRoyWYN0gepYY7G/MJDB/RtJv5sbxIdaYimF/TarYm0FvWtsrwLigunu7hhmKp7voqyk2XwZGg90prmU+axmNUawMkbIYO3lKtYKSlixExGgh0wtlfL+mLtweEWr72vQeKCnXbcw6gElslxJrPQB5jH1Bsv8YfpE7aD63arR0MzBynEPf8887KzJHnr96tUBMq5hjhMesy5mOfXvMSzbxZxhgVRvjCZ6c9y8e2VnX1AVuKxQiiV4A0eo9Amvh1Vxo5n27/A+FhpSqiGVG6UlZt69X5P6qXFay3srMBwCT9D1eVrUzd2f9cRxwmPFRdGIi+XsCiOnQZVLiMF4CbkuWd9PFiUC46HaX/jdy0CSuYpjeqYvqsY1ktnVkFqSIVVLYPemOTc/enMCwUniC4wHRsU3T5c9ipuUxK+wCs65TKwM6GBH85dDKna/1mM75XlqW1XBEHK1bjNGtdLYc2L+H89jXNPnsaxBF16kgIvsAJpiSL3mEpKAfje0rerEZYRF24Dx4JcvhIcQxluGN0CfRUCRb5fAbWw0bIA8VeQRfCpjF2M92b9FWLX3TmA8sJyDsWUCT3l/7gCkzQLERRRH54bQVEilkkj3RQiXOYRf5acD46GZoVhPgj1pYRAO/P2kj+v3Zfl2cuT17YJUKSn28GcaNKDnppLMpXBYODiYIU0Fmv/sZNyaOlJ/GSeEUk2N8NYMDjR8DqnR44Q8xQXztHBAr48nhS5bYPHQE8FS7knch7Cd/vuPdMyezsjxxG2XxHYONGyOAtSnH4EbHL8EkWSmkhQ0xXKbGcjqMfQJVkEPVg3WtRmMNi1YDfsEnvZfoZCx0w6St/QNIhrQmHdIb+fbwHj4gqngmxXOvz+qMoWqlfFwuuL84zM8bZZiQYMcSGfgn48hwwF9+zVSMkI1LBwsbBefl1OmZR69GVWRztlt3EkzgXxtM0C5IFKU108eRq5k9kOE37f7wOLB90OmjlfeLyTGSMnXGwbqoOfbRt/TzT6+QugXITXZRQjBeOgt5FqWkMxJjwBYPPhxlBFeN2hAZCgIeXWWOD7iIoGvX2dtHqAeKwgszPhXEU1+MPyyAUymYxydg4I/ufPTSjqrrL/+noVOVV8f+JGNr9BY8LXh9pSdSUUDGvUeyZzsBcZDPYe2U4r7z8SN1N/cEph7N33a/jiA3I+5wGAOBfXqbSGsaNooOhzQxLmkV2Q5MB4KebS9oYJaidBszhdKN1xNnbTOZOrlbJBoBc1fIYUTfTARsWT0WML//gWdt2nj0Xe0fZMbeMQV1EdT7NUOPjCYI6sgFVhCaPLy99GILY9NIVxLN3AREJY7YXBzaF+mCZZrjRef0vmNewZSfYmEJ9iUxxCPvEi6mq+A4aCgj3Oc4Mz7lDRGBQ2c9iVlQf8W8QmJ3ARPvbA0Su5HnzD9ckABGmBDkUms+xxONKBJPyUZQpUPOB52C8/sCJJGA2wkEQnPcyfxwgE9tYDw/zXQqTiWZpkNkemRW/Zgo6GewOqNHY34Zf44wjV9lgyMB9MR8Q2JlKFeLC0P8ptiBYGHG/c60iOvqPLiqJUC4R1plvP2y4DBG7acTvh1wpqmI33ye9KFlYHjwe4ttiXRMXLzeoijYSWsEW4hudF+rRMN6OW/kKJOm8Dx0JsjtCcFktNWC7fqjS6BVRipEfzkSXrhgP4xgzBOUAw4Ho6HCuzJQemq8KLHmtJjsOraRYgmW/Am0i/fJ5mTtVHgeEgP1r8p8l0ZYsR6rLVVwCqrmrDscfORiPxVvUmmREI+07spCuITHetE0NAJHDrkQ7p13kZispB0hUnweEjW7bD27MvaL8G6VNdst4qg4Qgw0xNAKoIzSxAN6NFnSHEFCfB4MJX569+b/LqaKwJ+ar+kDsGm7v5noNX0//bOPCyrKo/jP4SBEjfQRM1I0yRNxaVSRK20MlxbdNwdnUWbfN4bIouKiYwkQiLiggoKopJLA4PiChgqOSqmmVoSLvmYjZpaTj0mU2ozjJnh/bK9dznnvud8/q3He+/vfHnvuWf5HDTv96anvXGgTmgrzsl1HOShKMWuForMycg9UfVvtNS4T4rt/sBMKWJdJHQafeNOZD+ja6J9Ixs4yEPwYrvbKWH72biiSraXrbi8fH6WppnM7ayXiNiugRdcDW/SQmf0pPtsPJAeoaW1lOy0JbfWfnt5Z1jwryuDw2fu+Cz3XPyseT9p+6dLX6nMZUq2megH9CnShht3c/f3xuJPK/qQdCQyOzvySJKiG6c+Y16d8OvgvoZqTAN5PYHGXVdxkYfEjFiFS86Esi8O2gX0nJfWOFATJALJDuMiD7ZrtzkMw8m9HFQG7Q+p34S00wp1J2+v5CMP4RsjeEvD6mAO6lIEvsRrjiY98EEPvc3GCQtzuApDymYeilKI9hL6kD50Rc+9lpc82EoOcROGpLNc/GomIsmav05pINd2aHnRZW7yEJXMSRq+mM5HQdAgfjtXveJAD49HI3w7eInDymxO4pDBRz3Q0s7x/Ug/nn8UXGFqKCdxWM7Lu+JQIg/l2A9WCD3al/RkMHr6JZx8XSzjpu9QwkE5YlBXqiXpy1j+1otXNFPDiGT21YjOAvc1Qec00KgeaI1wLg9x2MRPHBazr8YZcFsDXPWOA/m1Rd3JH3jIw1Ru4vAP5rVIB3fV1o/0p2NztBYwioM4xHMTB9aWXtsCMA/XvCMZwV9QAVh7SEvJ5SUNsxlbtGwr0Cf3CDKGepx+a2/mZlCScSFCkFS9nkFpIJdnUXfyA+ZxWATb5m0GeWA80YsO8mjtYlQcyOMP4HrvMB+Z/Rq1zPqgg8cjjWr2lMyjcLEm292Y6CDXcR5kHK8iD+kNxjO6P8B9m6U6h+gPth3RPwszMkv3Jn6L/lMayzoUIItoNzKSF5GHdDvb7iR0N+XcfZ3u3afnjMa7afG/mAGwcHInuzKEAUH6gw3IWKDWfg3LNMSgPReTv7v3PwTtv7D+XV1eEfvm/mZ5dEEkV8tA4NEfgwxOAzk9BK4a+DHDOKBFgVn3nzQRnHdz6mQtUVh2Zcv9J0kWbvle/anJ7LhJdATXMBej44C19gw9pOvUPw57sHcgOPdqziQ7khD7/c0SvNUoSD0AxspBjg4A69+QjAdq7Wcw22SiFkbNr2gwKCwvY0lxlR0RkVnHLx2tSEe5RvWWYtN72AzehrUeJzOAWvuLjAbk8lXd6f9UfifhC3OX31qcllBuLOacSt62Zsuqym0W4ar5kvMsqgBl9CPJHP6KKpjJJg6qhbNJ1RkGCU7dnzt30a74q//OPJB5bE3Gxt1bvrlcFFaNBY/qAXIG/Sgoo29hUhrICXpI57JIw17VbXxi8h2olhckmL9IDLknxjiZFQestY/4jsEgvWoh1JwTJt9CLvvfSTSj296dzANq7VNOmB4H9blpx0y/B9UP9WyT/y5ytVpEtTMQae3Pmy07SVX1Bd8z32WmXrd82tRudSqS0b9E5tIIdR/Mfm8n8/DZH6IeyzBzN38UEpJ0J7MZjvJwjvHfpcJCfKlW7kSYNzYJz5UcbnoasNZ+yo9mTlaofyWnsvi6WahWN35h2sWRlrlLbfPjgLX2ZnpIQSV2Mxn7AEdomnXsFTqTumcbYgHU2u8xbSMSWCUay+aMBeBSMOnwsHywnMNOi6h2hqDuw3yT2qAQ6P22M0mDbeX76lv52owLB58CDfACseIRdnsNgpDWgZUbHm112WhCDdCqwN8zSwN51gH3895+M1oAHQs5h5VcYQFaN2W88GANuGwdT3ZxoE5Ia2+Gh3Qrmoz80saKGeBusgsNvug3oBupySKqHe8aaAGp4R7ScOgQZLfEH57C86HBfxFIRu9NbHkKFeIwi1eFEsnucIUdgeiGDDXIzUQagz8Ta15HhTDYQ7oVGspZynDReVPKDQP7MtMuggv2Yp4G8noOLS/83NDip8ElTCydbbfgHV017oKZ4HK+XuzjQE2Q1j57hYG1L4C1n8Ty8IijeKmlYcNiX4Gr1e9EPAC19qdDjKs9FsUdtrEE7tFTPjLoajuBXFUni6h2AlAljJtqDoP9NoWtieYmvKcbxlzsBApfZ+IFqLXfZVTl8RHIc0KYxqEcI5EhM3rh6DAwN27SQK5Ia2+Yh/RfCoOv/ErnLbAbu8CsAjzhxU8cqB/S2hvlIcVn1sWxjYPtQ3hXRqyyPweu88cmxBNQa/+pMd/d8NijCNaSqhIYh5/1v9CPSEbfiviipWLaJMJhlvPq5ZIIvy30XwYT87YJFlHtQK29IbO8u9CgA/tDJD5GBdB9FUz0HnCVrtylgVwHoFleI84j36rwsiquLFlmfGgit0k7V/7iQH4dUHfSiDXFarFFCg/HSBwNNF6rh6xoHR4mHoFa+2IDdizmqb5p+TiqTfWXG6n3u+IgktE/T3wy2CxN82KuhG33xh7SDJbirEPHPw8mXulj0rh9aJnXdOwiGycEl+nnBeo9zb8BzeT24TYNNKo1snYZsApk5ZV7//6pgzZuiM68Zx+JzNP7X98HqttjFL9xII9xZnlIV128s2+5+FK0jSfy991ZsxZxRvcVo+hQn7YexDPdkNb+hiEjhjElG+PjUm3cEbLqUvzaTfr3oD+PNU1Grx8NUPdhXpBNopEwZEttQLwzCOXhgmxOrb2l2ywsotqBWvvAPNmg2rgCqvqsC/9xoIbPoMUp+bJFtbAW1PQZD7IC2EMaLNvUfi4jGf2rZA2g1j5nmmxVe4EW0RfJKkCt/THZrPZ2I5GMvqll0kBOY7jxkDoCX4JiPuRknTiQ+xto/do12bL2gDakvuFOVsJ5IvKQzpRtW302ARn9RGeyFs2Qh/R6uGzd6rIQWUSbkdV4DXUfDsjmrSahyCL6GlmPJ3ncDWE50C6CJy2YhnI8pEWyhavDR7xYRLXTBmntEwplG1edvUhG34asyUDkIU1OlK1cVaa/A/RPA8mqQK39LNnMVSQKKYYakXV5GeVhi2zoKhE0DxTvZQungXqz85BanwvIItrbynGgV5DW/lCMbOvKyUMy+lfI2jyGupNZ0bK1KyMfWUQfI6sDtfZnZHNXQjDyGg8h6wO19umywStkGhLyP+IAaSBPX/BkSQtkk1fEMWQR9XSEOGCtvaEeUsszV+FORq8fUGu/PkS2enlcAxq6Gt7kKHRG3YfVstnLYSbfFlHtDFU4FfjwSPh1UKyhDpQGrLWfXSCbHnEA1Oo5L0eKA9baTwqTba8mjn+LqHZGm+ghtTRFVrCIascHdR+2yea/j8IEUCYfcjz8UR6WygCUIRGd1eHvgGkg13bIQ7pZRuC3zLKKRVQ7/cab5SG1LOiojvH9yDHpizykP4XKFNxlP7KI9iVHpaVZHlJrEnPIEjJ6/ZiA8hAvg/B/ooHjXJngwGnAWvvJuTIKpZwBtRng6shxIL+24JnfT5VZsNnSkUXUjxybjshD+rcomYYFSRa0iGpnBDzmTngP6QpkER1Bjk89lIcMwdMQsh4UpZ4AaSAXpLUP/FnsOKwGNWntIkIcsNb+iNAe0t2gIuM8SAy6IQ/pKYE9pAXIItqNRKEB8pC+JayHNGwSsIg2IHGAWvuzgqYBWkQHCZQGchmGupMlYsZhG6jFMBeR4kAN+yOt/VYR07AUVKJ/QxILqLVfJqCHdDOwiNZ6nERj5IPSQ2orR0Y/ksSjhfSQ2myhU0ERWgiYhnK09ouESkP4dlCCMU4ixoHc26O1tCJ9XkxDJ1y1dycxcUYe0tlfCZOGRPSJ+TtnEhWotZ8syt6LKGR4qfsSiUt31H1QrgixVy8fueiV7iQyUGuvFAsgMk+PQE8+XOg0YK39/zoQmQ6++2L6P+FzW1RGrx9tesK6KCfTHdg9uW5WLHzonm1IdJ5+AOdBSVjqoEPW+cen4Cd+4GmSvKCUx5S/5zncO2PF8rRyn3eIDAOV4yG9m4jzGXvDHGSZ9YatcbOKK3jWXjIKpXgNUCpmyrL119+yNjnJn56cXPFT9nCVUbiz+KGOInnTXQbhF/y6CJ+GLh4yBr/i4St4GnxlGsrMbrYWOg2ta8sIlMHVTeA0+MtepIqAmoKGoWaAbHxAx/5CpqF/R9n0kN5j6woXhrpje8uGL49Woo1A/KmVbPQKGBVQX6Aw1A9wkU1eMbUbNRYkDI0byfdEVboQndsLEIb2AZ6yqauId69aDp2Fia97y0au1jRnM7cODpqFDm7NvGQDVx9nHzff5g6VhOa+bj7OsmHtx6mT94ghTft09XezMv5d+zQdMsKb+5Mw/wuhvxHC8t140gAAAABJRU5ErkJggg==;" vertex="1" parent="1">
          <mxGeometry x="-600" y="110" width="41.1" height="40" as="geometry" />
        </mxCell>
        <mxCell id="SRiD97IWDXF6vMLHgxWp-32" value="" style="shape=actor;whiteSpace=wrap;html=1;" vertex="1" parent="1">
          <mxGeometry x="-783.9" y="254" width="20" height="30" as="geometry" />
        </mxCell>
        <mxCell id="SRiD97IWDXF6vMLHgxWp-34" value="" style="endArrow=classic;html=1;rounded=0;entryX=0;entryY=0.5;entryDx=0;entryDy=0;" edge="1" parent="1" target="SRiD97IWDXF6vMLHgxWp-4">
          <mxGeometry relative="1" as="geometry">
            <mxPoint x="-753.9" y="270" as="sourcePoint" />
            <mxPoint x="-558.9" y="270.0000000000001" as="targetPoint" />
            <Array as="points">
              <mxPoint x="-633.9" y="270" />
              <mxPoint x="-593.9" y="270" />
            </Array>
          </mxGeometry>
        </mxCell>
        <object label="service1.example.com" id="SRiD97IWDXF6vMLHgxWp-35">
          <mxCell style="edgeLabel;resizable=0;html=1;;align=center;verticalAlign=middle;" connectable="0" vertex="1" parent="SRiD97IWDXF6vMLHgxWp-34">
            <mxGeometry relative="1" as="geometry">
              <mxPoint x="-45" y="-1" as="offset" />
            </mxGeometry>
          </mxCell>
        </object>
        <mxCell id="SRiD97IWDXF6vMLHgxWp-36" value="" style="shape=actor;whiteSpace=wrap;html=1;" vertex="1" parent="1">
          <mxGeometry x="-783.9" y="320" width="20" height="30" as="geometry" />
        </mxCell>
        <mxCell id="SRiD97IWDXF6vMLHgxWp-37" value="" style="endArrow=classic;html=1;rounded=0;entryX=0;entryY=0.5;entryDx=0;entryDy=0;" edge="1" parent="1" target="SRiD97IWDXF6vMLHgxWp-4">
          <mxGeometry relative="1" as="geometry">
            <mxPoint x="-753.9" y="336" as="sourcePoint" />
            <mxPoint x="-558.9" y="270.0000000000001" as="targetPoint" />
            <Array as="points">
              <mxPoint x="-633.9" y="336" />
              <mxPoint x="-593.9" y="336" />
              <mxPoint x="-593.9" y="270" />
            </Array>
          </mxGeometry>
        </mxCell>
        <object label="service2.example.com" id="SRiD97IWDXF6vMLHgxWp-38">
          <mxCell style="edgeLabel;resizable=0;html=1;;align=center;verticalAlign=middle;" connectable="0" vertex="1" parent="SRiD97IWDXF6vMLHgxWp-37">
            <mxGeometry relative="1" as="geometry">
              <mxPoint x="-79" y="-1" as="offset" />
            </mxGeometry>
          </mxCell>
        </object>
        <mxCell id="SRiD97IWDXF6vMLHgxWp-39" value="" style="shape=actor;whiteSpace=wrap;html=1;" vertex="1" parent="1">
          <mxGeometry x="-783.9" y="190" width="20" height="30" as="geometry" />
        </mxCell>
        <mxCell id="SRiD97IWDXF6vMLHgxWp-40" value="" style="endArrow=classic;html=1;rounded=0;entryX=0;entryY=0.5;entryDx=0;entryDy=0;" edge="1" parent="1" target="SRiD97IWDXF6vMLHgxWp-4">
          <mxGeometry relative="1" as="geometry">
            <mxPoint x="-753.9" y="206" as="sourcePoint" />
            <mxPoint x="-558.9" y="270.0000000000001" as="targetPoint" />
            <Array as="points">
              <mxPoint x="-633.9" y="206" />
              <mxPoint x="-593.9" y="206" />
              <mxPoint x="-593.9" y="270" />
            </Array>
          </mxGeometry>
        </mxCell>
        <object label="service3.example.com" id="SRiD97IWDXF6vMLHgxWp-41">
          <mxCell style="edgeLabel;resizable=0;html=1;;align=center;verticalAlign=middle;" connectable="0" vertex="1" parent="SRiD97IWDXF6vMLHgxWp-40">
            <mxGeometry relative="1" as="geometry">
              <mxPoint x="-78" y="-1" as="offset" />
            </mxGeometry>
          </mxCell>
        </object>
      </root>
    </mxGraphModel>
  </diagram>
</mxfile>
